<?xml version="1.0" encoding="utf-8" standalone="no"?>
<!DOCTYPE svg PUBLIC "-//W3C//DTD SVG 1.1//EN"
  "http://www.w3.org/Graphics/SVG/1.1/DTD/svg11.dtd">
<!-- Created with matplotlib (http://matplotlib.org/) -->
<svg height="327pt" version="1.1" viewBox="0 0 429 327" width="429pt" xmlns="http://www.w3.org/2000/svg" xmlns:xlink="http://www.w3.org/1999/xlink">
 <defs>
  <style type="text/css">
*{stroke-linecap:butt;stroke-linejoin:round;}
  </style>
 </defs>
 <g id="figure_1">
  <g id="patch_1">
   <path d="M 0 327.917625 
L 429.508125 327.917625 
L 429.508125 0 
L 0 0 
z
" style="fill:#ffffff;"/>
  </g>
  <g id="axes_1">
   <g id="patch_2">
    <path d="M 61.688125 276.812 
L 418.808125 276.812 
L 418.808125 10.7 
L 61.688125 10.7 
z
" style="fill:#ffffff;"/>
   </g>
   <g id="matplotlib.axis_1">
    <g id="xtick_1">
     <g id="line2d_1">
      <path clip-path="url(#p5041933477)" d="M 77.920852 276.812 
L 77.920852 10.7 
" style="fill:none;stroke:#b0b0b0;stroke-linecap:square;stroke-width:0.8;"/>
     </g>
     <g id="line2d_2">
      <defs>
       <path d="M 0 0 
L 0 3.5 
" id="m5053f8eefb" style="stroke:#000000;stroke-width:0.8;"/>
      </defs>
      <g>
       <use style="stroke:#000000;stroke-width:0.8;" x="77.920852" xlink:href="#m5053f8eefb" y="276.812"/>
      </g>
     </g>
     <g id="text_1">
      <!-- 0 -->
      <defs>
       <path d="M 31.78125 66.40625 
Q 24.171875 66.40625 20.328125 58.90625 
Q 16.5 51.421875 16.5 36.375 
Q 16.5 21.390625 20.328125 13.890625 
Q 24.171875 6.390625 31.78125 6.390625 
Q 39.453125 6.390625 43.28125 13.890625 
Q 47.125 21.390625 47.125 36.375 
Q 47.125 51.421875 43.28125 58.90625 
Q 39.453125 66.40625 31.78125 66.40625 
z
M 31.78125 74.21875 
Q 44.046875 74.21875 50.515625 64.515625 
Q 56.984375 54.828125 56.984375 36.375 
Q 56.984375 17.96875 50.515625 8.265625 
Q 44.046875 -1.421875 31.78125 -1.421875 
Q 19.53125 -1.421875 13.0625 8.265625 
Q 6.59375 17.96875 6.59375 36.375 
Q 6.59375 54.828125 13.0625 64.515625 
Q 19.53125 74.21875 31.78125 74.21875 
z
" id="DejaVuSans-30"/>
      </defs>
      <g transform="translate(72.512727 296.729344)scale(0.17 -0.17)">
       <use xlink:href="#DejaVuSans-30"/>
      </g>
     </g>
    </g>
    <g id="xtick_2">
     <g id="line2d_3">
      <path clip-path="url(#p5041933477)" d="M 142.981883 276.812 
L 142.981883 10.7 
" style="fill:none;stroke:#b0b0b0;stroke-linecap:square;stroke-width:0.8;"/>
     </g>
     <g id="line2d_4">
      <g>
       <use style="stroke:#000000;stroke-width:0.8;" x="142.981883" xlink:href="#m5053f8eefb" y="276.812"/>
      </g>
     </g>
     <g id="text_2">
      <!-- 100 -->
      <defs>
       <path d="M 12.40625 8.296875 
L 28.515625 8.296875 
L 28.515625 63.921875 
L 10.984375 60.40625 
L 10.984375 69.390625 
L 28.421875 72.90625 
L 38.28125 72.90625 
L 38.28125 8.296875 
L 54.390625 8.296875 
L 54.390625 0 
L 12.40625 0 
z
" id="DejaVuSans-31"/>
      </defs>
      <g transform="translate(126.757508 296.729344)scale(0.17 -0.17)">
       <use xlink:href="#DejaVuSans-31"/>
       <use x="63.623047" xlink:href="#DejaVuSans-30"/>
       <use x="127.246094" xlink:href="#DejaVuSans-30"/>
      </g>
     </g>
    </g>
    <g id="xtick_3">
     <g id="line2d_5">
      <path clip-path="url(#p5041933477)" d="M 208.042915 276.812 
L 208.042915 10.7 
" style="fill:none;stroke:#b0b0b0;stroke-linecap:square;stroke-width:0.8;"/>
     </g>
     <g id="line2d_6">
      <g>
       <use style="stroke:#000000;stroke-width:0.8;" x="208.042915" xlink:href="#m5053f8eefb" y="276.812"/>
      </g>
     </g>
     <g id="text_3">
      <!-- 200 -->
      <defs>
       <path d="M 19.1875 8.296875 
L 53.609375 8.296875 
L 53.609375 0 
L 7.328125 0 
L 7.328125 8.296875 
Q 12.9375 14.109375 22.625 23.890625 
Q 32.328125 33.6875 34.8125 36.53125 
Q 39.546875 41.84375 41.421875 45.53125 
Q 43.3125 49.21875 43.3125 52.78125 
Q 43.3125 58.59375 39.234375 62.25 
Q 35.15625 65.921875 28.609375 65.921875 
Q 23.96875 65.921875 18.8125 64.3125 
Q 13.671875 62.703125 7.8125 59.421875 
L 7.8125 69.390625 
Q 13.765625 71.78125 18.9375 73 
Q 24.125 74.21875 28.421875 74.21875 
Q 39.75 74.21875 46.484375 68.546875 
Q 53.21875 62.890625 53.21875 53.421875 
Q 53.21875 48.921875 51.53125 44.890625 
Q 49.859375 40.875 45.40625 35.40625 
Q 44.1875 33.984375 37.640625 27.21875 
Q 31.109375 20.453125 19.1875 8.296875 
z
" id="DejaVuSans-32"/>
      </defs>
      <g transform="translate(191.81854 296.729344)scale(0.17 -0.17)">
       <use xlink:href="#DejaVuSans-32"/>
       <use x="63.623047" xlink:href="#DejaVuSans-30"/>
       <use x="127.246094" xlink:href="#DejaVuSans-30"/>
      </g>
     </g>
    </g>
    <g id="xtick_4">
     <g id="line2d_7">
      <path clip-path="url(#p5041933477)" d="M 273.103946 276.812 
L 273.103946 10.7 
" style="fill:none;stroke:#b0b0b0;stroke-linecap:square;stroke-width:0.8;"/>
     </g>
     <g id="line2d_8">
      <g>
       <use style="stroke:#000000;stroke-width:0.8;" x="273.103946" xlink:href="#m5053f8eefb" y="276.812"/>
      </g>
     </g>
     <g id="text_4">
      <!-- 300 -->
      <defs>
       <path d="M 40.578125 39.3125 
Q 47.65625 37.796875 51.625 33 
Q 55.609375 28.21875 55.609375 21.1875 
Q 55.609375 10.40625 48.1875 4.484375 
Q 40.765625 -1.421875 27.09375 -1.421875 
Q 22.515625 -1.421875 17.65625 -0.515625 
Q 12.796875 0.390625 7.625 2.203125 
L 7.625 11.71875 
Q 11.71875 9.328125 16.59375 8.109375 
Q 21.484375 6.890625 26.8125 6.890625 
Q 36.078125 6.890625 40.9375 10.546875 
Q 45.796875 14.203125 45.796875 21.1875 
Q 45.796875 27.640625 41.28125 31.265625 
Q 36.765625 34.90625 28.71875 34.90625 
L 20.21875 34.90625 
L 20.21875 43.015625 
L 29.109375 43.015625 
Q 36.375 43.015625 40.234375 45.921875 
Q 44.09375 48.828125 44.09375 54.296875 
Q 44.09375 59.90625 40.109375 62.90625 
Q 36.140625 65.921875 28.71875 65.921875 
Q 24.65625 65.921875 20.015625 65.03125 
Q 15.375 64.15625 9.8125 62.3125 
L 9.8125 71.09375 
Q 15.4375 72.65625 20.34375 73.4375 
Q 25.25 74.21875 29.59375 74.21875 
Q 40.828125 74.21875 47.359375 69.109375 
Q 53.90625 64.015625 53.90625 55.328125 
Q 53.90625 49.265625 50.4375 45.09375 
Q 46.96875 40.921875 40.578125 39.3125 
z
" id="DejaVuSans-33"/>
      </defs>
      <g transform="translate(256.879571 296.729344)scale(0.17 -0.17)">
       <use xlink:href="#DejaVuSans-33"/>
       <use x="63.623047" xlink:href="#DejaVuSans-30"/>
       <use x="127.246094" xlink:href="#DejaVuSans-30"/>
      </g>
     </g>
    </g>
    <g id="xtick_5">
     <g id="line2d_9">
      <path clip-path="url(#p5041933477)" d="M 338.164977 276.812 
L 338.164977 10.7 
" style="fill:none;stroke:#b0b0b0;stroke-linecap:square;stroke-width:0.8;"/>
     </g>
     <g id="line2d_10">
      <g>
       <use style="stroke:#000000;stroke-width:0.8;" x="338.164977" xlink:href="#m5053f8eefb" y="276.812"/>
      </g>
     </g>
     <g id="text_5">
      <!-- 400 -->
      <defs>
       <path d="M 37.796875 64.3125 
L 12.890625 25.390625 
L 37.796875 25.390625 
z
M 35.203125 72.90625 
L 47.609375 72.90625 
L 47.609375 25.390625 
L 58.015625 25.390625 
L 58.015625 17.1875 
L 47.609375 17.1875 
L 47.609375 0 
L 37.796875 0 
L 37.796875 17.1875 
L 4.890625 17.1875 
L 4.890625 26.703125 
z
" id="DejaVuSans-34"/>
      </defs>
      <g transform="translate(321.940602 296.729344)scale(0.17 -0.17)">
       <use xlink:href="#DejaVuSans-34"/>
       <use x="63.623047" xlink:href="#DejaVuSans-30"/>
       <use x="127.246094" xlink:href="#DejaVuSans-30"/>
      </g>
     </g>
    </g>
    <g id="xtick_6">
     <g id="line2d_11">
      <path clip-path="url(#p5041933477)" d="M 403.226008 276.812 
L 403.226008 10.7 
" style="fill:none;stroke:#b0b0b0;stroke-linecap:square;stroke-width:0.8;"/>
     </g>
     <g id="line2d_12">
      <g>
       <use style="stroke:#000000;stroke-width:0.8;" x="403.226008" xlink:href="#m5053f8eefb" y="276.812"/>
      </g>
     </g>
     <g id="text_6">
      <!-- 500 -->
      <defs>
       <path d="M 10.796875 72.90625 
L 49.515625 72.90625 
L 49.515625 64.59375 
L 19.828125 64.59375 
L 19.828125 46.734375 
Q 21.96875 47.46875 24.109375 47.828125 
Q 26.265625 48.1875 28.421875 48.1875 
Q 40.625 48.1875 47.75 41.5 
Q 54.890625 34.8125 54.890625 23.390625 
Q 54.890625 11.625 47.5625 5.09375 
Q 40.234375 -1.421875 26.90625 -1.421875 
Q 22.3125 -1.421875 17.546875 -0.640625 
Q 12.796875 0.140625 7.71875 1.703125 
L 7.71875 11.625 
Q 12.109375 9.234375 16.796875 8.0625 
Q 21.484375 6.890625 26.703125 6.890625 
Q 35.15625 6.890625 40.078125 11.328125 
Q 45.015625 15.765625 45.015625 23.390625 
Q 45.015625 31 40.078125 35.4375 
Q 35.15625 39.890625 26.703125 39.890625 
Q 22.75 39.890625 18.8125 39.015625 
Q 14.890625 38.140625 10.796875 36.28125 
z
" id="DejaVuSans-35"/>
      </defs>
      <g transform="translate(387.001633 296.729344)scale(0.17 -0.17)">
       <use xlink:href="#DejaVuSans-35"/>
       <use x="63.623047" xlink:href="#DejaVuSans-30"/>
       <use x="127.246094" xlink:href="#DejaVuSans-30"/>
      </g>
     </g>
    </g>
    <g id="text_7">
     <!-- Number of iterations -->
     <defs>
      <path d="M 9.8125 72.90625 
L 23.09375 72.90625 
L 55.421875 11.921875 
L 55.421875 72.90625 
L 64.984375 72.90625 
L 64.984375 0 
L 51.703125 0 
L 19.390625 60.984375 
L 19.390625 0 
L 9.8125 0 
z
" id="DejaVuSans-4e"/>
      <path d="M 8.5 21.578125 
L 8.5 54.6875 
L 17.484375 54.6875 
L 17.484375 21.921875 
Q 17.484375 14.15625 20.5 10.265625 
Q 23.53125 6.390625 29.59375 6.390625 
Q 36.859375 6.390625 41.078125 11.03125 
Q 45.3125 15.671875 45.3125 23.6875 
L 45.3125 54.6875 
L 54.296875 54.6875 
L 54.296875 0 
L 45.3125 0 
L 45.3125 8.40625 
Q 42.046875 3.421875 37.71875 1 
Q 33.40625 -1.421875 27.6875 -1.421875 
Q 18.265625 -1.421875 13.375 4.4375 
Q 8.5 10.296875 8.5 21.578125 
z
M 31.109375 56 
z
" id="DejaVuSans-75"/>
      <path d="M 52 44.1875 
Q 55.375 50.25 60.0625 53.125 
Q 64.75 56 71.09375 56 
Q 79.640625 56 84.28125 50.015625 
Q 88.921875 44.046875 88.921875 33.015625 
L 88.921875 0 
L 79.890625 0 
L 79.890625 32.71875 
Q 79.890625 40.578125 77.09375 44.375 
Q 74.3125 48.1875 68.609375 48.1875 
Q 61.625 48.1875 57.5625 43.546875 
Q 53.515625 38.921875 53.515625 30.90625 
L 53.515625 0 
L 44.484375 0 
L 44.484375 32.71875 
Q 44.484375 40.625 41.703125 44.40625 
Q 38.921875 48.1875 33.109375 48.1875 
Q 26.21875 48.1875 22.15625 43.53125 
Q 18.109375 38.875 18.109375 30.90625 
L 18.109375 0 
L 9.078125 0 
L 9.078125 54.6875 
L 18.109375 54.6875 
L 18.109375 46.1875 
Q 21.1875 51.21875 25.484375 53.609375 
Q 29.78125 56 35.6875 56 
Q 41.65625 56 45.828125 52.96875 
Q 50 49.953125 52 44.1875 
z
" id="DejaVuSans-6d"/>
      <path d="M 48.6875 27.296875 
Q 48.6875 37.203125 44.609375 42.84375 
Q 40.53125 48.484375 33.40625 48.484375 
Q 26.265625 48.484375 22.1875 42.84375 
Q 18.109375 37.203125 18.109375 27.296875 
Q 18.109375 17.390625 22.1875 11.75 
Q 26.265625 6.109375 33.40625 6.109375 
Q 40.53125 6.109375 44.609375 11.75 
Q 48.6875 17.390625 48.6875 27.296875 
z
M 18.109375 46.390625 
Q 20.953125 51.265625 25.265625 53.625 
Q 29.59375 56 35.59375 56 
Q 45.5625 56 51.78125 48.09375 
Q 58.015625 40.1875 58.015625 27.296875 
Q 58.015625 14.40625 51.78125 6.484375 
Q 45.5625 -1.421875 35.59375 -1.421875 
Q 29.59375 -1.421875 25.265625 0.953125 
Q 20.953125 3.328125 18.109375 8.203125 
L 18.109375 0 
L 9.078125 0 
L 9.078125 75.984375 
L 18.109375 75.984375 
z
" id="DejaVuSans-62"/>
      <path d="M 56.203125 29.59375 
L 56.203125 25.203125 
L 14.890625 25.203125 
Q 15.484375 15.921875 20.484375 11.0625 
Q 25.484375 6.203125 34.421875 6.203125 
Q 39.59375 6.203125 44.453125 7.46875 
Q 49.3125 8.734375 54.109375 11.28125 
L 54.109375 2.78125 
Q 49.265625 0.734375 44.1875 -0.34375 
Q 39.109375 -1.421875 33.890625 -1.421875 
Q 20.796875 -1.421875 13.15625 6.1875 
Q 5.515625 13.8125 5.515625 26.8125 
Q 5.515625 40.234375 12.765625 48.109375 
Q 20.015625 56 32.328125 56 
Q 43.359375 56 49.78125 48.890625 
Q 56.203125 41.796875 56.203125 29.59375 
z
M 47.21875 32.234375 
Q 47.125 39.59375 43.09375 43.984375 
Q 39.0625 48.390625 32.421875 48.390625 
Q 24.90625 48.390625 20.390625 44.140625 
Q 15.875 39.890625 15.1875 32.171875 
z
" id="DejaVuSans-65"/>
      <path d="M 41.109375 46.296875 
Q 39.59375 47.171875 37.8125 47.578125 
Q 36.03125 48 33.890625 48 
Q 26.265625 48 22.1875 43.046875 
Q 18.109375 38.09375 18.109375 28.8125 
L 18.109375 0 
L 9.078125 0 
L 9.078125 54.6875 
L 18.109375 54.6875 
L 18.109375 46.1875 
Q 20.953125 51.171875 25.484375 53.578125 
Q 30.03125 56 36.53125 56 
Q 37.453125 56 38.578125 55.875 
Q 39.703125 55.765625 41.0625 55.515625 
z
" id="DejaVuSans-72"/>
      <path id="DejaVuSans-20"/>
      <path d="M 30.609375 48.390625 
Q 23.390625 48.390625 19.1875 42.75 
Q 14.984375 37.109375 14.984375 27.296875 
Q 14.984375 17.484375 19.15625 11.84375 
Q 23.34375 6.203125 30.609375 6.203125 
Q 37.796875 6.203125 41.984375 11.859375 
Q 46.1875 17.53125 46.1875 27.296875 
Q 46.1875 37.015625 41.984375 42.703125 
Q 37.796875 48.390625 30.609375 48.390625 
z
M 30.609375 56 
Q 42.328125 56 49.015625 48.375 
Q 55.71875 40.765625 55.71875 27.296875 
Q 55.71875 13.875 49.015625 6.21875 
Q 42.328125 -1.421875 30.609375 -1.421875 
Q 18.84375 -1.421875 12.171875 6.21875 
Q 5.515625 13.875 5.515625 27.296875 
Q 5.515625 40.765625 12.171875 48.375 
Q 18.84375 56 30.609375 56 
z
" id="DejaVuSans-6f"/>
      <path d="M 37.109375 75.984375 
L 37.109375 68.5 
L 28.515625 68.5 
Q 23.6875 68.5 21.796875 66.546875 
Q 19.921875 64.59375 19.921875 59.515625 
L 19.921875 54.6875 
L 34.71875 54.6875 
L 34.71875 47.703125 
L 19.921875 47.703125 
L 19.921875 0 
L 10.890625 0 
L 10.890625 47.703125 
L 2.296875 47.703125 
L 2.296875 54.6875 
L 10.890625 54.6875 
L 10.890625 58.5 
Q 10.890625 67.625 15.140625 71.796875 
Q 19.390625 75.984375 28.609375 75.984375 
z
" id="DejaVuSans-66"/>
      <path d="M 9.421875 54.6875 
L 18.40625 54.6875 
L 18.40625 0 
L 9.421875 0 
z
M 9.421875 75.984375 
L 18.40625 75.984375 
L 18.40625 64.59375 
L 9.421875 64.59375 
z
" id="DejaVuSans-69"/>
      <path d="M 18.3125 70.21875 
L 18.3125 54.6875 
L 36.8125 54.6875 
L 36.8125 47.703125 
L 18.3125 47.703125 
L 18.3125 18.015625 
Q 18.3125 11.328125 20.140625 9.421875 
Q 21.96875 7.515625 27.59375 7.515625 
L 36.8125 7.515625 
L 36.8125 0 
L 27.59375 0 
Q 17.1875 0 13.234375 3.875 
Q 9.28125 7.765625 9.28125 18.015625 
L 9.28125 47.703125 
L 2.6875 47.703125 
L 2.6875 54.6875 
L 9.28125 54.6875 
L 9.28125 70.21875 
z
" id="DejaVuSans-74"/>
      <path d="M 34.28125 27.484375 
Q 23.390625 27.484375 19.1875 25 
Q 14.984375 22.515625 14.984375 16.5 
Q 14.984375 11.71875 18.140625 8.90625 
Q 21.296875 6.109375 26.703125 6.109375 
Q 34.1875 6.109375 38.703125 11.40625 
Q 43.21875 16.703125 43.21875 25.484375 
L 43.21875 27.484375 
z
M 52.203125 31.203125 
L 52.203125 0 
L 43.21875 0 
L 43.21875 8.296875 
Q 40.140625 3.328125 35.546875 0.953125 
Q 30.953125 -1.421875 24.3125 -1.421875 
Q 15.921875 -1.421875 10.953125 3.296875 
Q 6 8.015625 6 15.921875 
Q 6 25.140625 12.171875 29.828125 
Q 18.359375 34.515625 30.609375 34.515625 
L 43.21875 34.515625 
L 43.21875 35.40625 
Q 43.21875 41.609375 39.140625 45 
Q 35.0625 48.390625 27.6875 48.390625 
Q 23 48.390625 18.546875 47.265625 
Q 14.109375 46.140625 10.015625 43.890625 
L 10.015625 52.203125 
Q 14.9375 54.109375 19.578125 55.046875 
Q 24.21875 56 28.609375 56 
Q 40.484375 56 46.34375 49.84375 
Q 52.203125 43.703125 52.203125 31.203125 
z
" id="DejaVuSans-61"/>
      <path d="M 54.890625 33.015625 
L 54.890625 0 
L 45.90625 0 
L 45.90625 32.71875 
Q 45.90625 40.484375 42.875 44.328125 
Q 39.84375 48.1875 33.796875 48.1875 
Q 26.515625 48.1875 22.3125 43.546875 
Q 18.109375 38.921875 18.109375 30.90625 
L 18.109375 0 
L 9.078125 0 
L 9.078125 54.6875 
L 18.109375 54.6875 
L 18.109375 46.1875 
Q 21.34375 51.125 25.703125 53.5625 
Q 30.078125 56 35.796875 56 
Q 45.21875 56 50.046875 50.171875 
Q 54.890625 44.34375 54.890625 33.015625 
z
" id="DejaVuSans-6e"/>
      <path d="M 44.28125 53.078125 
L 44.28125 44.578125 
Q 40.484375 46.53125 36.375 47.5 
Q 32.28125 48.484375 27.875 48.484375 
Q 21.1875 48.484375 17.84375 46.4375 
Q 14.5 44.390625 14.5 40.28125 
Q 14.5 37.15625 16.890625 35.375 
Q 19.28125 33.59375 26.515625 31.984375 
L 29.59375 31.296875 
Q 39.15625 29.25 43.1875 25.515625 
Q 47.21875 21.78125 47.21875 15.09375 
Q 47.21875 7.46875 41.1875 3.015625 
Q 35.15625 -1.421875 24.609375 -1.421875 
Q 20.21875 -1.421875 15.453125 -0.5625 
Q 10.6875 0.296875 5.421875 2 
L 5.421875 11.28125 
Q 10.40625 8.6875 15.234375 7.390625 
Q 20.0625 6.109375 24.8125 6.109375 
Q 31.15625 6.109375 34.5625 8.28125 
Q 37.984375 10.453125 37.984375 14.40625 
Q 37.984375 18.0625 35.515625 20.015625 
Q 33.0625 21.96875 24.703125 23.78125 
L 21.578125 24.515625 
Q 13.234375 26.265625 9.515625 29.90625 
Q 5.8125 33.546875 5.8125 39.890625 
Q 5.8125 47.609375 11.28125 51.796875 
Q 16.75 56 26.8125 56 
Q 31.78125 56 36.171875 55.265625 
Q 40.578125 54.546875 44.28125 53.078125 
z
" id="DejaVuSans-73"/>
     </defs>
     <g transform="translate(152.169531 317.182156)scale(0.17 -0.17)">
      <use xlink:href="#DejaVuSans-4e"/>
      <use x="74.804688" xlink:href="#DejaVuSans-75"/>
      <use x="138.183594" xlink:href="#DejaVuSans-6d"/>
      <use x="235.595703" xlink:href="#DejaVuSans-62"/>
      <use x="299.072266" xlink:href="#DejaVuSans-65"/>
      <use x="360.595703" xlink:href="#DejaVuSans-72"/>
      <use x="401.708984" xlink:href="#DejaVuSans-20"/>
      <use x="433.496094" xlink:href="#DejaVuSans-6f"/>
      <use x="494.677734" xlink:href="#DejaVuSans-66"/>
      <use x="529.882812" xlink:href="#DejaVuSans-20"/>
      <use x="561.669922" xlink:href="#DejaVuSans-69"/>
      <use x="589.453125" xlink:href="#DejaVuSans-74"/>
      <use x="628.662109" xlink:href="#DejaVuSans-65"/>
      <use x="690.185547" xlink:href="#DejaVuSans-72"/>
      <use x="731.298828" xlink:href="#DejaVuSans-61"/>
      <use x="792.578125" xlink:href="#DejaVuSans-74"/>
      <use x="831.787109" xlink:href="#DejaVuSans-69"/>
      <use x="859.570312" xlink:href="#DejaVuSans-6f"/>
      <use x="920.751953" xlink:href="#DejaVuSans-6e"/>
      <use x="984.130859" xlink:href="#DejaVuSans-73"/>
     </g>
    </g>
   </g>
   <g id="matplotlib.axis_2">
    <g id="ytick_1">
     <g id="line2d_13">
      <path clip-path="url(#p5041933477)" d="M 61.688125 264.716 
L 418.808125 264.716 
" style="fill:none;stroke:#b0b0b0;stroke-linecap:square;stroke-width:0.8;"/>
     </g>
     <g id="line2d_14">
      <defs>
       <path d="M 0 0 
L -3.5 0 
" id="m7bb8e7aab7" style="stroke:#000000;stroke-width:0.8;"/>
      </defs>
      <g>
       <use style="stroke:#000000;stroke-width:0.8;" x="61.688125" xlink:href="#m7bb8e7aab7" y="264.716"/>
      </g>
     </g>
     <g id="text_8">
      <!-- 0.0 -->
      <defs>
       <path d="M 10.6875 12.40625 
L 21 12.40625 
L 21 0 
L 10.6875 0 
z
" id="DejaVuSans-2e"/>
      </defs>
      <g transform="translate(27.652813 271.174672)scale(0.17 -0.17)">
       <use xlink:href="#DejaVuSans-30"/>
       <use x="63.623047" xlink:href="#DejaVuSans-2e"/>
       <use x="95.410156" xlink:href="#DejaVuSans-30"/>
      </g>
     </g>
    </g>
    <g id="ytick_2">
     <g id="line2d_15">
      <path clip-path="url(#p5041933477)" d="M 61.688125 198.023603 
L 418.808125 198.023603 
" style="fill:none;stroke:#b0b0b0;stroke-linecap:square;stroke-width:0.8;"/>
     </g>
     <g id="line2d_16">
      <g>
       <use style="stroke:#000000;stroke-width:0.8;" x="61.688125" xlink:href="#m7bb8e7aab7" y="198.023603"/>
      </g>
     </g>
     <g id="text_9">
      <!-- 0.5 -->
      <g transform="translate(27.652813 204.482275)scale(0.17 -0.17)">
       <use xlink:href="#DejaVuSans-30"/>
       <use x="63.623047" xlink:href="#DejaVuSans-2e"/>
       <use x="95.410156" xlink:href="#DejaVuSans-35"/>
      </g>
     </g>
    </g>
    <g id="ytick_3">
     <g id="line2d_17">
      <path clip-path="url(#p5041933477)" d="M 61.688125 131.331206 
L 418.808125 131.331206 
" style="fill:none;stroke:#b0b0b0;stroke-linecap:square;stroke-width:0.8;"/>
     </g>
     <g id="line2d_18">
      <g>
       <use style="stroke:#000000;stroke-width:0.8;" x="61.688125" xlink:href="#m7bb8e7aab7" y="131.331206"/>
      </g>
     </g>
     <g id="text_10">
      <!-- 1.0 -->
      <g transform="translate(27.652813 137.789878)scale(0.17 -0.17)">
       <use xlink:href="#DejaVuSans-31"/>
       <use x="63.623047" xlink:href="#DejaVuSans-2e"/>
       <use x="95.410156" xlink:href="#DejaVuSans-30"/>
      </g>
     </g>
    </g>
    <g id="ytick_4">
     <g id="line2d_19">
      <path clip-path="url(#p5041933477)" d="M 61.688125 64.63881 
L 418.808125 64.63881 
" style="fill:none;stroke:#b0b0b0;stroke-linecap:square;stroke-width:0.8;"/>
     </g>
     <g id="line2d_20">
      <g>
       <use style="stroke:#000000;stroke-width:0.8;" x="61.688125" xlink:href="#m7bb8e7aab7" y="64.63881"/>
      </g>
     </g>
     <g id="text_11">
      <!-- 1.5 -->
      <g transform="translate(27.652813 71.097482)scale(0.17 -0.17)">
       <use xlink:href="#DejaVuSans-31"/>
       <use x="63.623047" xlink:href="#DejaVuSans-2e"/>
       <use x="95.410156" xlink:href="#DejaVuSans-35"/>
      </g>
     </g>
    </g>
    <g id="text_12">
     <!-- Active power (pu) -->
     <defs>
      <path d="M 34.1875 63.1875 
L 20.796875 26.90625 
L 47.609375 26.90625 
z
M 28.609375 72.90625 
L 39.796875 72.90625 
L 67.578125 0 
L 57.328125 0 
L 50.6875 18.703125 
L 17.828125 18.703125 
L 11.1875 0 
L 0.78125 0 
z
" id="DejaVuSans-41"/>
      <path d="M 48.78125 52.59375 
L 48.78125 44.1875 
Q 44.96875 46.296875 41.140625 47.34375 
Q 37.3125 48.390625 33.40625 48.390625 
Q 24.65625 48.390625 19.8125 42.84375 
Q 14.984375 37.3125 14.984375 27.296875 
Q 14.984375 17.28125 19.8125 11.734375 
Q 24.65625 6.203125 33.40625 6.203125 
Q 37.3125 6.203125 41.140625 7.25 
Q 44.96875 8.296875 48.78125 10.40625 
L 48.78125 2.09375 
Q 45.015625 0.34375 40.984375 -0.53125 
Q 36.96875 -1.421875 32.421875 -1.421875 
Q 20.0625 -1.421875 12.78125 6.34375 
Q 5.515625 14.109375 5.515625 27.296875 
Q 5.515625 40.671875 12.859375 48.328125 
Q 20.21875 56 33.015625 56 
Q 37.15625 56 41.109375 55.140625 
Q 45.0625 54.296875 48.78125 52.59375 
z
" id="DejaVuSans-63"/>
      <path d="M 2.984375 54.6875 
L 12.5 54.6875 
L 29.59375 8.796875 
L 46.6875 54.6875 
L 56.203125 54.6875 
L 35.6875 0 
L 23.484375 0 
z
" id="DejaVuSans-76"/>
      <path d="M 18.109375 8.203125 
L 18.109375 -20.796875 
L 9.078125 -20.796875 
L 9.078125 54.6875 
L 18.109375 54.6875 
L 18.109375 46.390625 
Q 20.953125 51.265625 25.265625 53.625 
Q 29.59375 56 35.59375 56 
Q 45.5625 56 51.78125 48.09375 
Q 58.015625 40.1875 58.015625 27.296875 
Q 58.015625 14.40625 51.78125 6.484375 
Q 45.5625 -1.421875 35.59375 -1.421875 
Q 29.59375 -1.421875 25.265625 0.953125 
Q 20.953125 3.328125 18.109375 8.203125 
z
M 48.6875 27.296875 
Q 48.6875 37.203125 44.609375 42.84375 
Q 40.53125 48.484375 33.40625 48.484375 
Q 26.265625 48.484375 22.1875 42.84375 
Q 18.109375 37.203125 18.109375 27.296875 
Q 18.109375 17.390625 22.1875 11.75 
Q 26.265625 6.109375 33.40625 6.109375 
Q 40.53125 6.109375 44.609375 11.75 
Q 48.6875 17.390625 48.6875 27.296875 
z
" id="DejaVuSans-70"/>
      <path d="M 4.203125 54.6875 
L 13.1875 54.6875 
L 24.421875 12.015625 
L 35.59375 54.6875 
L 46.1875 54.6875 
L 57.421875 12.015625 
L 68.609375 54.6875 
L 77.59375 54.6875 
L 63.28125 0 
L 52.6875 0 
L 40.921875 44.828125 
L 29.109375 0 
L 18.5 0 
z
" id="DejaVuSans-77"/>
      <path d="M 31 75.875 
Q 24.46875 64.65625 21.28125 53.65625 
Q 18.109375 42.671875 18.109375 31.390625 
Q 18.109375 20.125 21.3125 9.0625 
Q 24.515625 -2 31 -13.1875 
L 23.1875 -13.1875 
Q 15.875 -1.703125 12.234375 9.375 
Q 8.59375 20.453125 8.59375 31.390625 
Q 8.59375 42.28125 12.203125 53.3125 
Q 15.828125 64.359375 23.1875 75.875 
z
" id="DejaVuSans-28"/>
      <path d="M 8.015625 75.875 
L 15.828125 75.875 
Q 23.140625 64.359375 26.78125 53.3125 
Q 30.421875 42.28125 30.421875 31.390625 
Q 30.421875 20.453125 26.78125 9.375 
Q 23.140625 -1.703125 15.828125 -13.1875 
L 8.015625 -13.1875 
Q 14.5 -2 17.703125 9.0625 
Q 20.90625 20.125 20.90625 31.390625 
Q 20.90625 42.671875 17.703125 53.65625 
Q 14.5 64.65625 8.015625 75.875 
z
" id="DejaVuSans-29"/>
     </defs>
     <g transform="translate(20.117344 219.289125)rotate(-90)scale(0.17 -0.17)">
      <use xlink:href="#DejaVuSans-41"/>
      <use x="68.392578" xlink:href="#DejaVuSans-63"/>
      <use x="123.373047" xlink:href="#DejaVuSans-74"/>
      <use x="162.582031" xlink:href="#DejaVuSans-69"/>
      <use x="190.365234" xlink:href="#DejaVuSans-76"/>
      <use x="249.544922" xlink:href="#DejaVuSans-65"/>
      <use x="311.068359" xlink:href="#DejaVuSans-20"/>
      <use x="342.855469" xlink:href="#DejaVuSans-70"/>
      <use x="406.332031" xlink:href="#DejaVuSans-6f"/>
      <use x="467.513672" xlink:href="#DejaVuSans-77"/>
      <use x="549.300781" xlink:href="#DejaVuSans-65"/>
      <use x="610.824219" xlink:href="#DejaVuSans-72"/>
      <use x="651.9375" xlink:href="#DejaVuSans-20"/>
      <use x="683.724609" xlink:href="#DejaVuSans-28"/>
      <use x="722.738281" xlink:href="#DejaVuSans-70"/>
      <use x="786.214844" xlink:href="#DejaVuSans-75"/>
      <use x="849.59375" xlink:href="#DejaVuSans-29"/>
     </g>
    </g>
   </g>
   <g id="line2d_21">
    <path clip-path="url(#p5041933477)" d="M 77.920852 264.716 
L 78.571463 198.023603 
L 85.728176 198.023603 
L 86.378786 164.037158 
L 87.029397 58.876587 
L 87.680007 22.796 
L 88.330617 29.531932 
L 88.981228 101.493028 
L 89.631838 125.302214 
L 90.282448 198.023603 
L 118.258692 198.023603 
L 119.559912 156.487579 
L 120.210523 142.575545 
L 120.861133 132.691731 
L 121.511743 126.756108 
L 122.162353 123.781627 
L 122.812964 122.714549 
L 123.463574 122.607841 
L 124.114184 122.70121 
L 124.764795 122.461118 
L 125.415405 121.554101 
L 126.066015 119.846776 
L 126.716626 117.432511 
L 127.367236 114.511384 
L 128.668457 106.414927 
L 129.319067 103.427108 
L 129.969677 101.399659 
L 130.620288 100.239211 
L 131.270898 99.879072 
L 131.921508 100.319242 
L 132.572118 101.573059 
L 133.222729 103.653862 
L 133.873339 106.508296 
L 134.523949 110.123024 
L 135.82517 119.406606 
L 137.126391 131.117791 
L 139.078222 152.08588 
L 142.981883 196.64974 
L 143.632494 198.023603 
L 150.789207 198.023603 
L 151.439817 196.422986 
L 152.090428 186.659219 
L 152.741038 182.310875 
L 153.391648 178.84287 
L 154.042259 176.762067 
L 154.692869 175.921743 
L 155.343479 175.988435 
L 155.99409 176.575328 
L 157.29531 178.2293 
L 157.945921 178.909562 
L 158.596531 179.363071 
L 159.247141 179.496455 
L 159.897752 179.429763 
L 161.198972 178.829531 
L 162.500193 178.242638 
L 163.801413 178.042561 
L 169.006296 178.149269 
L 172.259347 178.015884 
L 175.512399 177.989207 
L 180.717281 177.975869 
L 202.838032 178.522746 
L 209.344135 178.816193 
L 224.958783 179.563148 
L 239.27221 180.33678 
L 247.730144 180.776949 
L 251.633805 180.990365 
L 265.947232 181.763997 
L 277.007608 182.324213 
L 286.766762 182.817737 
L 362.888169 185.832233 
L 371.346103 186.085664 
L 373.297934 186.139018 
L 381.755868 186.419126 
L 383.057088 186.432465 
L 390.213802 186.64588 
L 392.816243 186.699234 
L 399.972956 186.885973 
L 401.924787 186.939327 
L 401.924787 186.939327 
" style="fill:none;stroke:#1f77b4;stroke-linecap:square;stroke-width:0.5;"/>
   </g>
   <g id="line2d_22">
    <path clip-path="url(#p5041933477)" d="M 78.571463 198.023603 
L 85.728176 198.023603 
L 86.378786 140.614788 
L 87.029397 51.793854 
L 87.680007 29.651978 
L 88.330617 44.28429 
L 88.981228 119.433283 
L 89.631838 155.487193 
L 90.282448 198.023603 
L 111.752588 198.023603 
L 112.403199 188.539944 
L 113.053809 187.059373 
L 114.35503 192.114657 
L 115.00564 192.741565 
L 115.65625 190.727455 
L 116.306861 186.325757 
L 116.957471 179.909948 
L 117.608081 167.171701 
L 118.909302 135.626197 
L 119.559912 124.942075 
L 120.210523 117.872681 
L 120.861133 113.617706 
L 121.511743 111.29681 
L 122.162353 110.136363 
L 123.463574 108.882546 
L 124.114184 107.908837 
L 124.764795 105.988096 
L 126.066015 97.584854 
L 126.716626 94.903819 
L 127.367236 93.676679 
L 128.017846 93.676679 
L 128.668457 94.743758 
L 129.319067 96.851237 
L 129.969677 99.999118 
L 130.620288 104.160724 
L 131.270898 109.229346 
L 132.572118 121.940917 
L 133.873339 137.61363 
L 135.82517 165.277636 
L 137.777001 195.169169 
L 138.427611 198.023603 
L 155.99409 198.023603 
L 156.6447 192.488134 
L 157.29531 188.726683 
L 157.945921 186.29908 
L 158.596531 184.698462 
L 159.247141 183.898154 
L 159.897752 183.698076 
L 160.548362 183.871477 
L 163.150803 185.218663 
L 163.801413 185.285355 
L 164.452024 185.232002 
L 168.355686 184.004861 
L 170.307517 183.818123 
L 183.970333 183.364614 
L 198.28376 183.75143 
L 208.042915 184.244954 
L 214.549018 184.618431 
L 236.669768 185.872249 
L 247.079533 186.405788 
L 254.886857 186.792604 
L 259.441129 186.979342 
L 264.646012 187.192758 
L 291.321034 188.179805 
L 303.68263 188.539944 
L 311.489954 188.75336 
L 369.394272 189.833777 
L 379.804037 189.940485 
L 391.515022 190.07387 
L 402.575398 190.167239 
L 402.575398 190.167239 
" style="fill:none;stroke:#ff7f0e;stroke-linecap:square;stroke-width:0.5;"/>
   </g>
   <g id="line2d_23">
    <path clip-path="url(#p5041933477)" d="M 78.571463 198.023603 
L 85.728176 198.023603 
L 86.378786 132.611701 
L 87.029397 48.485911 
L 87.680007 31.892843 
L 88.330617 53.714595 
L 88.981228 134.319026 
L 89.631838 198.023603 
L 110.451368 198.023603 
L 111.101978 197.036556 
L 111.752588 179.763225 
L 112.403199 177.242252 
L 113.053809 178.949578 
L 113.704419 181.270473 
L 114.35503 181.403858 
L 115.00564 178.762839 
L 115.65625 173.827602 
L 116.306861 167.051654 
L 116.957471 157.141164 
L 118.258692 125.142152 
L 118.909302 113.430967 
L 119.559912 105.254479 
L 120.210523 99.945765 
L 120.861133 96.784545 
L 121.511743 95.063881 
L 122.162353 94.19688 
L 122.812964 93.690018 
L 123.463574 92.689632 
L 124.764795 85.126714 
L 125.415405 82.992557 
L 126.066015 82.579064 
L 126.716626 83.619466 
L 127.367236 85.900346 
L 128.017846 89.395027 
L 128.668457 94.076834 
L 129.319067 99.879072 
L 130.620288 114.471369 
L 131.921508 132.504993 
L 133.873339 164.54402 
L 135.82517 198.023603 
L 157.29531 198.023603 
L 157.945921 195.062461 
L 159.897752 183.938169 
L 160.548362 181.617274 
L 161.198972 180.323441 
L 161.849582 179.816579 
L 162.500193 179.843256 
L 163.150803 180.216733 
L 164.452024 181.243796 
L 165.102634 181.630612 
L 165.753244 181.817351 
L 166.403855 181.804012 
L 167.705075 181.323827 
L 169.656906 180.443487 
L 170.958127 180.190056 
L 173.560568 180.190056 
L 183.970333 180.283426 
L 188.524605 180.576872 
L 232.766106 185.005247 
L 252.935026 186.552511 
L 276.356997 187.886359 
L 308.236903 189.100161 
L 310.839344 189.153514 
L 365.49061 190.167239 
L 375.900375 190.273947 
L 387.611361 190.407332 
L 401.274177 190.514039 
L 402.575398 190.514039 
L 402.575398 190.514039 
" style="fill:none;stroke:#2ca02c;stroke-linecap:square;stroke-width:0.5;"/>
   </g>
   <g id="line2d_24">
    <path clip-path="url(#p5041933477)" d="M 78.571463 198.023603 
L 85.728176 198.023603 
L 86.378786 136.426506 
L 87.029397 61.317528 
L 87.680007 49.913129 
L 88.330617 114.28463 
L 88.981228 147.457428 
L 89.631838 198.023603 
L 110.451368 198.023603 
L 111.752588 173.987663 
L 112.403199 171.866845 
L 113.053809 172.573785 
L 113.704419 172.840554 
L 114.35503 170.813105 
L 115.00564 166.424746 
L 115.65625 160.222353 
L 116.306861 152.632758 
L 116.957471 142.428821 
L 118.258692 115.018246 
L 118.909302 105.081079 
L 119.559912 98.118393 
L 120.210523 93.516618 
L 120.861133 90.875599 
L 121.511743 89.608443 
L 122.162353 89.28832 
L 122.812964 87.540979 
L 123.463574 84.833267 
L 124.114184 83.152619 
L 124.764795 83.205973 
L 125.415405 84.926637 
L 126.066015 88.047841 
L 126.716626 92.462878 
L 127.367236 98.158408 
L 128.668457 113.030813 
L 129.969677 131.838069 
L 131.270898 153.75319 
L 133.222729 190.620747 
L 133.873339 198.023603 
L 157.945921 198.023603 
L 158.596531 197.543418 
L 160.548362 184.591755 
L 161.198972 181.723981 
L 161.849582 179.856594 
L 162.500193 178.856208 
L 163.150803 178.416039 
L 163.801413 178.416039 
L 165.102634 179.002932 
L 165.753244 179.309717 
L 166.403855 179.483117 
L 167.054465 179.509794 
L 168.355686 179.056286 
L 170.307517 178.215961 
L 171.608737 177.935853 
L 173.560568 177.909176 
L 180.066671 178.269315 
L 180.717281 178.882885 
L 181.367892 178.189284 
L 182.018502 178.562762 
L 183.970333 178.816193 
L 189.175216 179.669856 
L 206.091084 182.684352 
L 217.151459 184.405016 
L 221.705731 185.005247 
L 222.356341 185.352048 
L 223.006952 185.045263 
L 223.657562 185.285355 
L 240.57343 187.059373 
L 241.22404 186.64588 
L 241.874651 187.126066 
L 242.525261 187.072712 
L 249.031364 187.632928 
L 258.139909 188.273175 
L 270.501504 188.92676 
L 291.321034 189.687054 
L 295.875307 189.793761 
L 303.03202 189.9805 
L 327.755212 190.380655 
L 337.514367 190.487362 
L 347.273521 190.580732 
L 368.743662 190.68744 
L 375.900375 190.727455 
L 402.575398 190.834163 
L 402.575398 190.834163 
" style="fill:none;stroke:#d62728;stroke-linecap:square;stroke-width:0.5;"/>
   </g>
   <g id="line2d_25">
    <path clip-path="url(#p5041933477)" d="M 78.571463 198.023603 
L 85.728176 198.023603 
L 86.378786 172.200307 
L 87.029397 106.521635 
L 87.680007 104.067355 
L 88.330617 186.405788 
L 88.981228 198.023603 
L 109.150147 198.023603 
L 109.800758 190.847501 
L 110.451368 170.399613 
L 111.101978 166.21133 
L 111.752588 166.411407 
L 112.403199 167.478486 
L 113.053809 166.224668 
L 113.704419 162.183109 
L 114.35503 156.087424 
L 115.65625 140.201295 
L 118.909302 94.677065 
L 119.559912 87.607671 
L 120.210523 82.018848 
L 120.861133 78.150689 
L 121.511743 76.189933 
L 122.162353 76.229948 
L 122.812964 78.284074 
L 123.463574 82.338972 
L 124.114184 88.23458 
L 124.764795 95.904205 
L 126.066015 115.911924 
L 127.367236 141.148327 
L 128.668457 170.586351 
L 129.319067 186.592526 
L 129.969677 198.023603 
L 159.897752 198.023603 
L 160.548362 195.916124 
L 161.198972 191.220979 
L 163.150803 171.21326 
L 163.801413 166.638161 
L 164.452024 163.49028 
L 165.102634 161.542862 
L 165.753244 160.59583 
L 166.403855 160.435768 
L 167.054465 160.875938 
L 168.355686 162.569925 
L 169.006296 163.49028 
L 169.656906 164.063835 
L 170.307517 164.410635 
L 171.608737 164.570697 
L 172.909958 164.664066 
L 174.211178 165.117575 
L 175.512399 165.984576 
L 179.416061 168.945718 
L 188.524605 174.814649 
L 193.078877 177.335622 
L 199.584981 180.296764 
L 203.488642 181.790674 
L 209.994746 183.8448 
L 219.10329 185.992295 
L 223.006952 186.699234 
L 229.513055 187.672943 
L 238.621599 188.686668 
L 249.031364 189.433623 
L 257.489298 189.847115 
L 271.802725 190.353978 
L 274.405166 190.380655 
L 277.007608 190.434008 
L 282.21249 190.554055 
L 291.321034 190.660763 
L 300.429579 190.754132 
L 304.983851 190.76747 
L 312.140564 190.807486 
L 364.189389 190.914194 
L 366.791831 190.914194 
L 399.322346 190.914194 
L 399.972956 191.03424 
L 400.623567 190.86084 
L 401.924787 190.940871 
L 402.575398 190.940871 
L 402.575398 190.940871 
" style="fill:none;stroke:#9467bd;stroke-linecap:square;stroke-width:0.5;"/>
   </g>
   <g id="line2d_26">
    <path clip-path="url(#p5041933477)" d="M 78.571463 190.914194 
L 402.575398 190.914194 
L 402.575398 190.914194 
" style="fill:none;stroke:#8c564b;stroke-dasharray:7.4,3.2;stroke-dashoffset:0;stroke-width:2;"/>
   </g>
   <g id="patch_3">
    <path d="M 61.688125 276.812 
L 61.688125 10.7 
" style="fill:none;stroke:#000000;stroke-linecap:square;stroke-linejoin:miter;stroke-width:0.8;"/>
   </g>
   <g id="patch_4">
    <path d="M 418.808125 276.812 
L 418.808125 10.7 
" style="fill:none;stroke:#000000;stroke-linecap:square;stroke-linejoin:miter;stroke-width:0.8;"/>
   </g>
   <g id="patch_5">
    <path d="M 61.688125 276.812 
L 418.808125 276.812 
" style="fill:none;stroke:#000000;stroke-linecap:square;stroke-linejoin:miter;stroke-width:0.8;"/>
   </g>
   <g id="patch_6">
    <path d="M 61.688125 10.7 
L 418.808125 10.7 
" style="fill:none;stroke:#000000;stroke-linecap:square;stroke-linejoin:miter;stroke-width:0.8;"/>
   </g>
   <g id="legend_1">
    <g id="patch_7">
     <path d="M 209.046719 174.016875 
L 406.908125 174.016875 
Q 410.308125 174.016875 410.308125 170.616875 
L 410.308125 22.6 
Q 410.308125 19.2 406.908125 19.2 
L 209.046719 19.2 
Q 205.646719 19.2 205.646719 22.6 
L 205.646719 170.616875 
Q 205.646719 174.016875 209.046719 174.016875 
z
" style="fill:#ffffff;opacity:0.8;stroke:#cccccc;stroke-linejoin:miter;"/>
    </g>
    <g id="line2d_27">
     <path d="M 212.446719 32.967344 
L 246.446719 32.967344 
" style="fill:none;stroke:#1f77b4;stroke-linecap:square;stroke-width:0.5;"/>
    </g>
    <g id="line2d_28"/>
    <g id="text_13">
     <!-- lamda=50 -->
     <defs>
      <path d="M 9.421875 75.984375 
L 18.40625 75.984375 
L 18.40625 0 
L 9.421875 0 
z
" id="DejaVuSans-6c"/>
      <path d="M 45.40625 46.390625 
L 45.40625 75.984375 
L 54.390625 75.984375 
L 54.390625 0 
L 45.40625 0 
L 45.40625 8.203125 
Q 42.578125 3.328125 38.25 0.953125 
Q 33.9375 -1.421875 27.875 -1.421875 
Q 17.96875 -1.421875 11.734375 6.484375 
Q 5.515625 14.40625 5.515625 27.296875 
Q 5.515625 40.1875 11.734375 48.09375 
Q 17.96875 56 27.875 56 
Q 33.9375 56 38.25 53.625 
Q 42.578125 51.265625 45.40625 46.390625 
z
M 14.796875 27.296875 
Q 14.796875 17.390625 18.875 11.75 
Q 22.953125 6.109375 30.078125 6.109375 
Q 37.203125 6.109375 41.296875 11.75 
Q 45.40625 17.390625 45.40625 27.296875 
Q 45.40625 37.203125 41.296875 42.84375 
Q 37.203125 48.484375 30.078125 48.484375 
Q 22.953125 48.484375 18.875 42.84375 
Q 14.796875 37.203125 14.796875 27.296875 
z
" id="DejaVuSans-64"/>
      <path d="M 10.59375 45.40625 
L 73.1875 45.40625 
L 73.1875 37.203125 
L 10.59375 37.203125 
z
M 10.59375 25.484375 
L 73.1875 25.484375 
L 73.1875 17.1875 
L 10.59375 17.1875 
z
" id="DejaVuSans-3d"/>
     </defs>
     <g transform="translate(260.046719 38.917344)scale(0.17 -0.17)">
      <use xlink:href="#DejaVuSans-6c"/>
      <use x="27.783203" xlink:href="#DejaVuSans-61"/>
      <use x="89.0625" xlink:href="#DejaVuSans-6d"/>
      <use x="186.474609" xlink:href="#DejaVuSans-64"/>
      <use x="249.951172" xlink:href="#DejaVuSans-61"/>
      <use x="311.230469" xlink:href="#DejaVuSans-3d"/>
      <use x="395.019531" xlink:href="#DejaVuSans-35"/>
      <use x="458.642578" xlink:href="#DejaVuSans-30"/>
     </g>
    </g>
    <g id="line2d_29">
     <path d="M 212.446719 57.920156 
L 246.446719 57.920156 
" style="fill:none;stroke:#ff7f0e;stroke-linecap:square;stroke-width:0.5;"/>
    </g>
    <g id="line2d_30"/>
    <g id="text_14">
     <!-- lamda=30 -->
     <g transform="translate(260.046719 63.870156)scale(0.17 -0.17)">
      <use xlink:href="#DejaVuSans-6c"/>
      <use x="27.783203" xlink:href="#DejaVuSans-61"/>
      <use x="89.0625" xlink:href="#DejaVuSans-6d"/>
      <use x="186.474609" xlink:href="#DejaVuSans-64"/>
      <use x="249.951172" xlink:href="#DejaVuSans-61"/>
      <use x="311.230469" xlink:href="#DejaVuSans-3d"/>
      <use x="395.019531" xlink:href="#DejaVuSans-33"/>
      <use x="458.642578" xlink:href="#DejaVuSans-30"/>
     </g>
    </g>
    <g id="line2d_31">
     <path d="M 212.446719 82.872969 
L 246.446719 82.872969 
" style="fill:none;stroke:#2ca02c;stroke-linecap:square;stroke-width:0.5;"/>
    </g>
    <g id="line2d_32"/>
    <g id="text_15">
     <!-- lamda=25 -->
     <g transform="translate(260.046719 88.822969)scale(0.17 -0.17)">
      <use xlink:href="#DejaVuSans-6c"/>
      <use x="27.783203" xlink:href="#DejaVuSans-61"/>
      <use x="89.0625" xlink:href="#DejaVuSans-6d"/>
      <use x="186.474609" xlink:href="#DejaVuSans-64"/>
      <use x="249.951172" xlink:href="#DejaVuSans-61"/>
      <use x="311.230469" xlink:href="#DejaVuSans-3d"/>
      <use x="395.019531" xlink:href="#DejaVuSans-32"/>
      <use x="458.642578" xlink:href="#DejaVuSans-35"/>
     </g>
    </g>
    <g id="line2d_33">
     <path d="M 212.446719 107.825781 
L 246.446719 107.825781 
" style="fill:none;stroke:#d62728;stroke-linecap:square;stroke-width:0.5;"/>
    </g>
    <g id="line2d_34"/>
    <g id="text_16">
     <!-- lamda=20 -->
     <g transform="translate(260.046719 113.775781)scale(0.17 -0.17)">
      <use xlink:href="#DejaVuSans-6c"/>
      <use x="27.783203" xlink:href="#DejaVuSans-61"/>
      <use x="89.0625" xlink:href="#DejaVuSans-6d"/>
      <use x="186.474609" xlink:href="#DejaVuSans-64"/>
      <use x="249.951172" xlink:href="#DejaVuSans-61"/>
      <use x="311.230469" xlink:href="#DejaVuSans-3d"/>
      <use x="395.019531" xlink:href="#DejaVuSans-32"/>
      <use x="458.642578" xlink:href="#DejaVuSans-30"/>
     </g>
    </g>
    <g id="line2d_35">
     <path d="M 212.446719 132.778594 
L 246.446719 132.778594 
" style="fill:none;stroke:#9467bd;stroke-linecap:square;stroke-width:0.5;"/>
    </g>
    <g id="line2d_36"/>
    <g id="text_17">
     <!-- lamda=15 -->
     <g transform="translate(260.046719 138.728594)scale(0.17 -0.17)">
      <use xlink:href="#DejaVuSans-6c"/>
      <use x="27.783203" xlink:href="#DejaVuSans-61"/>
      <use x="89.0625" xlink:href="#DejaVuSans-6d"/>
      <use x="186.474609" xlink:href="#DejaVuSans-64"/>
      <use x="249.951172" xlink:href="#DejaVuSans-61"/>
      <use x="311.230469" xlink:href="#DejaVuSans-3d"/>
      <use x="395.019531" xlink:href="#DejaVuSans-31"/>
      <use x="458.642578" xlink:href="#DejaVuSans-35"/>
     </g>
    </g>
    <g id="line2d_37">
     <path d="M 212.446719 157.731406 
L 246.446719 157.731406 
" style="fill:none;stroke:#8c564b;stroke-dasharray:7.4,3.2;stroke-dashoffset:0;stroke-width:2;"/>
    </g>
    <g id="line2d_38"/>
    <g id="text_18">
     <!-- Consensus value -->
     <defs>
      <path d="M 64.40625 67.28125 
L 64.40625 56.890625 
Q 59.421875 61.53125 53.78125 63.8125 
Q 48.140625 66.109375 41.796875 66.109375 
Q 29.296875 66.109375 22.65625 58.46875 
Q 16.015625 50.828125 16.015625 36.375 
Q 16.015625 21.96875 22.65625 14.328125 
Q 29.296875 6.6875 41.796875 6.6875 
Q 48.140625 6.6875 53.78125 8.984375 
Q 59.421875 11.28125 64.40625 15.921875 
L 64.40625 5.609375 
Q 59.234375 2.09375 53.4375 0.328125 
Q 47.65625 -1.421875 41.21875 -1.421875 
Q 24.65625 -1.421875 15.125 8.703125 
Q 5.609375 18.84375 5.609375 36.375 
Q 5.609375 53.953125 15.125 64.078125 
Q 24.65625 74.21875 41.21875 74.21875 
Q 47.75 74.21875 53.53125 72.484375 
Q 59.328125 70.75 64.40625 67.28125 
z
" id="DejaVuSans-43"/>
     </defs>
     <g transform="translate(260.046719 163.681406)scale(0.17 -0.17)">
      <use xlink:href="#DejaVuSans-43"/>
      <use x="69.824219" xlink:href="#DejaVuSans-6f"/>
      <use x="131.005859" xlink:href="#DejaVuSans-6e"/>
      <use x="194.384766" xlink:href="#DejaVuSans-73"/>
      <use x="246.484375" xlink:href="#DejaVuSans-65"/>
      <use x="308.007812" xlink:href="#DejaVuSans-6e"/>
      <use x="371.386719" xlink:href="#DejaVuSans-73"/>
      <use x="423.486328" xlink:href="#DejaVuSans-75"/>
      <use x="486.865234" xlink:href="#DejaVuSans-73"/>
      <use x="538.964844" xlink:href="#DejaVuSans-20"/>
      <use x="570.751953" xlink:href="#DejaVuSans-76"/>
      <use x="629.931641" xlink:href="#DejaVuSans-61"/>
      <use x="691.210938" xlink:href="#DejaVuSans-6c"/>
      <use x="718.994141" xlink:href="#DejaVuSans-75"/>
      <use x="782.373047" xlink:href="#DejaVuSans-65"/>
     </g>
    </g>
   </g>
  </g>
 </g>
 <defs>
  <clipPath id="p5041933477">
   <rect height="266.112" width="357.12" x="61.688125" y="10.7"/>
  </clipPath>
 </defs>
</svg>
