<?xml version="1.0" encoding="utf-8" standalone="no"?>
<!DOCTYPE svg PUBLIC "-//W3C//DTD SVG 1.1//EN"
  "http://www.w3.org/Graphics/SVG/1.1/DTD/svg11.dtd">
<!-- Created with matplotlib (http://matplotlib.org/) -->
<svg height="327pt" version="1.1" viewBox="0 0 427 327" width="427pt" xmlns="http://www.w3.org/2000/svg" xmlns:xlink="http://www.w3.org/1999/xlink">
 <defs>
  <style type="text/css">
*{stroke-linecap:butt;stroke-linejoin:round;}
  </style>
 </defs>
 <g id="figure_1">
  <g id="patch_1">
   <path d="M 0 327.917625 
L 427.534531 327.917625 
L 427.534531 0 
L 0 0 
z
" style="fill:#ffffff;"/>
  </g>
  <g id="axes_1">
   <g id="patch_2">
    <path d="M 59.714531 276.812 
L 416.834531 276.812 
L 416.834531 10.7 
L 59.714531 10.7 
z
" style="fill:#ffffff;"/>
   </g>
   <g id="matplotlib.axis_1">
    <g id="xtick_1">
     <g id="line2d_1">
      <path clip-path="url(#pf400aac07b)" d="M 75.947259 276.812 
L 75.947259 10.7 
" style="fill:none;stroke:#b0b0b0;stroke-linecap:square;stroke-width:0.8;"/>
     </g>
     <g id="line2d_2">
      <defs>
       <path d="M 0 0 
L 0 3.5 
" id="m82ea9135e3" style="stroke:#000000;stroke-width:0.8;"/>
      </defs>
      <g>
       <use style="stroke:#000000;stroke-width:0.8;" x="75.947259" xlink:href="#m82ea9135e3" y="276.812"/>
      </g>
     </g>
     <g id="text_1">
      <!-- 0 -->
      <defs>
       <path d="M 31.78125 66.40625 
Q 24.171875 66.40625 20.328125 58.90625 
Q 16.5 51.421875 16.5 36.375 
Q 16.5 21.390625 20.328125 13.890625 
Q 24.171875 6.390625 31.78125 6.390625 
Q 39.453125 6.390625 43.28125 13.890625 
Q 47.125 21.390625 47.125 36.375 
Q 47.125 51.421875 43.28125 58.90625 
Q 39.453125 66.40625 31.78125 66.40625 
z
M 31.78125 74.21875 
Q 44.046875 74.21875 50.515625 64.515625 
Q 56.984375 54.828125 56.984375 36.375 
Q 56.984375 17.96875 50.515625 8.265625 
Q 44.046875 -1.421875 31.78125 -1.421875 
Q 19.53125 -1.421875 13.0625 8.265625 
Q 6.59375 17.96875 6.59375 36.375 
Q 6.59375 54.828125 13.0625 64.515625 
Q 19.53125 74.21875 31.78125 74.21875 
z
" id="DejaVuSans-30"/>
      </defs>
      <g transform="translate(70.539134 296.729344)scale(0.17 -0.17)">
       <use xlink:href="#DejaVuSans-30"/>
      </g>
     </g>
    </g>
    <g id="xtick_2">
     <g id="line2d_3">
      <path clip-path="url(#pf400aac07b)" d="M 140.878168 276.812 
L 140.878168 10.7 
" style="fill:none;stroke:#b0b0b0;stroke-linecap:square;stroke-width:0.8;"/>
     </g>
     <g id="line2d_4">
      <g>
       <use style="stroke:#000000;stroke-width:0.8;" x="140.878168" xlink:href="#m82ea9135e3" y="276.812"/>
      </g>
     </g>
     <g id="text_2">
      <!-- 100 -->
      <defs>
       <path d="M 12.40625 8.296875 
L 28.515625 8.296875 
L 28.515625 63.921875 
L 10.984375 60.40625 
L 10.984375 69.390625 
L 28.421875 72.90625 
L 38.28125 72.90625 
L 38.28125 8.296875 
L 54.390625 8.296875 
L 54.390625 0 
L 12.40625 0 
z
" id="DejaVuSans-31"/>
      </defs>
      <g transform="translate(124.653793 296.729344)scale(0.17 -0.17)">
       <use xlink:href="#DejaVuSans-31"/>
       <use x="63.623047" xlink:href="#DejaVuSans-30"/>
       <use x="127.246094" xlink:href="#DejaVuSans-30"/>
      </g>
     </g>
    </g>
    <g id="xtick_3">
     <g id="line2d_5">
      <path clip-path="url(#pf400aac07b)" d="M 205.809077 276.812 
L 205.809077 10.7 
" style="fill:none;stroke:#b0b0b0;stroke-linecap:square;stroke-width:0.8;"/>
     </g>
     <g id="line2d_6">
      <g>
       <use style="stroke:#000000;stroke-width:0.8;" x="205.809077" xlink:href="#m82ea9135e3" y="276.812"/>
      </g>
     </g>
     <g id="text_3">
      <!-- 200 -->
      <defs>
       <path d="M 19.1875 8.296875 
L 53.609375 8.296875 
L 53.609375 0 
L 7.328125 0 
L 7.328125 8.296875 
Q 12.9375 14.109375 22.625 23.890625 
Q 32.328125 33.6875 34.8125 36.53125 
Q 39.546875 41.84375 41.421875 45.53125 
Q 43.3125 49.21875 43.3125 52.78125 
Q 43.3125 58.59375 39.234375 62.25 
Q 35.15625 65.921875 28.609375 65.921875 
Q 23.96875 65.921875 18.8125 64.3125 
Q 13.671875 62.703125 7.8125 59.421875 
L 7.8125 69.390625 
Q 13.765625 71.78125 18.9375 73 
Q 24.125 74.21875 28.421875 74.21875 
Q 39.75 74.21875 46.484375 68.546875 
Q 53.21875 62.890625 53.21875 53.421875 
Q 53.21875 48.921875 51.53125 44.890625 
Q 49.859375 40.875 45.40625 35.40625 
Q 44.1875 33.984375 37.640625 27.21875 
Q 31.109375 20.453125 19.1875 8.296875 
z
" id="DejaVuSans-32"/>
      </defs>
      <g transform="translate(189.584702 296.729344)scale(0.17 -0.17)">
       <use xlink:href="#DejaVuSans-32"/>
       <use x="63.623047" xlink:href="#DejaVuSans-30"/>
       <use x="127.246094" xlink:href="#DejaVuSans-30"/>
      </g>
     </g>
    </g>
    <g id="xtick_4">
     <g id="line2d_7">
      <path clip-path="url(#pf400aac07b)" d="M 270.739986 276.812 
L 270.739986 10.7 
" style="fill:none;stroke:#b0b0b0;stroke-linecap:square;stroke-width:0.8;"/>
     </g>
     <g id="line2d_8">
      <g>
       <use style="stroke:#000000;stroke-width:0.8;" x="270.739986" xlink:href="#m82ea9135e3" y="276.812"/>
      </g>
     </g>
     <g id="text_4">
      <!-- 300 -->
      <defs>
       <path d="M 40.578125 39.3125 
Q 47.65625 37.796875 51.625 33 
Q 55.609375 28.21875 55.609375 21.1875 
Q 55.609375 10.40625 48.1875 4.484375 
Q 40.765625 -1.421875 27.09375 -1.421875 
Q 22.515625 -1.421875 17.65625 -0.515625 
Q 12.796875 0.390625 7.625 2.203125 
L 7.625 11.71875 
Q 11.71875 9.328125 16.59375 8.109375 
Q 21.484375 6.890625 26.8125 6.890625 
Q 36.078125 6.890625 40.9375 10.546875 
Q 45.796875 14.203125 45.796875 21.1875 
Q 45.796875 27.640625 41.28125 31.265625 
Q 36.765625 34.90625 28.71875 34.90625 
L 20.21875 34.90625 
L 20.21875 43.015625 
L 29.109375 43.015625 
Q 36.375 43.015625 40.234375 45.921875 
Q 44.09375 48.828125 44.09375 54.296875 
Q 44.09375 59.90625 40.109375 62.90625 
Q 36.140625 65.921875 28.71875 65.921875 
Q 24.65625 65.921875 20.015625 65.03125 
Q 15.375 64.15625 9.8125 62.3125 
L 9.8125 71.09375 
Q 15.4375 72.65625 20.34375 73.4375 
Q 25.25 74.21875 29.59375 74.21875 
Q 40.828125 74.21875 47.359375 69.109375 
Q 53.90625 64.015625 53.90625 55.328125 
Q 53.90625 49.265625 50.4375 45.09375 
Q 46.96875 40.921875 40.578125 39.3125 
z
" id="DejaVuSans-33"/>
      </defs>
      <g transform="translate(254.515611 296.729344)scale(0.17 -0.17)">
       <use xlink:href="#DejaVuSans-33"/>
       <use x="63.623047" xlink:href="#DejaVuSans-30"/>
       <use x="127.246094" xlink:href="#DejaVuSans-30"/>
      </g>
     </g>
    </g>
    <g id="xtick_5">
     <g id="line2d_9">
      <path clip-path="url(#pf400aac07b)" d="M 335.670895 276.812 
L 335.670895 10.7 
" style="fill:none;stroke:#b0b0b0;stroke-linecap:square;stroke-width:0.8;"/>
     </g>
     <g id="line2d_10">
      <g>
       <use style="stroke:#000000;stroke-width:0.8;" x="335.670895" xlink:href="#m82ea9135e3" y="276.812"/>
      </g>
     </g>
     <g id="text_5">
      <!-- 400 -->
      <defs>
       <path d="M 37.796875 64.3125 
L 12.890625 25.390625 
L 37.796875 25.390625 
z
M 35.203125 72.90625 
L 47.609375 72.90625 
L 47.609375 25.390625 
L 58.015625 25.390625 
L 58.015625 17.1875 
L 47.609375 17.1875 
L 47.609375 0 
L 37.796875 0 
L 37.796875 17.1875 
L 4.890625 17.1875 
L 4.890625 26.703125 
z
" id="DejaVuSans-34"/>
      </defs>
      <g transform="translate(319.44652 296.729344)scale(0.17 -0.17)">
       <use xlink:href="#DejaVuSans-34"/>
       <use x="63.623047" xlink:href="#DejaVuSans-30"/>
       <use x="127.246094" xlink:href="#DejaVuSans-30"/>
      </g>
     </g>
    </g>
    <g id="xtick_6">
     <g id="line2d_11">
      <path clip-path="url(#pf400aac07b)" d="M 400.601804 276.812 
L 400.601804 10.7 
" style="fill:none;stroke:#b0b0b0;stroke-linecap:square;stroke-width:0.8;"/>
     </g>
     <g id="line2d_12">
      <g>
       <use style="stroke:#000000;stroke-width:0.8;" x="400.601804" xlink:href="#m82ea9135e3" y="276.812"/>
      </g>
     </g>
     <g id="text_6">
      <!-- 500 -->
      <defs>
       <path d="M 10.796875 72.90625 
L 49.515625 72.90625 
L 49.515625 64.59375 
L 19.828125 64.59375 
L 19.828125 46.734375 
Q 21.96875 47.46875 24.109375 47.828125 
Q 26.265625 48.1875 28.421875 48.1875 
Q 40.625 48.1875 47.75 41.5 
Q 54.890625 34.8125 54.890625 23.390625 
Q 54.890625 11.625 47.5625 5.09375 
Q 40.234375 -1.421875 26.90625 -1.421875 
Q 22.3125 -1.421875 17.546875 -0.640625 
Q 12.796875 0.140625 7.71875 1.703125 
L 7.71875 11.625 
Q 12.109375 9.234375 16.796875 8.0625 
Q 21.484375 6.890625 26.703125 6.890625 
Q 35.15625 6.890625 40.078125 11.328125 
Q 45.015625 15.765625 45.015625 23.390625 
Q 45.015625 31 40.078125 35.4375 
Q 35.15625 39.890625 26.703125 39.890625 
Q 22.75 39.890625 18.8125 39.015625 
Q 14.890625 38.140625 10.796875 36.28125 
z
" id="DejaVuSans-35"/>
      </defs>
      <g transform="translate(384.377429 296.729344)scale(0.17 -0.17)">
       <use xlink:href="#DejaVuSans-35"/>
       <use x="63.623047" xlink:href="#DejaVuSans-30"/>
       <use x="127.246094" xlink:href="#DejaVuSans-30"/>
      </g>
     </g>
    </g>
    <g id="text_7">
     <!-- Number of iterations -->
     <defs>
      <path d="M 9.8125 72.90625 
L 23.09375 72.90625 
L 55.421875 11.921875 
L 55.421875 72.90625 
L 64.984375 72.90625 
L 64.984375 0 
L 51.703125 0 
L 19.390625 60.984375 
L 19.390625 0 
L 9.8125 0 
z
" id="DejaVuSans-4e"/>
      <path d="M 8.5 21.578125 
L 8.5 54.6875 
L 17.484375 54.6875 
L 17.484375 21.921875 
Q 17.484375 14.15625 20.5 10.265625 
Q 23.53125 6.390625 29.59375 6.390625 
Q 36.859375 6.390625 41.078125 11.03125 
Q 45.3125 15.671875 45.3125 23.6875 
L 45.3125 54.6875 
L 54.296875 54.6875 
L 54.296875 0 
L 45.3125 0 
L 45.3125 8.40625 
Q 42.046875 3.421875 37.71875 1 
Q 33.40625 -1.421875 27.6875 -1.421875 
Q 18.265625 -1.421875 13.375 4.4375 
Q 8.5 10.296875 8.5 21.578125 
z
M 31.109375 56 
z
" id="DejaVuSans-75"/>
      <path d="M 52 44.1875 
Q 55.375 50.25 60.0625 53.125 
Q 64.75 56 71.09375 56 
Q 79.640625 56 84.28125 50.015625 
Q 88.921875 44.046875 88.921875 33.015625 
L 88.921875 0 
L 79.890625 0 
L 79.890625 32.71875 
Q 79.890625 40.578125 77.09375 44.375 
Q 74.3125 48.1875 68.609375 48.1875 
Q 61.625 48.1875 57.5625 43.546875 
Q 53.515625 38.921875 53.515625 30.90625 
L 53.515625 0 
L 44.484375 0 
L 44.484375 32.71875 
Q 44.484375 40.625 41.703125 44.40625 
Q 38.921875 48.1875 33.109375 48.1875 
Q 26.21875 48.1875 22.15625 43.53125 
Q 18.109375 38.875 18.109375 30.90625 
L 18.109375 0 
L 9.078125 0 
L 9.078125 54.6875 
L 18.109375 54.6875 
L 18.109375 46.1875 
Q 21.1875 51.21875 25.484375 53.609375 
Q 29.78125 56 35.6875 56 
Q 41.65625 56 45.828125 52.96875 
Q 50 49.953125 52 44.1875 
z
" id="DejaVuSans-6d"/>
      <path d="M 48.6875 27.296875 
Q 48.6875 37.203125 44.609375 42.84375 
Q 40.53125 48.484375 33.40625 48.484375 
Q 26.265625 48.484375 22.1875 42.84375 
Q 18.109375 37.203125 18.109375 27.296875 
Q 18.109375 17.390625 22.1875 11.75 
Q 26.265625 6.109375 33.40625 6.109375 
Q 40.53125 6.109375 44.609375 11.75 
Q 48.6875 17.390625 48.6875 27.296875 
z
M 18.109375 46.390625 
Q 20.953125 51.265625 25.265625 53.625 
Q 29.59375 56 35.59375 56 
Q 45.5625 56 51.78125 48.09375 
Q 58.015625 40.1875 58.015625 27.296875 
Q 58.015625 14.40625 51.78125 6.484375 
Q 45.5625 -1.421875 35.59375 -1.421875 
Q 29.59375 -1.421875 25.265625 0.953125 
Q 20.953125 3.328125 18.109375 8.203125 
L 18.109375 0 
L 9.078125 0 
L 9.078125 75.984375 
L 18.109375 75.984375 
z
" id="DejaVuSans-62"/>
      <path d="M 56.203125 29.59375 
L 56.203125 25.203125 
L 14.890625 25.203125 
Q 15.484375 15.921875 20.484375 11.0625 
Q 25.484375 6.203125 34.421875 6.203125 
Q 39.59375 6.203125 44.453125 7.46875 
Q 49.3125 8.734375 54.109375 11.28125 
L 54.109375 2.78125 
Q 49.265625 0.734375 44.1875 -0.34375 
Q 39.109375 -1.421875 33.890625 -1.421875 
Q 20.796875 -1.421875 13.15625 6.1875 
Q 5.515625 13.8125 5.515625 26.8125 
Q 5.515625 40.234375 12.765625 48.109375 
Q 20.015625 56 32.328125 56 
Q 43.359375 56 49.78125 48.890625 
Q 56.203125 41.796875 56.203125 29.59375 
z
M 47.21875 32.234375 
Q 47.125 39.59375 43.09375 43.984375 
Q 39.0625 48.390625 32.421875 48.390625 
Q 24.90625 48.390625 20.390625 44.140625 
Q 15.875 39.890625 15.1875 32.171875 
z
" id="DejaVuSans-65"/>
      <path d="M 41.109375 46.296875 
Q 39.59375 47.171875 37.8125 47.578125 
Q 36.03125 48 33.890625 48 
Q 26.265625 48 22.1875 43.046875 
Q 18.109375 38.09375 18.109375 28.8125 
L 18.109375 0 
L 9.078125 0 
L 9.078125 54.6875 
L 18.109375 54.6875 
L 18.109375 46.1875 
Q 20.953125 51.171875 25.484375 53.578125 
Q 30.03125 56 36.53125 56 
Q 37.453125 56 38.578125 55.875 
Q 39.703125 55.765625 41.0625 55.515625 
z
" id="DejaVuSans-72"/>
      <path id="DejaVuSans-20"/>
      <path d="M 30.609375 48.390625 
Q 23.390625 48.390625 19.1875 42.75 
Q 14.984375 37.109375 14.984375 27.296875 
Q 14.984375 17.484375 19.15625 11.84375 
Q 23.34375 6.203125 30.609375 6.203125 
Q 37.796875 6.203125 41.984375 11.859375 
Q 46.1875 17.53125 46.1875 27.296875 
Q 46.1875 37.015625 41.984375 42.703125 
Q 37.796875 48.390625 30.609375 48.390625 
z
M 30.609375 56 
Q 42.328125 56 49.015625 48.375 
Q 55.71875 40.765625 55.71875 27.296875 
Q 55.71875 13.875 49.015625 6.21875 
Q 42.328125 -1.421875 30.609375 -1.421875 
Q 18.84375 -1.421875 12.171875 6.21875 
Q 5.515625 13.875 5.515625 27.296875 
Q 5.515625 40.765625 12.171875 48.375 
Q 18.84375 56 30.609375 56 
z
" id="DejaVuSans-6f"/>
      <path d="M 37.109375 75.984375 
L 37.109375 68.5 
L 28.515625 68.5 
Q 23.6875 68.5 21.796875 66.546875 
Q 19.921875 64.59375 19.921875 59.515625 
L 19.921875 54.6875 
L 34.71875 54.6875 
L 34.71875 47.703125 
L 19.921875 47.703125 
L 19.921875 0 
L 10.890625 0 
L 10.890625 47.703125 
L 2.296875 47.703125 
L 2.296875 54.6875 
L 10.890625 54.6875 
L 10.890625 58.5 
Q 10.890625 67.625 15.140625 71.796875 
Q 19.390625 75.984375 28.609375 75.984375 
z
" id="DejaVuSans-66"/>
      <path d="M 9.421875 54.6875 
L 18.40625 54.6875 
L 18.40625 0 
L 9.421875 0 
z
M 9.421875 75.984375 
L 18.40625 75.984375 
L 18.40625 64.59375 
L 9.421875 64.59375 
z
" id="DejaVuSans-69"/>
      <path d="M 18.3125 70.21875 
L 18.3125 54.6875 
L 36.8125 54.6875 
L 36.8125 47.703125 
L 18.3125 47.703125 
L 18.3125 18.015625 
Q 18.3125 11.328125 20.140625 9.421875 
Q 21.96875 7.515625 27.59375 7.515625 
L 36.8125 7.515625 
L 36.8125 0 
L 27.59375 0 
Q 17.1875 0 13.234375 3.875 
Q 9.28125 7.765625 9.28125 18.015625 
L 9.28125 47.703125 
L 2.6875 47.703125 
L 2.6875 54.6875 
L 9.28125 54.6875 
L 9.28125 70.21875 
z
" id="DejaVuSans-74"/>
      <path d="M 34.28125 27.484375 
Q 23.390625 27.484375 19.1875 25 
Q 14.984375 22.515625 14.984375 16.5 
Q 14.984375 11.71875 18.140625 8.90625 
Q 21.296875 6.109375 26.703125 6.109375 
Q 34.1875 6.109375 38.703125 11.40625 
Q 43.21875 16.703125 43.21875 25.484375 
L 43.21875 27.484375 
z
M 52.203125 31.203125 
L 52.203125 0 
L 43.21875 0 
L 43.21875 8.296875 
Q 40.140625 3.328125 35.546875 0.953125 
Q 30.953125 -1.421875 24.3125 -1.421875 
Q 15.921875 -1.421875 10.953125 3.296875 
Q 6 8.015625 6 15.921875 
Q 6 25.140625 12.171875 29.828125 
Q 18.359375 34.515625 30.609375 34.515625 
L 43.21875 34.515625 
L 43.21875 35.40625 
Q 43.21875 41.609375 39.140625 45 
Q 35.0625 48.390625 27.6875 48.390625 
Q 23 48.390625 18.546875 47.265625 
Q 14.109375 46.140625 10.015625 43.890625 
L 10.015625 52.203125 
Q 14.9375 54.109375 19.578125 55.046875 
Q 24.21875 56 28.609375 56 
Q 40.484375 56 46.34375 49.84375 
Q 52.203125 43.703125 52.203125 31.203125 
z
" id="DejaVuSans-61"/>
      <path d="M 54.890625 33.015625 
L 54.890625 0 
L 45.90625 0 
L 45.90625 32.71875 
Q 45.90625 40.484375 42.875 44.328125 
Q 39.84375 48.1875 33.796875 48.1875 
Q 26.515625 48.1875 22.3125 43.546875 
Q 18.109375 38.921875 18.109375 30.90625 
L 18.109375 0 
L 9.078125 0 
L 9.078125 54.6875 
L 18.109375 54.6875 
L 18.109375 46.1875 
Q 21.34375 51.125 25.703125 53.5625 
Q 30.078125 56 35.796875 56 
Q 45.21875 56 50.046875 50.171875 
Q 54.890625 44.34375 54.890625 33.015625 
z
" id="DejaVuSans-6e"/>
      <path d="M 44.28125 53.078125 
L 44.28125 44.578125 
Q 40.484375 46.53125 36.375 47.5 
Q 32.28125 48.484375 27.875 48.484375 
Q 21.1875 48.484375 17.84375 46.4375 
Q 14.5 44.390625 14.5 40.28125 
Q 14.5 37.15625 16.890625 35.375 
Q 19.28125 33.59375 26.515625 31.984375 
L 29.59375 31.296875 
Q 39.15625 29.25 43.1875 25.515625 
Q 47.21875 21.78125 47.21875 15.09375 
Q 47.21875 7.46875 41.1875 3.015625 
Q 35.15625 -1.421875 24.609375 -1.421875 
Q 20.21875 -1.421875 15.453125 -0.5625 
Q 10.6875 0.296875 5.421875 2 
L 5.421875 11.28125 
Q 10.40625 8.6875 15.234375 7.390625 
Q 20.0625 6.109375 24.8125 6.109375 
Q 31.15625 6.109375 34.5625 8.28125 
Q 37.984375 10.453125 37.984375 14.40625 
Q 37.984375 18.0625 35.515625 20.015625 
Q 33.0625 21.96875 24.703125 23.78125 
L 21.578125 24.515625 
Q 13.234375 26.265625 9.515625 29.90625 
Q 5.8125 33.546875 5.8125 39.890625 
Q 5.8125 47.609375 11.28125 51.796875 
Q 16.75 56 26.8125 56 
Q 31.78125 56 36.171875 55.265625 
Q 40.578125 54.546875 44.28125 53.078125 
z
" id="DejaVuSans-73"/>
     </defs>
     <g transform="translate(150.195938 317.182156)scale(0.17 -0.17)">
      <use xlink:href="#DejaVuSans-4e"/>
      <use x="74.804688" xlink:href="#DejaVuSans-75"/>
      <use x="138.183594" xlink:href="#DejaVuSans-6d"/>
      <use x="235.595703" xlink:href="#DejaVuSans-62"/>
      <use x="299.072266" xlink:href="#DejaVuSans-65"/>
      <use x="360.595703" xlink:href="#DejaVuSans-72"/>
      <use x="401.708984" xlink:href="#DejaVuSans-20"/>
      <use x="433.496094" xlink:href="#DejaVuSans-6f"/>
      <use x="494.677734" xlink:href="#DejaVuSans-66"/>
      <use x="529.882812" xlink:href="#DejaVuSans-20"/>
      <use x="561.669922" xlink:href="#DejaVuSans-69"/>
      <use x="589.453125" xlink:href="#DejaVuSans-74"/>
      <use x="628.662109" xlink:href="#DejaVuSans-65"/>
      <use x="690.185547" xlink:href="#DejaVuSans-72"/>
      <use x="731.298828" xlink:href="#DejaVuSans-61"/>
      <use x="792.578125" xlink:href="#DejaVuSans-74"/>
      <use x="831.787109" xlink:href="#DejaVuSans-69"/>
      <use x="859.570312" xlink:href="#DejaVuSans-6f"/>
      <use x="920.751953" xlink:href="#DejaVuSans-6e"/>
      <use x="984.130859" xlink:href="#DejaVuSans-73"/>
     </g>
    </g>
   </g>
   <g id="matplotlib.axis_2">
    <g id="ytick_1">
     <g id="line2d_13">
      <path clip-path="url(#pf400aac07b)" d="M 59.714531 273.682347 
L 416.834531 273.682347 
" style="fill:none;stroke:#b0b0b0;stroke-linecap:square;stroke-width:0.8;"/>
     </g>
     <g id="line2d_14">
      <defs>
       <path d="M 0 0 
L -3.5 0 
" id="mbb81d03faa" style="stroke:#000000;stroke-width:0.8;"/>
      </defs>
      <g>
       <use style="stroke:#000000;stroke-width:0.8;" x="59.714531" xlink:href="#mbb81d03faa" y="273.682347"/>
      </g>
     </g>
     <g id="text_8">
      <!-- −1 -->
      <defs>
       <path d="M 10.59375 35.5 
L 73.1875 35.5 
L 73.1875 27.203125 
L 10.59375 27.203125 
z
" id="DejaVuSans-2212"/>
      </defs>
      <g transform="translate(27.652813 280.141018)scale(0.17 -0.17)">
       <use xlink:href="#DejaVuSans-2212"/>
       <use x="83.789062" xlink:href="#DejaVuSans-31"/>
      </g>
     </g>
    </g>
    <g id="ytick_2">
     <g id="line2d_15">
      <path clip-path="url(#pf400aac07b)" d="M 59.714531 233.831917 
L 416.834531 233.831917 
" style="fill:none;stroke:#b0b0b0;stroke-linecap:square;stroke-width:0.8;"/>
     </g>
     <g id="line2d_16">
      <g>
       <use style="stroke:#000000;stroke-width:0.8;" x="59.714531" xlink:href="#mbb81d03faa" y="233.831917"/>
      </g>
     </g>
     <g id="text_9">
      <!-- 0 -->
      <g transform="translate(41.898281 240.290589)scale(0.17 -0.17)">
       <use xlink:href="#DejaVuSans-30"/>
      </g>
     </g>
    </g>
    <g id="ytick_3">
     <g id="line2d_17">
      <path clip-path="url(#pf400aac07b)" d="M 59.714531 193.981488 
L 416.834531 193.981488 
" style="fill:none;stroke:#b0b0b0;stroke-linecap:square;stroke-width:0.8;"/>
     </g>
     <g id="line2d_18">
      <g>
       <use style="stroke:#000000;stroke-width:0.8;" x="59.714531" xlink:href="#mbb81d03faa" y="193.981488"/>
      </g>
     </g>
     <g id="text_10">
      <!-- 1 -->
      <g transform="translate(41.898281 200.44016)scale(0.17 -0.17)">
       <use xlink:href="#DejaVuSans-31"/>
      </g>
     </g>
    </g>
    <g id="ytick_4">
     <g id="line2d_19">
      <path clip-path="url(#pf400aac07b)" d="M 59.714531 154.131059 
L 416.834531 154.131059 
" style="fill:none;stroke:#b0b0b0;stroke-linecap:square;stroke-width:0.8;"/>
     </g>
     <g id="line2d_20">
      <g>
       <use style="stroke:#000000;stroke-width:0.8;" x="59.714531" xlink:href="#mbb81d03faa" y="154.131059"/>
      </g>
     </g>
     <g id="text_11">
      <!-- 2 -->
      <g transform="translate(41.898281 160.589731)scale(0.17 -0.17)">
       <use xlink:href="#DejaVuSans-32"/>
      </g>
     </g>
    </g>
    <g id="ytick_5">
     <g id="line2d_21">
      <path clip-path="url(#pf400aac07b)" d="M 59.714531 114.28063 
L 416.834531 114.28063 
" style="fill:none;stroke:#b0b0b0;stroke-linecap:square;stroke-width:0.8;"/>
     </g>
     <g id="line2d_22">
      <g>
       <use style="stroke:#000000;stroke-width:0.8;" x="59.714531" xlink:href="#mbb81d03faa" y="114.28063"/>
      </g>
     </g>
     <g id="text_12">
      <!-- 3 -->
      <g transform="translate(41.898281 120.739302)scale(0.17 -0.17)">
       <use xlink:href="#DejaVuSans-33"/>
      </g>
     </g>
    </g>
    <g id="ytick_6">
     <g id="line2d_23">
      <path clip-path="url(#pf400aac07b)" d="M 59.714531 74.430201 
L 416.834531 74.430201 
" style="fill:none;stroke:#b0b0b0;stroke-linecap:square;stroke-width:0.8;"/>
     </g>
     <g id="line2d_24">
      <g>
       <use style="stroke:#000000;stroke-width:0.8;" x="59.714531" xlink:href="#mbb81d03faa" y="74.430201"/>
      </g>
     </g>
     <g id="text_13">
      <!-- 4 -->
      <g transform="translate(41.898281 80.888873)scale(0.17 -0.17)">
       <use xlink:href="#DejaVuSans-34"/>
      </g>
     </g>
    </g>
    <g id="ytick_7">
     <g id="line2d_25">
      <path clip-path="url(#pf400aac07b)" d="M 59.714531 34.579772 
L 416.834531 34.579772 
" style="fill:none;stroke:#b0b0b0;stroke-linecap:square;stroke-width:0.8;"/>
     </g>
     <g id="line2d_26">
      <g>
       <use style="stroke:#000000;stroke-width:0.8;" x="59.714531" xlink:href="#mbb81d03faa" y="34.579772"/>
      </g>
     </g>
     <g id="text_14">
      <!-- 5 -->
      <g transform="translate(41.898281 41.038444)scale(0.17 -0.17)">
       <use xlink:href="#DejaVuSans-35"/>
      </g>
     </g>
    </g>
    <g id="text_15">
     <!-- Active power loss(pu) -->
     <defs>
      <path d="M 34.1875 63.1875 
L 20.796875 26.90625 
L 47.609375 26.90625 
z
M 28.609375 72.90625 
L 39.796875 72.90625 
L 67.578125 0 
L 57.328125 0 
L 50.6875 18.703125 
L 17.828125 18.703125 
L 11.1875 0 
L 0.78125 0 
z
" id="DejaVuSans-41"/>
      <path d="M 48.78125 52.59375 
L 48.78125 44.1875 
Q 44.96875 46.296875 41.140625 47.34375 
Q 37.3125 48.390625 33.40625 48.390625 
Q 24.65625 48.390625 19.8125 42.84375 
Q 14.984375 37.3125 14.984375 27.296875 
Q 14.984375 17.28125 19.8125 11.734375 
Q 24.65625 6.203125 33.40625 6.203125 
Q 37.3125 6.203125 41.140625 7.25 
Q 44.96875 8.296875 48.78125 10.40625 
L 48.78125 2.09375 
Q 45.015625 0.34375 40.984375 -0.53125 
Q 36.96875 -1.421875 32.421875 -1.421875 
Q 20.0625 -1.421875 12.78125 6.34375 
Q 5.515625 14.109375 5.515625 27.296875 
Q 5.515625 40.671875 12.859375 48.328125 
Q 20.21875 56 33.015625 56 
Q 37.15625 56 41.109375 55.140625 
Q 45.0625 54.296875 48.78125 52.59375 
z
" id="DejaVuSans-63"/>
      <path d="M 2.984375 54.6875 
L 12.5 54.6875 
L 29.59375 8.796875 
L 46.6875 54.6875 
L 56.203125 54.6875 
L 35.6875 0 
L 23.484375 0 
z
" id="DejaVuSans-76"/>
      <path d="M 18.109375 8.203125 
L 18.109375 -20.796875 
L 9.078125 -20.796875 
L 9.078125 54.6875 
L 18.109375 54.6875 
L 18.109375 46.390625 
Q 20.953125 51.265625 25.265625 53.625 
Q 29.59375 56 35.59375 56 
Q 45.5625 56 51.78125 48.09375 
Q 58.015625 40.1875 58.015625 27.296875 
Q 58.015625 14.40625 51.78125 6.484375 
Q 45.5625 -1.421875 35.59375 -1.421875 
Q 29.59375 -1.421875 25.265625 0.953125 
Q 20.953125 3.328125 18.109375 8.203125 
z
M 48.6875 27.296875 
Q 48.6875 37.203125 44.609375 42.84375 
Q 40.53125 48.484375 33.40625 48.484375 
Q 26.265625 48.484375 22.1875 42.84375 
Q 18.109375 37.203125 18.109375 27.296875 
Q 18.109375 17.390625 22.1875 11.75 
Q 26.265625 6.109375 33.40625 6.109375 
Q 40.53125 6.109375 44.609375 11.75 
Q 48.6875 17.390625 48.6875 27.296875 
z
" id="DejaVuSans-70"/>
      <path d="M 4.203125 54.6875 
L 13.1875 54.6875 
L 24.421875 12.015625 
L 35.59375 54.6875 
L 46.1875 54.6875 
L 57.421875 12.015625 
L 68.609375 54.6875 
L 77.59375 54.6875 
L 63.28125 0 
L 52.6875 0 
L 40.921875 44.828125 
L 29.109375 0 
L 18.5 0 
z
" id="DejaVuSans-77"/>
      <path d="M 9.421875 75.984375 
L 18.40625 75.984375 
L 18.40625 0 
L 9.421875 0 
z
" id="DejaVuSans-6c"/>
      <path d="M 31 75.875 
Q 24.46875 64.65625 21.28125 53.65625 
Q 18.109375 42.671875 18.109375 31.390625 
Q 18.109375 20.125 21.3125 9.0625 
Q 24.515625 -2 31 -13.1875 
L 23.1875 -13.1875 
Q 15.875 -1.703125 12.234375 9.375 
Q 8.59375 20.453125 8.59375 31.390625 
Q 8.59375 42.28125 12.203125 53.3125 
Q 15.828125 64.359375 23.1875 75.875 
z
" id="DejaVuSans-28"/>
      <path d="M 8.015625 75.875 
L 15.828125 75.875 
Q 23.140625 64.359375 26.78125 53.3125 
Q 30.421875 42.28125 30.421875 31.390625 
Q 30.421875 20.453125 26.78125 9.375 
Q 23.140625 -1.703125 15.828125 -13.1875 
L 8.015625 -13.1875 
Q 14.5 -2 17.703125 9.0625 
Q 20.90625 20.125 20.90625 31.390625 
Q 20.90625 42.671875 17.703125 53.65625 
Q 14.5 64.65625 8.015625 75.875 
z
" id="DejaVuSans-29"/>
     </defs>
     <g transform="translate(20.117344 235.707406)rotate(-90)scale(0.17 -0.17)">
      <use xlink:href="#DejaVuSans-41"/>
      <use x="68.392578" xlink:href="#DejaVuSans-63"/>
      <use x="123.373047" xlink:href="#DejaVuSans-74"/>
      <use x="162.582031" xlink:href="#DejaVuSans-69"/>
      <use x="190.365234" xlink:href="#DejaVuSans-76"/>
      <use x="249.544922" xlink:href="#DejaVuSans-65"/>
      <use x="311.068359" xlink:href="#DejaVuSans-20"/>
      <use x="342.855469" xlink:href="#DejaVuSans-70"/>
      <use x="406.332031" xlink:href="#DejaVuSans-6f"/>
      <use x="467.513672" xlink:href="#DejaVuSans-77"/>
      <use x="549.300781" xlink:href="#DejaVuSans-65"/>
      <use x="610.824219" xlink:href="#DejaVuSans-72"/>
      <use x="651.9375" xlink:href="#DejaVuSans-20"/>
      <use x="683.724609" xlink:href="#DejaVuSans-6c"/>
      <use x="711.507812" xlink:href="#DejaVuSans-6f"/>
      <use x="772.689453" xlink:href="#DejaVuSans-73"/>
      <use x="824.789062" xlink:href="#DejaVuSans-73"/>
      <use x="876.888672" xlink:href="#DejaVuSans-28"/>
      <use x="915.902344" xlink:href="#DejaVuSans-70"/>
      <use x="979.378906" xlink:href="#DejaVuSans-75"/>
      <use x="1042.757812" xlink:href="#DejaVuSans-29"/>
     </g>
    </g>
   </g>
   <g id="line2d_27">
    <path clip-path="url(#pf400aac07b)" d="M 75.947259 264.716 
L 76.596568 183.460975 
L 77.245877 22.796 
L 77.895186 56.756536 
L 78.544495 147.396337 
L 79.193804 170.91606 
L 79.843113 115.978258 
L 80.492422 71.827968 
L 81.141731 55.636739 
L 81.79104 67.87879 
L 82.440349 98.5158 
L 83.089659 136.99139 
L 83.738968 160.383592 
L 84.388277 148.356732 
L 85.686895 132.300994 
L 86.336204 138.804584 
L 86.985513 134.010578 
L 87.634822 153.067053 
L 88.284131 158.749724 
L 88.93344 173.406712 
L 90.881368 225.929577 
L 91.530677 235.92805 
L 92.179986 240.343478 
L 92.829295 240.431149 
L 94.127913 237.960422 
L 94.777222 238.163659 
L 95.426531 240.044599 
L 96.07584 243.670988 
L 96.725149 249.030871 
L 98.023768 262.743404 
L 98.673077 264.716 
L 114.256495 264.716 
L 114.905804 260.097335 
L 116.853731 219.800581 
L 117.50304 208.99713 
L 118.152349 203.517696 
L 118.801659 203.178967 
L 119.450968 206.64197 
L 120.749586 218.903947 
L 122.048204 230.958702 
L 122.697513 235.406009 
L 123.346822 238.594044 
L 123.996131 240.638371 
L 124.64544 239.765646 
L 125.944059 237.346725 
L 126.593368 236.454076 
L 127.242677 235.848349 
L 127.891986 235.50165 
L 128.541295 235.394054 
L 129.190604 235.525561 
L 129.839913 235.900155 
L 130.489222 236.521821 
L 131.138531 237.374621 
L 132.437149 239.741736 
L 133.735768 242.89789 
L 135.034386 246.703606 
L 136.982313 253.247047 
L 140.228859 264.305541 
L 140.878168 264.716 
L 143.475404 264.716 
L 144.124713 258.451513 
L 145.423331 250.062997 
L 146.07264 247.289407 
L 146.721949 246.014194 
L 147.371259 245.567869 
L 148.020568 244.575593 
L 148.669877 243.953926 
L 149.319186 240.431149 
L 150.617804 231.26555 
L 151.267113 228.284738 
L 151.916422 226.774406 
L 152.565731 226.483498 
L 153.21504 227.025464 
L 155.812277 231.082238 
L 156.461586 231.532548 
L 157.110895 231.604278 
L 157.760204 231.428937 
L 160.35744 230.213498 
L 161.656059 230.137783 
L 166.201222 230.492451 
L 185.680495 230.472526 
L 194.770822 230.480496 
L 399.952495 230.436661 
L 399.952495 230.436661 
" style="fill:none;stroke:#1f77b4;stroke-linecap:square;stroke-width:0.5;"/>
   </g>
   <g id="line2d_28">
    <path clip-path="url(#pf400aac07b)" d="M 76.596568 264.716 
L 77.245877 183.460975 
L 77.895186 22.796 
L 78.544495 56.756536 
L 79.193804 147.396337 
L 79.843113 170.91606 
L 80.492422 115.978258 
L 81.141731 71.827968 
L 81.79104 55.636739 
L 82.440349 67.87879 
L 83.089659 98.5158 
L 83.738968 136.99139 
L 84.388277 160.383592 
L 85.037586 148.356732 
L 86.336204 132.300994 
L 86.985513 138.804584 
L 87.634822 134.010578 
L 88.284131 153.067053 
L 88.93344 158.749724 
L 89.582749 173.406712 
L 91.530677 225.929577 
L 92.179986 235.92805 
L 92.829295 240.343478 
L 93.478604 240.431149 
L 94.777222 237.960422 
L 95.426531 238.163659 
L 96.07584 240.044599 
L 96.725149 243.670988 
L 97.374459 249.030871 
L 98.673077 262.743404 
L 99.322386 264.716 
L 114.905804 264.716 
L 115.555113 260.097335 
L 117.50304 219.800581 
L 118.152349 208.99713 
L 118.801659 203.517696 
L 119.450968 203.178967 
L 120.100277 206.64197 
L 121.398895 218.903947 
L 122.697513 230.958702 
L 123.346822 235.406009 
L 123.996131 238.594044 
L 124.64544 240.638371 
L 125.294749 239.765646 
L 126.593368 237.346725 
L 127.242677 236.454076 
L 127.891986 235.848349 
L 128.541295 235.50165 
L 129.190604 235.394054 
L 129.839913 235.525561 
L 130.489222 235.900155 
L 131.138531 236.521821 
L 131.78784 237.374621 
L 133.086459 239.741736 
L 134.385077 242.89789 
L 135.683695 246.703606 
L 137.631622 253.247047 
L 140.878168 264.305541 
L 141.527477 264.716 
L 144.124713 264.716 
L 144.774022 258.451513 
L 146.07264 250.062997 
L 146.721949 247.289407 
L 147.371259 246.014194 
L 148.020568 245.567869 
L 148.669877 244.575593 
L 149.319186 243.953926 
L 149.968495 240.431149 
L 151.267113 231.26555 
L 151.916422 228.284738 
L 152.565731 226.774406 
L 153.21504 226.483498 
L 153.864349 227.025464 
L 156.461586 231.082238 
L 157.110895 231.532548 
L 157.760204 231.604278 
L 158.409513 231.428937 
L 161.006749 230.213498 
L 162.305368 230.137783 
L 166.850531 230.492451 
L 186.329804 230.472526 
L 195.420131 230.480496 
L 400.601804 230.436661 
L 400.601804 230.436661 
" style="fill:none;stroke:#ff7f0e;stroke-linecap:square;stroke-width:0.5;"/>
   </g>
   <g id="line2d_29">
    <path clip-path="url(#pf400aac07b)" d="M 76.596568 264.716 
L 77.245877 157.721583 
L 77.895186 122.445983 
L 78.544495 225.539043 
L 79.193804 264.716 
L 79.843113 264.716 
L 80.492422 231.807516 
L 81.141731 179.762855 
L 81.79104 152.194328 
L 82.440349 137.166732 
L 83.089659 137.47358 
L 83.738968 126.897276 
L 84.388277 110.391228 
L 85.037586 108.20344 
L 85.686895 111.343653 
L 86.985513 152.688474 
L 87.634822 164.779094 
L 88.284131 181.16559 
L 90.232059 240.088435 
L 90.881368 253.924504 
L 91.530677 261.237058 
L 92.179986 263.460711 
L 92.829295 262.468436 
L 93.478604 260.51178 
L 94.127913 259.364087 
L 94.777222 260.03756 
L 95.426531 262.84303 
L 96.07584 264.716 
L 107.763404 264.716 
L 108.412713 264.421107 
L 109.062022 259.260476 
L 109.711331 258.507303 
L 110.36064 259.017389 
L 111.009949 259.710786 
L 111.659259 259.750637 
L 112.308568 258.961598 
L 112.957877 257.487132 
L 113.607186 252.537709 
L 114.256495 235.94399 
L 114.905804 223.004556 
L 115.555113 212.958263 
L 116.204422 207.61432 
L 116.853731 206.789416 
L 117.50304 209.535111 
L 118.152349 214.651906 
L 120.100277 233.544994 
L 120.749586 233.246116 
L 122.048204 230.986597 
L 122.697513 230.34899 
L 123.346822 230.225454 
L 123.996131 230.536287 
L 124.64544 231.217729 
L 125.294749 232.261811 
L 125.944059 233.660561 
L 127.242677 237.434396 
L 128.541295 242.332014 
L 129.839913 248.162132 
L 131.78784 258.164589 
L 133.086459 264.716 
L 142.826095 264.716 
L 144.774022 249.254034 
L 145.423331 245.66351 
L 146.07264 243.678958 
L 146.721949 243.208723 
L 147.371259 243.82242 
L 148.669877 246.472474 
L 149.968495 249.022901 
L 150.617804 250.047057 
L 151.916422 251.485658 
L 152.565731 251.927997 
L 153.21504 252.194995 
L 153.864349 252.270711 
L 154.513659 252.187025 
L 155.162968 249.41742 
L 156.461586 237.394546 
L 157.110895 232.349481 
L 157.760204 228.822719 
L 158.409513 226.826212 
L 159.058822 226.120859 
L 159.708131 226.348007 
L 160.35744 227.184866 
L 162.305368 230.392825 
L 162.954677 231.042387 
L 163.603986 231.341266 
L 164.253295 231.345251 
L 165.551913 230.811255 
L 166.850531 230.225454 
L 168.149149 229.966426 
L 169.447768 230.046127 
L 172.045004 230.376885 
L 174.64224 230.416736 
L 400.601804 230.432676 
L 400.601804 230.432676 
" style="fill:none;stroke:#2ca02c;stroke-linecap:square;stroke-width:0.5;"/>
   </g>
   <g id="line2d_30">
    <path clip-path="url(#pf400aac07b)" d="M 76.596568 264.716 
L 77.245877 213.751286 
L 77.895186 168.202246 
L 78.544495 264.716 
L 81.141731 264.716 
L 81.79104 226.324097 
L 82.440349 195.591446 
L 83.089659 176.064735 
L 84.388277 116.181496 
L 85.037586 104.294113 
L 85.686895 117.675887 
L 86.336204 124.50625 
L 86.985513 144.913655 
L 87.634822 155.497929 
L 88.93344 203.170997 
L 90.232059 251.374076 
L 90.881368 264.716 
L 107.763404 264.716 
L 109.062022 257.534953 
L 109.711331 256.901331 
L 110.36064 257.112538 
L 111.009949 257.192239 
L 111.659259 256.586512 
L 112.308568 255.275433 
L 112.957877 253.422388 
L 113.607186 248.269728 
L 114.256495 235.569396 
L 114.905804 226.128829 
L 115.555113 219.131094 
L 116.204422 215.915165 
L 116.853731 216.170207 
L 117.50304 219.155004 
L 118.152349 223.984876 
L 118.801659 229.846875 
L 119.450968 232.22993 
L 120.100277 231.70789 
L 120.749586 230.898926 
L 121.398895 230.39681 
L 122.048204 230.412751 
L 122.697513 230.926821 
L 123.346822 231.859321 
L 123.996131 233.17837 
L 124.64544 234.879984 
L 125.944059 239.323307 
L 127.242677 244.942217 
L 128.541295 251.489643 
L 130.489222 262.504301 
L 131.138531 264.716 
L 140.878168 264.716 
L 141.527477 261.336684 
L 142.176786 254.390754 
L 143.475404 245.265006 
L 144.124713 242.786309 
L 144.774022 241.94148 
L 145.423331 242.483446 
L 146.07264 243.83836 
L 148.669877 250.413681 
L 149.968495 252.725006 
L 150.617804 253.58976 
L 151.267113 254.235337 
L 151.916422 254.673692 
L 152.565731 254.904824 
L 153.21504 254.97257 
L 154.513659 254.793243 
L 155.162968 254.645797 
L 155.812277 251.485658 
L 157.760204 233.461308 
L 158.409513 229.45634 
L 159.058822 226.965689 
L 159.708131 225.758221 
L 160.35744 225.507163 
L 161.006749 225.921607 
L 161.656059 226.698691 
L 162.954677 228.567676 
L 163.603986 229.265058 
L 164.253295 229.711383 
L 164.902604 229.91462 
L 166.201222 229.771159 
L 168.149149 229.328819 
L 169.447768 229.300924 
L 175.940859 229.763189 
L 177.239477 229.814994 
L 178.538095 230.221469 
L 179.187404 229.878755 
L 181.135331 229.886725 
L 183.732568 229.918605 
L 192.822895 230.105902 
L 202.562531 230.201543 
L 209.055622 230.253349 
L 218.795259 230.285229 
L 220.093877 230.508392 
L 220.743186 230.33305 
L 223.340422 230.273274 
L 228.534895 230.33305 
L 233.080059 230.337035 
L 240.871768 230.33305 
L 244.767622 230.368915 
L 252.559331 230.376885 
L 295.413731 230.420721 
L 296.06304 230.488466 
L 297.361659 230.424706 
L 300.608204 230.412751 
L 315.542313 230.416736 
L 316.191622 230.34899 
L 316.840931 230.456586 
L 318.139549 230.420721 
L 335.021586 230.392825 
L 336.969513 230.428691 
L 400.601804 230.424706 
L 400.601804 230.424706 
" style="fill:none;stroke:#d62728;stroke-linecap:square;stroke-width:0.5;"/>
   </g>
   <g id="line2d_31">
    <path clip-path="url(#pf400aac07b)" d="M 76.596568 264.716 
L 77.245877 264.716 
L 77.895186 263.28537 
L 78.544495 264.716 
L 83.089659 264.716 
L 83.738968 257.000957 
L 84.388277 228.619481 
L 85.037586 181.081904 
L 85.686895 180.527983 
L 86.336204 153.860076 
L 86.985513 146.953997 
L 87.634822 148.018003 
L 88.284131 163.077481 
L 88.93344 190.351114 
L 90.232059 255.088136 
L 90.881368 264.716 
L 106.464786 264.716 
L 107.114095 262.572047 
L 107.763404 256.462976 
L 108.412713 255.211673 
L 109.062022 255.271448 
L 109.711331 255.590252 
L 110.36064 255.215658 
L 111.009949 254.00819 
L 111.659259 252.187025 
L 112.957877 247.440839 
L 116.204422 233.839888 
L 116.853731 231.727815 
L 117.50304 230.058082 
L 118.152349 228.902419 
L 118.801659 228.316618 
L 119.450968 228.328573 
L 120.100277 228.94227 
L 120.749586 230.153723 
L 121.398895 231.915112 
L 122.048204 234.206511 
L 123.346822 240.184076 
L 124.64544 247.723777 
L 125.944059 256.518767 
L 126.593368 261.300818 
L 127.242677 264.716 
L 140.228859 264.716 
L 142.176786 247.373093 
L 142.826095 244.037612 
L 143.475404 243.065262 
L 144.124713 243.945956 
L 144.774022 246.16164 
L 147.371259 257.212164 
L 148.669877 261.456235 
L 149.319186 263.289355 
L 149.968495 264.716 
L 157.110895 264.716 
L 157.760204 264.086363 
L 159.058822 245.930508 
L 159.708131 237.167398 
L 160.35744 230.416736 
L 161.006749 226.124844 
L 161.656059 224.108413 
L 162.305368 223.921116 
L 162.954677 225.132569 
L 163.603986 227.288477 
L 165.551913 235.457815 
L 166.201222 233.931544 
L 166.850531 233.066789 
L 168.149149 229.404535 
L 168.798459 227.890218 
L 169.447768 226.885988 
L 170.097077 226.220485 
L 170.746386 225.869802 
L 171.395695 225.71837 
L 172.694313 225.821981 
L 173.992931 226.344022 
L 176.590168 227.675026 
L 177.888786 227.989845 
L 179.836713 228.109396 
L 182.433949 228.228947 
L 188.92704 228.92633 
L 212.302168 229.85086 
L 216.198022 229.90665 
L 218.145949 229.954471 
L 229.833513 230.221469 
L 230.482822 230.054097 
L 231.132131 230.189588 
L 235.027986 230.169663 
L 241.521077 230.225454 
L 243.469004 230.253349 
L 244.767622 230.233424 
L 248.663477 230.253349 
L 253.857949 230.321095 
L 255.805877 230.281244 
L 257.753804 230.31711 
L 264.896204 230.32508 
L 267.49344 230.32508 
L 275.934459 230.512377 
L 276.583768 230.285229 
L 277.233077 230.440646 
L 277.882386 230.337035 
L 279.830313 230.35696 
L 292.167186 230.384855 
L 296.712349 230.412751 
L 301.257513 230.404781 
L 316.840931 230.416736 
L 324.63264 230.420721 
L 326.580568 230.408766 
L 331.125731 230.432676 
L 336.320204 230.412751 
L 356.448786 230.436661 
L 360.993949 230.404781 
L 367.48704 230.436661 
L 369.434968 230.404781 
L 370.733586 230.420721 
L 379.174604 230.412751 
L 381.77184 230.424706 
L 385.667695 230.436661 
L 390.212859 230.420721 
L 396.705949 230.448616 
L 397.355259 230.572152 
L 398.004568 230.428691 
L 399.952495 230.428691 
L 400.601804 230.400795 
L 400.601804 230.400795 
" style="fill:none;stroke:#9467bd;stroke-linecap:square;stroke-width:0.5;"/>
   </g>
   <g id="line2d_32">
    <path clip-path="url(#pf400aac07b)" d="M 76.596568 230.420721 
L 400.601804 230.420721 
L 400.601804 230.420721 
" style="fill:none;stroke:#8c564b;stroke-dasharray:7.4,3.2;stroke-dashoffset:0;stroke-width:2;"/>
   </g>
   <g id="patch_3">
    <path d="M 59.714531 276.812 
L 59.714531 10.7 
" style="fill:none;stroke:#000000;stroke-linecap:square;stroke-linejoin:miter;stroke-width:0.8;"/>
   </g>
   <g id="patch_4">
    <path d="M 416.834531 276.812 
L 416.834531 10.7 
" style="fill:none;stroke:#000000;stroke-linecap:square;stroke-linejoin:miter;stroke-width:0.8;"/>
   </g>
   <g id="patch_5">
    <path d="M 59.714531 276.812 
L 416.834531 276.812 
" style="fill:none;stroke:#000000;stroke-linecap:square;stroke-linejoin:miter;stroke-width:0.8;"/>
   </g>
   <g id="patch_6">
    <path d="M 59.714531 10.7 
L 416.834531 10.7 
" style="fill:none;stroke:#000000;stroke-linecap:square;stroke-linejoin:miter;stroke-width:0.8;"/>
   </g>
   <g id="legend_1">
    <g id="patch_7">
     <path d="M 207.073125 174.016875 
L 404.934531 174.016875 
Q 408.334531 174.016875 408.334531 170.616875 
L 408.334531 22.6 
Q 408.334531 19.2 404.934531 19.2 
L 207.073125 19.2 
Q 203.673125 19.2 203.673125 22.6 
L 203.673125 170.616875 
Q 203.673125 174.016875 207.073125 174.016875 
z
" style="fill:#ffffff;opacity:0.8;stroke:#cccccc;stroke-linejoin:miter;"/>
    </g>
    <g id="line2d_33">
     <path d="M 210.473125 32.967344 
L 244.473125 32.967344 
" style="fill:none;stroke:#1f77b4;stroke-linecap:square;stroke-width:0.5;"/>
    </g>
    <g id="line2d_34"/>
    <g id="text_16">
     <!-- lamda=50 -->
     <defs>
      <path d="M 45.40625 46.390625 
L 45.40625 75.984375 
L 54.390625 75.984375 
L 54.390625 0 
L 45.40625 0 
L 45.40625 8.203125 
Q 42.578125 3.328125 38.25 0.953125 
Q 33.9375 -1.421875 27.875 -1.421875 
Q 17.96875 -1.421875 11.734375 6.484375 
Q 5.515625 14.40625 5.515625 27.296875 
Q 5.515625 40.1875 11.734375 48.09375 
Q 17.96875 56 27.875 56 
Q 33.9375 56 38.25 53.625 
Q 42.578125 51.265625 45.40625 46.390625 
z
M 14.796875 27.296875 
Q 14.796875 17.390625 18.875 11.75 
Q 22.953125 6.109375 30.078125 6.109375 
Q 37.203125 6.109375 41.296875 11.75 
Q 45.40625 17.390625 45.40625 27.296875 
Q 45.40625 37.203125 41.296875 42.84375 
Q 37.203125 48.484375 30.078125 48.484375 
Q 22.953125 48.484375 18.875 42.84375 
Q 14.796875 37.203125 14.796875 27.296875 
z
" id="DejaVuSans-64"/>
      <path d="M 10.59375 45.40625 
L 73.1875 45.40625 
L 73.1875 37.203125 
L 10.59375 37.203125 
z
M 10.59375 25.484375 
L 73.1875 25.484375 
L 73.1875 17.1875 
L 10.59375 17.1875 
z
" id="DejaVuSans-3d"/>
     </defs>
     <g transform="translate(258.073125 38.917344)scale(0.17 -0.17)">
      <use xlink:href="#DejaVuSans-6c"/>
      <use x="27.783203" xlink:href="#DejaVuSans-61"/>
      <use x="89.0625" xlink:href="#DejaVuSans-6d"/>
      <use x="186.474609" xlink:href="#DejaVuSans-64"/>
      <use x="249.951172" xlink:href="#DejaVuSans-61"/>
      <use x="311.230469" xlink:href="#DejaVuSans-3d"/>
      <use x="395.019531" xlink:href="#DejaVuSans-35"/>
      <use x="458.642578" xlink:href="#DejaVuSans-30"/>
     </g>
    </g>
    <g id="line2d_35">
     <path d="M 210.473125 57.920156 
L 244.473125 57.920156 
" style="fill:none;stroke:#ff7f0e;stroke-linecap:square;stroke-width:0.5;"/>
    </g>
    <g id="line2d_36"/>
    <g id="text_17">
     <!-- lamda=30 -->
     <g transform="translate(258.073125 63.870156)scale(0.17 -0.17)">
      <use xlink:href="#DejaVuSans-6c"/>
      <use x="27.783203" xlink:href="#DejaVuSans-61"/>
      <use x="89.0625" xlink:href="#DejaVuSans-6d"/>
      <use x="186.474609" xlink:href="#DejaVuSans-64"/>
      <use x="249.951172" xlink:href="#DejaVuSans-61"/>
      <use x="311.230469" xlink:href="#DejaVuSans-3d"/>
      <use x="395.019531" xlink:href="#DejaVuSans-33"/>
      <use x="458.642578" xlink:href="#DejaVuSans-30"/>
     </g>
    </g>
    <g id="line2d_37">
     <path d="M 210.473125 82.872969 
L 244.473125 82.872969 
" style="fill:none;stroke:#2ca02c;stroke-linecap:square;stroke-width:0.5;"/>
    </g>
    <g id="line2d_38"/>
    <g id="text_18">
     <!-- lamda=25 -->
     <g transform="translate(258.073125 88.822969)scale(0.17 -0.17)">
      <use xlink:href="#DejaVuSans-6c"/>
      <use x="27.783203" xlink:href="#DejaVuSans-61"/>
      <use x="89.0625" xlink:href="#DejaVuSans-6d"/>
      <use x="186.474609" xlink:href="#DejaVuSans-64"/>
      <use x="249.951172" xlink:href="#DejaVuSans-61"/>
      <use x="311.230469" xlink:href="#DejaVuSans-3d"/>
      <use x="395.019531" xlink:href="#DejaVuSans-32"/>
      <use x="458.642578" xlink:href="#DejaVuSans-35"/>
     </g>
    </g>
    <g id="line2d_39">
     <path d="M 210.473125 107.825781 
L 244.473125 107.825781 
" style="fill:none;stroke:#d62728;stroke-linecap:square;stroke-width:0.5;"/>
    </g>
    <g id="line2d_40"/>
    <g id="text_19">
     <!-- lamda=20 -->
     <g transform="translate(258.073125 113.775781)scale(0.17 -0.17)">
      <use xlink:href="#DejaVuSans-6c"/>
      <use x="27.783203" xlink:href="#DejaVuSans-61"/>
      <use x="89.0625" xlink:href="#DejaVuSans-6d"/>
      <use x="186.474609" xlink:href="#DejaVuSans-64"/>
      <use x="249.951172" xlink:href="#DejaVuSans-61"/>
      <use x="311.230469" xlink:href="#DejaVuSans-3d"/>
      <use x="395.019531" xlink:href="#DejaVuSans-32"/>
      <use x="458.642578" xlink:href="#DejaVuSans-30"/>
     </g>
    </g>
    <g id="line2d_41">
     <path d="M 210.473125 132.778594 
L 244.473125 132.778594 
" style="fill:none;stroke:#9467bd;stroke-linecap:square;stroke-width:0.5;"/>
    </g>
    <g id="line2d_42"/>
    <g id="text_20">
     <!-- lamda=15 -->
     <g transform="translate(258.073125 138.728594)scale(0.17 -0.17)">
      <use xlink:href="#DejaVuSans-6c"/>
      <use x="27.783203" xlink:href="#DejaVuSans-61"/>
      <use x="89.0625" xlink:href="#DejaVuSans-6d"/>
      <use x="186.474609" xlink:href="#DejaVuSans-64"/>
      <use x="249.951172" xlink:href="#DejaVuSans-61"/>
      <use x="311.230469" xlink:href="#DejaVuSans-3d"/>
      <use x="395.019531" xlink:href="#DejaVuSans-31"/>
      <use x="458.642578" xlink:href="#DejaVuSans-35"/>
     </g>
    </g>
    <g id="line2d_43">
     <path d="M 210.473125 157.731406 
L 244.473125 157.731406 
" style="fill:none;stroke:#8c564b;stroke-dasharray:7.4,3.2;stroke-dashoffset:0;stroke-width:2;"/>
    </g>
    <g id="line2d_44"/>
    <g id="text_21">
     <!-- Consensus value -->
     <defs>
      <path d="M 64.40625 67.28125 
L 64.40625 56.890625 
Q 59.421875 61.53125 53.78125 63.8125 
Q 48.140625 66.109375 41.796875 66.109375 
Q 29.296875 66.109375 22.65625 58.46875 
Q 16.015625 50.828125 16.015625 36.375 
Q 16.015625 21.96875 22.65625 14.328125 
Q 29.296875 6.6875 41.796875 6.6875 
Q 48.140625 6.6875 53.78125 8.984375 
Q 59.421875 11.28125 64.40625 15.921875 
L 64.40625 5.609375 
Q 59.234375 2.09375 53.4375 0.328125 
Q 47.65625 -1.421875 41.21875 -1.421875 
Q 24.65625 -1.421875 15.125 8.703125 
Q 5.609375 18.84375 5.609375 36.375 
Q 5.609375 53.953125 15.125 64.078125 
Q 24.65625 74.21875 41.21875 74.21875 
Q 47.75 74.21875 53.53125 72.484375 
Q 59.328125 70.75 64.40625 67.28125 
z
" id="DejaVuSans-43"/>
     </defs>
     <g transform="translate(258.073125 163.681406)scale(0.17 -0.17)">
      <use xlink:href="#DejaVuSans-43"/>
      <use x="69.824219" xlink:href="#DejaVuSans-6f"/>
      <use x="131.005859" xlink:href="#DejaVuSans-6e"/>
      <use x="194.384766" xlink:href="#DejaVuSans-73"/>
      <use x="246.484375" xlink:href="#DejaVuSans-65"/>
      <use x="308.007812" xlink:href="#DejaVuSans-6e"/>
      <use x="371.386719" xlink:href="#DejaVuSans-73"/>
      <use x="423.486328" xlink:href="#DejaVuSans-75"/>
      <use x="486.865234" xlink:href="#DejaVuSans-73"/>
      <use x="538.964844" xlink:href="#DejaVuSans-20"/>
      <use x="570.751953" xlink:href="#DejaVuSans-76"/>
      <use x="629.931641" xlink:href="#DejaVuSans-61"/>
      <use x="691.210938" xlink:href="#DejaVuSans-6c"/>
      <use x="718.994141" xlink:href="#DejaVuSans-75"/>
      <use x="782.373047" xlink:href="#DejaVuSans-65"/>
     </g>
    </g>
   </g>
  </g>
 </g>
 <defs>
  <clipPath id="pf400aac07b">
   <rect height="266.112" width="357.12" x="59.714531" y="10.7"/>
  </clipPath>
 </defs>
</svg>
