<?xml version="1.0" encoding="utf-8" standalone="no"?>
<!DOCTYPE svg PUBLIC "-//W3C//DTD SVG 1.1//EN"
  "http://www.w3.org/Graphics/SVG/1.1/DTD/svg11.dtd">
<!-- Created with matplotlib (http://matplotlib.org/) -->
<svg height="327pt" version="1.1" viewBox="0 0 443 327" width="443pt" xmlns="http://www.w3.org/2000/svg" xmlns:xlink="http://www.w3.org/1999/xlink">
 <defs>
  <style type="text/css">
*{stroke-linecap:butt;stroke-linejoin:round;}
  </style>
 </defs>
 <g id="figure_1">
  <g id="patch_1">
   <path d="M -0 327.917625 
L 443.753594 327.917625 
L 443.753594 0 
L -0 0 
z
" style="fill:#ffffff;"/>
  </g>
  <g id="axes_1">
   <g id="patch_2">
    <path d="M 75.933594 276.812 
L 433.053594 276.812 
L 433.053594 10.7 
L 75.933594 10.7 
z
" style="fill:#ffffff;"/>
   </g>
   <g id="matplotlib.axis_1">
    <g id="xtick_1">
     <g id="line2d_1">
      <path clip-path="url(#paa3c1fc632)" d="M 92.166321 276.812 
L 92.166321 10.7 
" style="fill:none;stroke:#b0b0b0;stroke-linecap:square;stroke-width:0.8;"/>
     </g>
     <g id="line2d_2">
      <defs>
       <path d="M 0 0 
L 0 3.5 
" id="mb6039faf64" style="stroke:#000000;stroke-width:0.8;"/>
      </defs>
      <g>
       <use style="stroke:#000000;stroke-width:0.8;" x="92.166321" xlink:href="#mb6039faf64" y="276.812"/>
      </g>
     </g>
     <g id="text_1">
      <!-- 0 -->
      <defs>
       <path d="M 31.78125 66.40625 
Q 24.171875 66.40625 20.328125 58.90625 
Q 16.5 51.421875 16.5 36.375 
Q 16.5 21.390625 20.328125 13.890625 
Q 24.171875 6.390625 31.78125 6.390625 
Q 39.453125 6.390625 43.28125 13.890625 
Q 47.125 21.390625 47.125 36.375 
Q 47.125 51.421875 43.28125 58.90625 
Q 39.453125 66.40625 31.78125 66.40625 
z
M 31.78125 74.21875 
Q 44.046875 74.21875 50.515625 64.515625 
Q 56.984375 54.828125 56.984375 36.375 
Q 56.984375 17.96875 50.515625 8.265625 
Q 44.046875 -1.421875 31.78125 -1.421875 
Q 19.53125 -1.421875 13.0625 8.265625 
Q 6.59375 17.96875 6.59375 36.375 
Q 6.59375 54.828125 13.0625 64.515625 
Q 19.53125 74.21875 31.78125 74.21875 
z
" id="DejaVuSans-30"/>
      </defs>
      <g transform="translate(86.758196 296.729344)scale(0.17 -0.17)">
       <use xlink:href="#DejaVuSans-30"/>
      </g>
     </g>
    </g>
    <g id="xtick_2">
     <g id="line2d_3">
      <path clip-path="url(#paa3c1fc632)" d="M 157.227352 276.812 
L 157.227352 10.7 
" style="fill:none;stroke:#b0b0b0;stroke-linecap:square;stroke-width:0.8;"/>
     </g>
     <g id="line2d_4">
      <g>
       <use style="stroke:#000000;stroke-width:0.8;" x="157.227352" xlink:href="#mb6039faf64" y="276.812"/>
      </g>
     </g>
     <g id="text_2">
      <!-- 100 -->
      <defs>
       <path d="M 12.40625 8.296875 
L 28.515625 8.296875 
L 28.515625 63.921875 
L 10.984375 60.40625 
L 10.984375 69.390625 
L 28.421875 72.90625 
L 38.28125 72.90625 
L 38.28125 8.296875 
L 54.390625 8.296875 
L 54.390625 0 
L 12.40625 0 
z
" id="DejaVuSans-31"/>
      </defs>
      <g transform="translate(141.002977 296.729344)scale(0.17 -0.17)">
       <use xlink:href="#DejaVuSans-31"/>
       <use x="63.623047" xlink:href="#DejaVuSans-30"/>
       <use x="127.246094" xlink:href="#DejaVuSans-30"/>
      </g>
     </g>
    </g>
    <g id="xtick_3">
     <g id="line2d_5">
      <path clip-path="url(#paa3c1fc632)" d="M 222.288383 276.812 
L 222.288383 10.7 
" style="fill:none;stroke:#b0b0b0;stroke-linecap:square;stroke-width:0.8;"/>
     </g>
     <g id="line2d_6">
      <g>
       <use style="stroke:#000000;stroke-width:0.8;" x="222.288383" xlink:href="#mb6039faf64" y="276.812"/>
      </g>
     </g>
     <g id="text_3">
      <!-- 200 -->
      <defs>
       <path d="M 19.1875 8.296875 
L 53.609375 8.296875 
L 53.609375 0 
L 7.328125 0 
L 7.328125 8.296875 
Q 12.9375 14.109375 22.625 23.890625 
Q 32.328125 33.6875 34.8125 36.53125 
Q 39.546875 41.84375 41.421875 45.53125 
Q 43.3125 49.21875 43.3125 52.78125 
Q 43.3125 58.59375 39.234375 62.25 
Q 35.15625 65.921875 28.609375 65.921875 
Q 23.96875 65.921875 18.8125 64.3125 
Q 13.671875 62.703125 7.8125 59.421875 
L 7.8125 69.390625 
Q 13.765625 71.78125 18.9375 73 
Q 24.125 74.21875 28.421875 74.21875 
Q 39.75 74.21875 46.484375 68.546875 
Q 53.21875 62.890625 53.21875 53.421875 
Q 53.21875 48.921875 51.53125 44.890625 
Q 49.859375 40.875 45.40625 35.40625 
Q 44.1875 33.984375 37.640625 27.21875 
Q 31.109375 20.453125 19.1875 8.296875 
z
" id="DejaVuSans-32"/>
      </defs>
      <g transform="translate(206.064008 296.729344)scale(0.17 -0.17)">
       <use xlink:href="#DejaVuSans-32"/>
       <use x="63.623047" xlink:href="#DejaVuSans-30"/>
       <use x="127.246094" xlink:href="#DejaVuSans-30"/>
      </g>
     </g>
    </g>
    <g id="xtick_4">
     <g id="line2d_7">
      <path clip-path="url(#paa3c1fc632)" d="M 287.349414 276.812 
L 287.349414 10.7 
" style="fill:none;stroke:#b0b0b0;stroke-linecap:square;stroke-width:0.8;"/>
     </g>
     <g id="line2d_8">
      <g>
       <use style="stroke:#000000;stroke-width:0.8;" x="287.349414" xlink:href="#mb6039faf64" y="276.812"/>
      </g>
     </g>
     <g id="text_4">
      <!-- 300 -->
      <defs>
       <path d="M 40.578125 39.3125 
Q 47.65625 37.796875 51.625 33 
Q 55.609375 28.21875 55.609375 21.1875 
Q 55.609375 10.40625 48.1875 4.484375 
Q 40.765625 -1.421875 27.09375 -1.421875 
Q 22.515625 -1.421875 17.65625 -0.515625 
Q 12.796875 0.390625 7.625 2.203125 
L 7.625 11.71875 
Q 11.71875 9.328125 16.59375 8.109375 
Q 21.484375 6.890625 26.8125 6.890625 
Q 36.078125 6.890625 40.9375 10.546875 
Q 45.796875 14.203125 45.796875 21.1875 
Q 45.796875 27.640625 41.28125 31.265625 
Q 36.765625 34.90625 28.71875 34.90625 
L 20.21875 34.90625 
L 20.21875 43.015625 
L 29.109375 43.015625 
Q 36.375 43.015625 40.234375 45.921875 
Q 44.09375 48.828125 44.09375 54.296875 
Q 44.09375 59.90625 40.109375 62.90625 
Q 36.140625 65.921875 28.71875 65.921875 
Q 24.65625 65.921875 20.015625 65.03125 
Q 15.375 64.15625 9.8125 62.3125 
L 9.8125 71.09375 
Q 15.4375 72.65625 20.34375 73.4375 
Q 25.25 74.21875 29.59375 74.21875 
Q 40.828125 74.21875 47.359375 69.109375 
Q 53.90625 64.015625 53.90625 55.328125 
Q 53.90625 49.265625 50.4375 45.09375 
Q 46.96875 40.921875 40.578125 39.3125 
z
" id="DejaVuSans-33"/>
      </defs>
      <g transform="translate(271.125039 296.729344)scale(0.17 -0.17)">
       <use xlink:href="#DejaVuSans-33"/>
       <use x="63.623047" xlink:href="#DejaVuSans-30"/>
       <use x="127.246094" xlink:href="#DejaVuSans-30"/>
      </g>
     </g>
    </g>
    <g id="xtick_5">
     <g id="line2d_9">
      <path clip-path="url(#paa3c1fc632)" d="M 352.410446 276.812 
L 352.410446 10.7 
" style="fill:none;stroke:#b0b0b0;stroke-linecap:square;stroke-width:0.8;"/>
     </g>
     <g id="line2d_10">
      <g>
       <use style="stroke:#000000;stroke-width:0.8;" x="352.410446" xlink:href="#mb6039faf64" y="276.812"/>
      </g>
     </g>
     <g id="text_5">
      <!-- 400 -->
      <defs>
       <path d="M 37.796875 64.3125 
L 12.890625 25.390625 
L 37.796875 25.390625 
z
M 35.203125 72.90625 
L 47.609375 72.90625 
L 47.609375 25.390625 
L 58.015625 25.390625 
L 58.015625 17.1875 
L 47.609375 17.1875 
L 47.609375 0 
L 37.796875 0 
L 37.796875 17.1875 
L 4.890625 17.1875 
L 4.890625 26.703125 
z
" id="DejaVuSans-34"/>
      </defs>
      <g transform="translate(336.186071 296.729344)scale(0.17 -0.17)">
       <use xlink:href="#DejaVuSans-34"/>
       <use x="63.623047" xlink:href="#DejaVuSans-30"/>
       <use x="127.246094" xlink:href="#DejaVuSans-30"/>
      </g>
     </g>
    </g>
    <g id="xtick_6">
     <g id="line2d_11">
      <path clip-path="url(#paa3c1fc632)" d="M 417.471477 276.812 
L 417.471477 10.7 
" style="fill:none;stroke:#b0b0b0;stroke-linecap:square;stroke-width:0.8;"/>
     </g>
     <g id="line2d_12">
      <g>
       <use style="stroke:#000000;stroke-width:0.8;" x="417.471477" xlink:href="#mb6039faf64" y="276.812"/>
      </g>
     </g>
     <g id="text_6">
      <!-- 500 -->
      <defs>
       <path d="M 10.796875 72.90625 
L 49.515625 72.90625 
L 49.515625 64.59375 
L 19.828125 64.59375 
L 19.828125 46.734375 
Q 21.96875 47.46875 24.109375 47.828125 
Q 26.265625 48.1875 28.421875 48.1875 
Q 40.625 48.1875 47.75 41.5 
Q 54.890625 34.8125 54.890625 23.390625 
Q 54.890625 11.625 47.5625 5.09375 
Q 40.234375 -1.421875 26.90625 -1.421875 
Q 22.3125 -1.421875 17.546875 -0.640625 
Q 12.796875 0.140625 7.71875 1.703125 
L 7.71875 11.625 
Q 12.109375 9.234375 16.796875 8.0625 
Q 21.484375 6.890625 26.703125 6.890625 
Q 35.15625 6.890625 40.078125 11.328125 
Q 45.015625 15.765625 45.015625 23.390625 
Q 45.015625 31 40.078125 35.4375 
Q 35.15625 39.890625 26.703125 39.890625 
Q 22.75 39.890625 18.8125 39.015625 
Q 14.890625 38.140625 10.796875 36.28125 
z
" id="DejaVuSans-35"/>
      </defs>
      <g transform="translate(401.247102 296.729344)scale(0.17 -0.17)">
       <use xlink:href="#DejaVuSans-35"/>
       <use x="63.623047" xlink:href="#DejaVuSans-30"/>
       <use x="127.246094" xlink:href="#DejaVuSans-30"/>
      </g>
     </g>
    </g>
    <g id="text_7">
     <!-- Number of iterations -->
     <defs>
      <path d="M 9.8125 72.90625 
L 23.09375 72.90625 
L 55.421875 11.921875 
L 55.421875 72.90625 
L 64.984375 72.90625 
L 64.984375 0 
L 51.703125 0 
L 19.390625 60.984375 
L 19.390625 0 
L 9.8125 0 
z
" id="DejaVuSans-4e"/>
      <path d="M 8.5 21.578125 
L 8.5 54.6875 
L 17.484375 54.6875 
L 17.484375 21.921875 
Q 17.484375 14.15625 20.5 10.265625 
Q 23.53125 6.390625 29.59375 6.390625 
Q 36.859375 6.390625 41.078125 11.03125 
Q 45.3125 15.671875 45.3125 23.6875 
L 45.3125 54.6875 
L 54.296875 54.6875 
L 54.296875 0 
L 45.3125 0 
L 45.3125 8.40625 
Q 42.046875 3.421875 37.71875 1 
Q 33.40625 -1.421875 27.6875 -1.421875 
Q 18.265625 -1.421875 13.375 4.4375 
Q 8.5 10.296875 8.5 21.578125 
z
M 31.109375 56 
z
" id="DejaVuSans-75"/>
      <path d="M 52 44.1875 
Q 55.375 50.25 60.0625 53.125 
Q 64.75 56 71.09375 56 
Q 79.640625 56 84.28125 50.015625 
Q 88.921875 44.046875 88.921875 33.015625 
L 88.921875 0 
L 79.890625 0 
L 79.890625 32.71875 
Q 79.890625 40.578125 77.09375 44.375 
Q 74.3125 48.1875 68.609375 48.1875 
Q 61.625 48.1875 57.5625 43.546875 
Q 53.515625 38.921875 53.515625 30.90625 
L 53.515625 0 
L 44.484375 0 
L 44.484375 32.71875 
Q 44.484375 40.625 41.703125 44.40625 
Q 38.921875 48.1875 33.109375 48.1875 
Q 26.21875 48.1875 22.15625 43.53125 
Q 18.109375 38.875 18.109375 30.90625 
L 18.109375 0 
L 9.078125 0 
L 9.078125 54.6875 
L 18.109375 54.6875 
L 18.109375 46.1875 
Q 21.1875 51.21875 25.484375 53.609375 
Q 29.78125 56 35.6875 56 
Q 41.65625 56 45.828125 52.96875 
Q 50 49.953125 52 44.1875 
z
" id="DejaVuSans-6d"/>
      <path d="M 48.6875 27.296875 
Q 48.6875 37.203125 44.609375 42.84375 
Q 40.53125 48.484375 33.40625 48.484375 
Q 26.265625 48.484375 22.1875 42.84375 
Q 18.109375 37.203125 18.109375 27.296875 
Q 18.109375 17.390625 22.1875 11.75 
Q 26.265625 6.109375 33.40625 6.109375 
Q 40.53125 6.109375 44.609375 11.75 
Q 48.6875 17.390625 48.6875 27.296875 
z
M 18.109375 46.390625 
Q 20.953125 51.265625 25.265625 53.625 
Q 29.59375 56 35.59375 56 
Q 45.5625 56 51.78125 48.09375 
Q 58.015625 40.1875 58.015625 27.296875 
Q 58.015625 14.40625 51.78125 6.484375 
Q 45.5625 -1.421875 35.59375 -1.421875 
Q 29.59375 -1.421875 25.265625 0.953125 
Q 20.953125 3.328125 18.109375 8.203125 
L 18.109375 0 
L 9.078125 0 
L 9.078125 75.984375 
L 18.109375 75.984375 
z
" id="DejaVuSans-62"/>
      <path d="M 56.203125 29.59375 
L 56.203125 25.203125 
L 14.890625 25.203125 
Q 15.484375 15.921875 20.484375 11.0625 
Q 25.484375 6.203125 34.421875 6.203125 
Q 39.59375 6.203125 44.453125 7.46875 
Q 49.3125 8.734375 54.109375 11.28125 
L 54.109375 2.78125 
Q 49.265625 0.734375 44.1875 -0.34375 
Q 39.109375 -1.421875 33.890625 -1.421875 
Q 20.796875 -1.421875 13.15625 6.1875 
Q 5.515625 13.8125 5.515625 26.8125 
Q 5.515625 40.234375 12.765625 48.109375 
Q 20.015625 56 32.328125 56 
Q 43.359375 56 49.78125 48.890625 
Q 56.203125 41.796875 56.203125 29.59375 
z
M 47.21875 32.234375 
Q 47.125 39.59375 43.09375 43.984375 
Q 39.0625 48.390625 32.421875 48.390625 
Q 24.90625 48.390625 20.390625 44.140625 
Q 15.875 39.890625 15.1875 32.171875 
z
" id="DejaVuSans-65"/>
      <path d="M 41.109375 46.296875 
Q 39.59375 47.171875 37.8125 47.578125 
Q 36.03125 48 33.890625 48 
Q 26.265625 48 22.1875 43.046875 
Q 18.109375 38.09375 18.109375 28.8125 
L 18.109375 0 
L 9.078125 0 
L 9.078125 54.6875 
L 18.109375 54.6875 
L 18.109375 46.1875 
Q 20.953125 51.171875 25.484375 53.578125 
Q 30.03125 56 36.53125 56 
Q 37.453125 56 38.578125 55.875 
Q 39.703125 55.765625 41.0625 55.515625 
z
" id="DejaVuSans-72"/>
      <path id="DejaVuSans-20"/>
      <path d="M 30.609375 48.390625 
Q 23.390625 48.390625 19.1875 42.75 
Q 14.984375 37.109375 14.984375 27.296875 
Q 14.984375 17.484375 19.15625 11.84375 
Q 23.34375 6.203125 30.609375 6.203125 
Q 37.796875 6.203125 41.984375 11.859375 
Q 46.1875 17.53125 46.1875 27.296875 
Q 46.1875 37.015625 41.984375 42.703125 
Q 37.796875 48.390625 30.609375 48.390625 
z
M 30.609375 56 
Q 42.328125 56 49.015625 48.375 
Q 55.71875 40.765625 55.71875 27.296875 
Q 55.71875 13.875 49.015625 6.21875 
Q 42.328125 -1.421875 30.609375 -1.421875 
Q 18.84375 -1.421875 12.171875 6.21875 
Q 5.515625 13.875 5.515625 27.296875 
Q 5.515625 40.765625 12.171875 48.375 
Q 18.84375 56 30.609375 56 
z
" id="DejaVuSans-6f"/>
      <path d="M 37.109375 75.984375 
L 37.109375 68.5 
L 28.515625 68.5 
Q 23.6875 68.5 21.796875 66.546875 
Q 19.921875 64.59375 19.921875 59.515625 
L 19.921875 54.6875 
L 34.71875 54.6875 
L 34.71875 47.703125 
L 19.921875 47.703125 
L 19.921875 0 
L 10.890625 0 
L 10.890625 47.703125 
L 2.296875 47.703125 
L 2.296875 54.6875 
L 10.890625 54.6875 
L 10.890625 58.5 
Q 10.890625 67.625 15.140625 71.796875 
Q 19.390625 75.984375 28.609375 75.984375 
z
" id="DejaVuSans-66"/>
      <path d="M 9.421875 54.6875 
L 18.40625 54.6875 
L 18.40625 0 
L 9.421875 0 
z
M 9.421875 75.984375 
L 18.40625 75.984375 
L 18.40625 64.59375 
L 9.421875 64.59375 
z
" id="DejaVuSans-69"/>
      <path d="M 18.3125 70.21875 
L 18.3125 54.6875 
L 36.8125 54.6875 
L 36.8125 47.703125 
L 18.3125 47.703125 
L 18.3125 18.015625 
Q 18.3125 11.328125 20.140625 9.421875 
Q 21.96875 7.515625 27.59375 7.515625 
L 36.8125 7.515625 
L 36.8125 0 
L 27.59375 0 
Q 17.1875 0 13.234375 3.875 
Q 9.28125 7.765625 9.28125 18.015625 
L 9.28125 47.703125 
L 2.6875 47.703125 
L 2.6875 54.6875 
L 9.28125 54.6875 
L 9.28125 70.21875 
z
" id="DejaVuSans-74"/>
      <path d="M 34.28125 27.484375 
Q 23.390625 27.484375 19.1875 25 
Q 14.984375 22.515625 14.984375 16.5 
Q 14.984375 11.71875 18.140625 8.90625 
Q 21.296875 6.109375 26.703125 6.109375 
Q 34.1875 6.109375 38.703125 11.40625 
Q 43.21875 16.703125 43.21875 25.484375 
L 43.21875 27.484375 
z
M 52.203125 31.203125 
L 52.203125 0 
L 43.21875 0 
L 43.21875 8.296875 
Q 40.140625 3.328125 35.546875 0.953125 
Q 30.953125 -1.421875 24.3125 -1.421875 
Q 15.921875 -1.421875 10.953125 3.296875 
Q 6 8.015625 6 15.921875 
Q 6 25.140625 12.171875 29.828125 
Q 18.359375 34.515625 30.609375 34.515625 
L 43.21875 34.515625 
L 43.21875 35.40625 
Q 43.21875 41.609375 39.140625 45 
Q 35.0625 48.390625 27.6875 48.390625 
Q 23 48.390625 18.546875 47.265625 
Q 14.109375 46.140625 10.015625 43.890625 
L 10.015625 52.203125 
Q 14.9375 54.109375 19.578125 55.046875 
Q 24.21875 56 28.609375 56 
Q 40.484375 56 46.34375 49.84375 
Q 52.203125 43.703125 52.203125 31.203125 
z
" id="DejaVuSans-61"/>
      <path d="M 54.890625 33.015625 
L 54.890625 0 
L 45.90625 0 
L 45.90625 32.71875 
Q 45.90625 40.484375 42.875 44.328125 
Q 39.84375 48.1875 33.796875 48.1875 
Q 26.515625 48.1875 22.3125 43.546875 
Q 18.109375 38.921875 18.109375 30.90625 
L 18.109375 0 
L 9.078125 0 
L 9.078125 54.6875 
L 18.109375 54.6875 
L 18.109375 46.1875 
Q 21.34375 51.125 25.703125 53.5625 
Q 30.078125 56 35.796875 56 
Q 45.21875 56 50.046875 50.171875 
Q 54.890625 44.34375 54.890625 33.015625 
z
" id="DejaVuSans-6e"/>
      <path d="M 44.28125 53.078125 
L 44.28125 44.578125 
Q 40.484375 46.53125 36.375 47.5 
Q 32.28125 48.484375 27.875 48.484375 
Q 21.1875 48.484375 17.84375 46.4375 
Q 14.5 44.390625 14.5 40.28125 
Q 14.5 37.15625 16.890625 35.375 
Q 19.28125 33.59375 26.515625 31.984375 
L 29.59375 31.296875 
Q 39.15625 29.25 43.1875 25.515625 
Q 47.21875 21.78125 47.21875 15.09375 
Q 47.21875 7.46875 41.1875 3.015625 
Q 35.15625 -1.421875 24.609375 -1.421875 
Q 20.21875 -1.421875 15.453125 -0.5625 
Q 10.6875 0.296875 5.421875 2 
L 5.421875 11.28125 
Q 10.40625 8.6875 15.234375 7.390625 
Q 20.0625 6.109375 24.8125 6.109375 
Q 31.15625 6.109375 34.5625 8.28125 
Q 37.984375 10.453125 37.984375 14.40625 
Q 37.984375 18.0625 35.515625 20.015625 
Q 33.0625 21.96875 24.703125 23.78125 
L 21.578125 24.515625 
Q 13.234375 26.265625 9.515625 29.90625 
Q 5.8125 33.546875 5.8125 39.890625 
Q 5.8125 47.609375 11.28125 51.796875 
Q 16.75 56 26.8125 56 
Q 31.78125 56 36.171875 55.265625 
Q 40.578125 54.546875 44.28125 53.078125 
z
" id="DejaVuSans-73"/>
     </defs>
     <g transform="translate(166.415 317.182156)scale(0.17 -0.17)">
      <use xlink:href="#DejaVuSans-4e"/>
      <use x="74.804688" xlink:href="#DejaVuSans-75"/>
      <use x="138.183594" xlink:href="#DejaVuSans-6d"/>
      <use x="235.595703" xlink:href="#DejaVuSans-62"/>
      <use x="299.072266" xlink:href="#DejaVuSans-65"/>
      <use x="360.595703" xlink:href="#DejaVuSans-72"/>
      <use x="401.708984" xlink:href="#DejaVuSans-20"/>
      <use x="433.496094" xlink:href="#DejaVuSans-6f"/>
      <use x="494.677734" xlink:href="#DejaVuSans-66"/>
      <use x="529.882812" xlink:href="#DejaVuSans-20"/>
      <use x="561.669922" xlink:href="#DejaVuSans-69"/>
      <use x="589.453125" xlink:href="#DejaVuSans-74"/>
      <use x="628.662109" xlink:href="#DejaVuSans-65"/>
      <use x="690.185547" xlink:href="#DejaVuSans-72"/>
      <use x="731.298828" xlink:href="#DejaVuSans-61"/>
      <use x="792.578125" xlink:href="#DejaVuSans-74"/>
      <use x="831.787109" xlink:href="#DejaVuSans-69"/>
      <use x="859.570312" xlink:href="#DejaVuSans-6f"/>
      <use x="920.751953" xlink:href="#DejaVuSans-6e"/>
      <use x="984.130859" xlink:href="#DejaVuSans-73"/>
     </g>
    </g>
   </g>
   <g id="matplotlib.axis_2">
    <g id="ytick_1">
     <g id="line2d_13">
      <path clip-path="url(#paa3c1fc632)" d="M 75.933594 275.346167 
L 433.053594 275.346167 
" style="fill:none;stroke:#b0b0b0;stroke-linecap:square;stroke-width:0.8;"/>
     </g>
     <g id="line2d_14">
      <defs>
       <path d="M 0 0 
L -3.5 0 
" id="m3f87aaa28a" style="stroke:#000000;stroke-width:0.8;"/>
      </defs>
      <g>
       <use style="stroke:#000000;stroke-width:0.8;" x="75.933594" xlink:href="#m3f87aaa28a" y="275.346167"/>
      </g>
     </g>
     <g id="text_8">
      <!-- −0.5 -->
      <defs>
       <path d="M 10.59375 35.5 
L 73.1875 35.5 
L 73.1875 27.203125 
L 10.59375 27.203125 
z
" id="DejaVuSans-2212"/>
       <path d="M 10.6875 12.40625 
L 21 12.40625 
L 21 0 
L 10.6875 0 
z
" id="DejaVuSans-2e"/>
      </defs>
      <g transform="translate(27.652813 281.804839)scale(0.17 -0.17)">
       <use xlink:href="#DejaVuSans-2212"/>
       <use x="83.789062" xlink:href="#DejaVuSans-30"/>
       <use x="147.412109" xlink:href="#DejaVuSans-2e"/>
       <use x="179.199219" xlink:href="#DejaVuSans-35"/>
      </g>
     </g>
    </g>
    <g id="ytick_2">
     <g id="line2d_15">
      <path clip-path="url(#paa3c1fc632)" d="M 75.933594 223.032353 
L 433.053594 223.032353 
" style="fill:none;stroke:#b0b0b0;stroke-linecap:square;stroke-width:0.8;"/>
     </g>
     <g id="line2d_16">
      <g>
       <use style="stroke:#000000;stroke-width:0.8;" x="75.933594" xlink:href="#m3f87aaa28a" y="223.032353"/>
      </g>
     </g>
     <g id="text_9">
      <!-- 0.0 -->
      <g transform="translate(41.898281 229.491025)scale(0.17 -0.17)">
       <use xlink:href="#DejaVuSans-30"/>
       <use x="63.623047" xlink:href="#DejaVuSans-2e"/>
       <use x="95.410156" xlink:href="#DejaVuSans-30"/>
      </g>
     </g>
    </g>
    <g id="ytick_3">
     <g id="line2d_17">
      <path clip-path="url(#paa3c1fc632)" d="M 75.933594 170.71854 
L 433.053594 170.71854 
" style="fill:none;stroke:#b0b0b0;stroke-linecap:square;stroke-width:0.8;"/>
     </g>
     <g id="line2d_18">
      <g>
       <use style="stroke:#000000;stroke-width:0.8;" x="75.933594" xlink:href="#m3f87aaa28a" y="170.71854"/>
      </g>
     </g>
     <g id="text_10">
      <!-- 0.5 -->
      <g transform="translate(41.898281 177.177211)scale(0.17 -0.17)">
       <use xlink:href="#DejaVuSans-30"/>
       <use x="63.623047" xlink:href="#DejaVuSans-2e"/>
       <use x="95.410156" xlink:href="#DejaVuSans-35"/>
      </g>
     </g>
    </g>
    <g id="ytick_4">
     <g id="line2d_19">
      <path clip-path="url(#paa3c1fc632)" d="M 75.933594 118.404726 
L 433.053594 118.404726 
" style="fill:none;stroke:#b0b0b0;stroke-linecap:square;stroke-width:0.8;"/>
     </g>
     <g id="line2d_20">
      <g>
       <use style="stroke:#000000;stroke-width:0.8;" x="75.933594" xlink:href="#m3f87aaa28a" y="118.404726"/>
      </g>
     </g>
     <g id="text_11">
      <!-- 1.0 -->
      <g transform="translate(41.898281 124.863398)scale(0.17 -0.17)">
       <use xlink:href="#DejaVuSans-31"/>
       <use x="63.623047" xlink:href="#DejaVuSans-2e"/>
       <use x="95.410156" xlink:href="#DejaVuSans-30"/>
      </g>
     </g>
    </g>
    <g id="ytick_5">
     <g id="line2d_21">
      <path clip-path="url(#paa3c1fc632)" d="M 75.933594 66.090912 
L 433.053594 66.090912 
" style="fill:none;stroke:#b0b0b0;stroke-linecap:square;stroke-width:0.8;"/>
     </g>
     <g id="line2d_22">
      <g>
       <use style="stroke:#000000;stroke-width:0.8;" x="75.933594" xlink:href="#m3f87aaa28a" y="66.090912"/>
      </g>
     </g>
     <g id="text_12">
      <!-- 1.5 -->
      <g transform="translate(41.898281 72.549584)scale(0.17 -0.17)">
       <use xlink:href="#DejaVuSans-31"/>
       <use x="63.623047" xlink:href="#DejaVuSans-2e"/>
       <use x="95.410156" xlink:href="#DejaVuSans-35"/>
      </g>
     </g>
    </g>
    <g id="ytick_6">
     <g id="line2d_23">
      <path clip-path="url(#paa3c1fc632)" d="M 75.933594 13.777099 
L 433.053594 13.777099 
" style="fill:none;stroke:#b0b0b0;stroke-linecap:square;stroke-width:0.8;"/>
     </g>
     <g id="line2d_24">
      <g>
       <use style="stroke:#000000;stroke-width:0.8;" x="75.933594" xlink:href="#m3f87aaa28a" y="13.777099"/>
      </g>
     </g>
     <g id="text_13">
      <!-- 2.0 -->
      <g transform="translate(41.898281 20.23577)scale(0.17 -0.17)">
       <use xlink:href="#DejaVuSans-32"/>
       <use x="63.623047" xlink:href="#DejaVuSans-2e"/>
       <use x="95.410156" xlink:href="#DejaVuSans-30"/>
      </g>
     </g>
    </g>
    <g id="text_14">
     <!-- Reactive power (pu) -->
     <defs>
      <path d="M 44.390625 34.1875 
Q 47.5625 33.109375 50.5625 29.59375 
Q 53.5625 26.078125 56.59375 19.921875 
L 66.609375 0 
L 56 0 
L 46.6875 18.703125 
Q 43.0625 26.03125 39.671875 28.421875 
Q 36.28125 30.8125 30.421875 30.8125 
L 19.671875 30.8125 
L 19.671875 0 
L 9.8125 0 
L 9.8125 72.90625 
L 32.078125 72.90625 
Q 44.578125 72.90625 50.734375 67.671875 
Q 56.890625 62.453125 56.890625 51.90625 
Q 56.890625 45.015625 53.6875 40.46875 
Q 50.484375 35.9375 44.390625 34.1875 
z
M 19.671875 64.796875 
L 19.671875 38.921875 
L 32.078125 38.921875 
Q 39.203125 38.921875 42.84375 42.21875 
Q 46.484375 45.515625 46.484375 51.90625 
Q 46.484375 58.296875 42.84375 61.546875 
Q 39.203125 64.796875 32.078125 64.796875 
z
" id="DejaVuSans-52"/>
      <path d="M 48.78125 52.59375 
L 48.78125 44.1875 
Q 44.96875 46.296875 41.140625 47.34375 
Q 37.3125 48.390625 33.40625 48.390625 
Q 24.65625 48.390625 19.8125 42.84375 
Q 14.984375 37.3125 14.984375 27.296875 
Q 14.984375 17.28125 19.8125 11.734375 
Q 24.65625 6.203125 33.40625 6.203125 
Q 37.3125 6.203125 41.140625 7.25 
Q 44.96875 8.296875 48.78125 10.40625 
L 48.78125 2.09375 
Q 45.015625 0.34375 40.984375 -0.53125 
Q 36.96875 -1.421875 32.421875 -1.421875 
Q 20.0625 -1.421875 12.78125 6.34375 
Q 5.515625 14.109375 5.515625 27.296875 
Q 5.515625 40.671875 12.859375 48.328125 
Q 20.21875 56 33.015625 56 
Q 37.15625 56 41.109375 55.140625 
Q 45.0625 54.296875 48.78125 52.59375 
z
" id="DejaVuSans-63"/>
      <path d="M 2.984375 54.6875 
L 12.5 54.6875 
L 29.59375 8.796875 
L 46.6875 54.6875 
L 56.203125 54.6875 
L 35.6875 0 
L 23.484375 0 
z
" id="DejaVuSans-76"/>
      <path d="M 18.109375 8.203125 
L 18.109375 -20.796875 
L 9.078125 -20.796875 
L 9.078125 54.6875 
L 18.109375 54.6875 
L 18.109375 46.390625 
Q 20.953125 51.265625 25.265625 53.625 
Q 29.59375 56 35.59375 56 
Q 45.5625 56 51.78125 48.09375 
Q 58.015625 40.1875 58.015625 27.296875 
Q 58.015625 14.40625 51.78125 6.484375 
Q 45.5625 -1.421875 35.59375 -1.421875 
Q 29.59375 -1.421875 25.265625 0.953125 
Q 20.953125 3.328125 18.109375 8.203125 
z
M 48.6875 27.296875 
Q 48.6875 37.203125 44.609375 42.84375 
Q 40.53125 48.484375 33.40625 48.484375 
Q 26.265625 48.484375 22.1875 42.84375 
Q 18.109375 37.203125 18.109375 27.296875 
Q 18.109375 17.390625 22.1875 11.75 
Q 26.265625 6.109375 33.40625 6.109375 
Q 40.53125 6.109375 44.609375 11.75 
Q 48.6875 17.390625 48.6875 27.296875 
z
" id="DejaVuSans-70"/>
      <path d="M 4.203125 54.6875 
L 13.1875 54.6875 
L 24.421875 12.015625 
L 35.59375 54.6875 
L 46.1875 54.6875 
L 57.421875 12.015625 
L 68.609375 54.6875 
L 77.59375 54.6875 
L 63.28125 0 
L 52.6875 0 
L 40.921875 44.828125 
L 29.109375 0 
L 18.5 0 
z
" id="DejaVuSans-77"/>
      <path d="M 31 75.875 
Q 24.46875 64.65625 21.28125 53.65625 
Q 18.109375 42.671875 18.109375 31.390625 
Q 18.109375 20.125 21.3125 9.0625 
Q 24.515625 -2 31 -13.1875 
L 23.1875 -13.1875 
Q 15.875 -1.703125 12.234375 9.375 
Q 8.59375 20.453125 8.59375 31.390625 
Q 8.59375 42.28125 12.203125 53.3125 
Q 15.828125 64.359375 23.1875 75.875 
z
" id="DejaVuSans-28"/>
      <path d="M 8.015625 75.875 
L 15.828125 75.875 
Q 23.140625 64.359375 26.78125 53.3125 
Q 30.421875 42.28125 30.421875 31.390625 
Q 30.421875 20.453125 26.78125 9.375 
Q 23.140625 -1.703125 15.828125 -13.1875 
L 8.015625 -13.1875 
Q 14.5 -2 17.703125 9.0625 
Q 20.90625 20.125 20.90625 31.390625 
Q 20.90625 42.671875 17.703125 53.65625 
Q 14.5 64.65625 8.015625 75.875 
z
" id="DejaVuSans-29"/>
     </defs>
     <g transform="translate(20.117344 229.815844)rotate(-90)scale(0.17 -0.17)">
      <use xlink:href="#DejaVuSans-52"/>
      <use x="69.419922" xlink:href="#DejaVuSans-65"/>
      <use x="130.943359" xlink:href="#DejaVuSans-61"/>
      <use x="192.222656" xlink:href="#DejaVuSans-63"/>
      <use x="247.203125" xlink:href="#DejaVuSans-74"/>
      <use x="286.412109" xlink:href="#DejaVuSans-69"/>
      <use x="314.195312" xlink:href="#DejaVuSans-76"/>
      <use x="373.375" xlink:href="#DejaVuSans-65"/>
      <use x="434.898438" xlink:href="#DejaVuSans-20"/>
      <use x="466.685547" xlink:href="#DejaVuSans-70"/>
      <use x="530.162109" xlink:href="#DejaVuSans-6f"/>
      <use x="591.34375" xlink:href="#DejaVuSans-77"/>
      <use x="673.130859" xlink:href="#DejaVuSans-65"/>
      <use x="734.654297" xlink:href="#DejaVuSans-72"/>
      <use x="775.767578" xlink:href="#DejaVuSans-20"/>
      <use x="807.554688" xlink:href="#DejaVuSans-28"/>
      <use x="846.568359" xlink:href="#DejaVuSans-70"/>
      <use x="910.044922" xlink:href="#DejaVuSans-75"/>
      <use x="973.423828" xlink:href="#DejaVuSans-29"/>
     </g>
    </g>
   </g>
   <g id="line2d_25">
    <path clip-path="url(#paa3c1fc632)" d="M 92.166321 223.032353 
L 92.816931 84.065939 
L 93.467542 22.796 
L 94.118152 26.342877 
L 94.768762 31.176673 
L 95.419373 44.024946 
L 96.069983 70.767767 
L 96.720593 83.490487 
L 97.371204 83.877609 
L 98.672424 77.74643 
L 99.323034 75.24583 
L 99.973645 72.263942 
L 101.274865 97.426887 
L 101.925476 113.665094 
L 102.576086 125.111357 
L 103.226696 249.440366 
L 103.877307 169.149125 
L 104.527917 231.821074 
L 105.178527 228.765947 
L 105.829138 227.67782 
L 106.479748 195.693154 
L 107.130358 118.57213 
L 107.780968 77.317457 
L 108.431579 75.66434 
L 110.38341 75.371383 
L 111.68463 114.878775 
L 112.985851 139.853389 
L 113.636461 169.43162 
L 114.937682 218.083466 
L 115.588292 217.811435 
L 116.238903 214.588904 
L 116.889513 192.313682 
L 118.190733 156.740289 
L 118.841344 146.120584 
L 119.491954 141.496043 
L 120.142564 142.113346 
L 120.793175 146.120584 
L 122.094395 157.127411 
L 122.745006 161.647324 
L 123.395616 164.817541 
L 124.046226 166.826392 
L 124.696837 167.977296 
L 125.998057 169.316529 
L 129.251109 172.30888 
L 129.901719 172.570449 
L 130.552329 172.675076 
L 131.20294 172.559986 
L 131.85355 172.183326 
L 132.50416 170.781316 
L 133.805381 164.231627 
L 135.106602 158.79099 
L 136.407822 154.616348 
L 137.709043 151.613535 
L 139.010263 149.374504 
L 141.612705 145.063845 
L 143.564536 140.669485 
L 144.865756 138.315363 
L 146.166977 136.36929 
L 146.817587 135.595045 
L 147.468198 135.019593 
L 148.118808 134.642934 
L 148.769418 134.475529 
L 149.420028 134.538306 
L 150.070639 134.820801 
L 150.721249 135.323013 
L 151.371859 135.99263 
L 152.67308 137.802688 
L 154.624911 141.119384 
L 158.528573 148.349153 
L 161.131014 153.727013 
L 161.781624 154.564034 
L 162.432235 155.11856 
L 163.082845 155.380129 
L 164.384066 155.411518 
L 166.335897 154.940693 
L 167.637117 155.453369 
L 170.239558 156.813528 
L 171.540779 157.347129 
L 174.14322 158.069059 
L 177.396272 159.000245 
L 181.299934 160.203463 
L 189.107257 162.222776 
L 197.565191 164.158387 
L 217.083501 167.820354 
L 229.445097 169.703652 
L 252.216458 172.528598 
L 262.626223 173.627188 
L 264.578054 173.794592 
L 265.879274 173.920145 
L 272.385377 174.547911 
L 288.650635 175.918533 
L 289.301245 176.02316 
L 290.602466 176.075474 
L 299.71101 176.734628 
L 301.662841 176.902032 
L 341.35007 179.371244 
L 342.651291 179.413095 
L 350.458615 179.842069 
L 353.061056 179.946696 
L 379.736079 181.149914 
L 382.33852 181.244079 
L 395.350726 181.735829 
L 396.001337 181.850919 
L 396.651947 181.746291 
L 397.953167 181.882307 
L 399.254388 181.882307 
L 403.80866 182.049712 
L 404.459271 182.164802 
L 405.109881 182.0811 
L 409.013543 182.227579 
L 416.170256 182.468222 
L 416.170256 182.468222 
" style="fill:none;stroke:#1f77b4;stroke-linecap:square;stroke-width:0.5;"/>
   </g>
   <g id="line2d_26">
    <path clip-path="url(#paa3c1fc632)" d="M 92.816931 84.03455 
L 93.467542 22.806463 
L 94.118152 30.130397 
L 94.768762 32.662385 
L 95.419373 43.198387 
L 96.069983 70.160927 
L 96.720593 84.725093 
L 97.371204 83.5428 
L 98.672424 71.489698 
L 99.323034 68.905395 
L 99.973645 70.841006 
L 101.925476 125.582181 
L 102.576086 158.267852 
L 103.226696 250.633121 
L 103.877307 238.538168 
L 104.527917 233.871775 
L 105.829138 228.786873 
L 107.130358 129.306925 
L 107.780968 95.721456 
L 108.431579 83.605577 
L 109.732799 90.291282 
L 110.38341 106.843373 
L 111.03402 120.141545 
L 111.68463 128.145558 
L 114.287072 181.683515 
L 114.937682 187.751917 
L 115.588292 186.873045 
L 116.238903 180.291967 
L 117.540123 163.384143 
L 118.190733 157.776102 
L 118.841344 155.380129 
L 119.491954 155.850954 
L 120.142564 158.257389 
L 121.443785 164.524584 
L 122.094395 166.847317 
L 122.745006 168.123774 
L 123.395616 168.688764 
L 124.696837 169.065423 
L 125.347447 169.693189 
L 125.998057 170.823167 
L 126.648668 172.476284 
L 127.299278 174.453746 
L 128.600498 178.984122 
L 129.251109 180.480297 
L 129.901719 181.369632 
L 130.552329 181.77768 
L 131.20294 181.861382 
L 131.85355 179.747904 
L 134.455991 164.001446 
L 135.757212 158.173687 
L 136.407822 156.060209 
L 137.058433 154.417555 
L 137.709043 153.10971 
L 139.010263 150.881141 
L 140.962094 144.394229 
L 142.263315 140.899666 
L 143.564536 138.106108 
L 144.215146 137.080757 
L 144.865756 136.36929 
L 145.516367 135.940316 
L 146.166977 135.856614 
L 146.817587 136.076332 
L 147.468198 136.620396 
L 148.118808 137.415566 
L 149.420028 139.759225 
L 150.721249 142.793426 
L 152.67308 148.045733 
L 153.974301 152.052971 
L 155.275521 156.604273 
L 156.576742 160.088373 
L 157.227352 161.312516 
L 157.877962 162.191388 
L 158.528573 162.756377 
L 159.829793 163.331829 
L 161.131014 163.813116 
L 161.781624 164.263015 
L 162.432235 164.943095 
L 163.082845 165.853355 
L 164.384066 168.416732 
L 167.637117 175.960384 
L 168.938338 178.199415 
L 169.588948 178.827181 
L 172.191389 177.812293 
L 173.49261 177.6135 
L 174.793831 177.718128 
L 179.348103 178.680702 
L 181.950544 178.952734 
L 201.468853 180.741866 
L 233.348759 182.740254 
L 234.649979 182.761179 
L 258.07195 183.78653 
L 263.927443 183.985323 
L 271.084157 184.236429 
L 278.89148 184.46661 
L 284.746973 184.644477 
L 294.506128 184.906046 
L 306.867724 185.199003 
L 312.072606 185.293168 
L 320.53054 185.460572 
L 373.880586 186.287131 
L 374.531196 186.203428 
L 375.832417 186.245279 
L 383.639741 186.318519 
L 385.591572 186.349907 
L 396.651947 186.433609 
L 399.254388 186.47546 
L 401.856829 186.47546 
L 413.567815 186.569625 
L 416.170256 186.580088 
L 416.820866 186.580088 
L 416.820866 186.580088 
" style="fill:none;stroke:#ff7f0e;stroke-linecap:square;stroke-width:0.5;"/>
   </g>
   <g id="line2d_27">
    <path clip-path="url(#paa3c1fc632)" d="M 92.816931 84.03455 
L 93.467542 22.806463 
L 94.118152 30.140859 
L 94.768762 34.713087 
L 95.419373 43.972632 
L 96.069983 68.811231 
L 96.720593 85.708592 
L 97.371204 84.704167 
L 98.672424 68.183465 
L 99.323034 65.055099 
L 99.973645 69.323906 
L 101.925476 127.988617 
L 102.576086 208.834384 
L 103.226696 249.544994 
L 103.877307 231.475803 
L 104.527917 232.658095 
L 105.178527 231.099143 
L 105.829138 199.00985 
L 106.479748 144.990606 
L 107.130358 110.526266 
L 107.780968 89.422873 
L 108.431579 88.847421 
L 109.082189 92.17458 
L 110.38341 118.718609 
L 111.68463 137.227236 
L 112.985851 158.194613 
L 113.636461 169.306067 
L 114.287072 178.011085 
L 114.937682 182.070637 
L 115.588292 181.149914 
L 116.238903 176.807867 
L 116.889513 171.293992 
L 117.540123 166.763615 
L 118.190733 164.367643 
L 118.841344 164.200238 
L 119.491954 166.073073 
L 121.443785 173.909682 
L 122.094395 175.248916 
L 122.745006 175.730203 
L 124.046226 175.489559 
L 124.696837 175.646501 
L 125.347447 176.410283 
L 125.998057 177.833218 
L 126.648668 179.852531 
L 127.949888 185.544274 
L 128.600498 187.406646 
L 129.251109 188.484311 
L 129.901719 188.902821 
L 130.552329 188.850507 
L 131.20294 187.657752 
L 133.805381 169.557173 
L 135.106602 162.442494 
L 135.757212 159.816341 
L 136.407822 157.765639 
L 137.709043 154.710513 
L 139.660874 146.047345 
L 140.962094 141.433267 
L 142.263315 137.917778 
L 142.913925 136.704098 
L 143.564536 135.888002 
L 144.215146 135.490417 
L 144.865756 135.490417 
L 145.516367 135.87754 
L 146.166977 136.630859 
L 146.817587 137.729449 
L 147.468198 139.100071 
L 148.769418 142.54232 
L 150.721249 148.694424 
L 151.371859 150.985769 
L 153.32369 159.010708 
L 153.974301 161.1765 
L 154.624911 162.934244 
L 155.275521 164.221164 
L 155.926132 165.047722 
L 156.576742 165.476695 
L 157.227352 165.685951 
L 158.528573 165.87428 
L 159.179183 166.386956 
L 159.829793 167.286753 
L 160.480404 168.615524 
L 161.781624 172.036848 
L 163.733455 177.529798 
L 165.034676 180.658164 
L 166.335897 183.200616 
L 168.287727 186.381295 
L 168.938338 187.113689 
L 170.239558 188.934209 
L 172.191389 191.581288 
L 172.842 192.093964 
L 174.14322 191.654528 
L 176.745662 190.179278 
L 178.046882 189.813082 
L 179.348103 189.666603 
L 182.601154 189.405034 
L 186.504816 188.881896 
L 188.456647 188.651715 
L 195.613361 188.034412 
L 199.517022 187.804231 
L 203.420684 187.594976 
L 226.842656 186.946285 
L 227.493266 186.935822 
L 228.143876 187.050912 
L 228.794486 186.883508 
L 230.095707 186.914896 
L 234.649979 186.873045 
L 250.264627 186.810269 
L 252.216458 186.757955 
L 258.722561 186.757955 
L 265.879274 186.747492 
L 292.554297 186.789343 
L 293.204907 186.883508 
L 293.855518 186.77888 
L 298.40979 186.820731 
L 301.662841 186.820731 
L 309.470165 186.841657 
L 315.976268 186.831194 
L 322.482371 186.883508 
L 323.783592 186.862582 
L 330.289695 186.862582 
L 338.747629 186.904434 
L 345.253732 186.893971 
L 353.061056 186.914896 
L 359.567159 186.914896 
L 405.109881 186.998598 
L 407.061712 186.988136 
L 416.820866 187.019524 
L 416.820866 187.019524 
" style="fill:none;stroke:#2ca02c;stroke-linecap:square;stroke-width:0.5;"/>
   </g>
   <g id="line2d_28">
    <path clip-path="url(#paa3c1fc632)" d="M 92.816931 84.139178 
L 93.467542 22.796 
L 95.419373 45.458344 
L 96.069983 67.40922 
L 96.720593 106.968926 
L 98.021814 75.988686 
L 98.672424 67.063949 
L 99.323034 60.524722 
L 99.973645 61.979046 
L 100.624255 75.559712 
L 101.925476 129.170909 
L 102.576086 259.913592 
L 103.226696 192.15674 
L 103.877307 244.690272 
L 104.527917 240.860901 
L 105.178527 234.991291 
L 105.829138 193.621527 
L 106.479748 140.502081 
L 107.130358 109.281197 
L 107.780968 93.859085 
L 108.431579 93.356872 
L 109.082189 102.051428 
L 110.38341 126.209947 
L 111.03402 135.563657 
L 111.68463 142.427229 
L 114.937682 170.205864 
L 115.588292 173.355156 
L 116.238903 175.123363 
L 117.540123 177.42517 
L 118.190733 179.182915 
L 119.491954 184.634014 
L 120.142564 187.521737 
L 120.793175 189.896784 
L 121.443785 191.141852 
L 122.094395 191.528975 
L 122.745006 190.890746 
L 124.046226 188.996986 
L 124.696837 188.599401 
L 125.347447 188.934209 
L 125.998057 190.085113 
L 126.648668 192.5334 
L 127.949888 198.392547 
L 128.600498 200.139828 
L 129.251109 201.102403 
L 129.901719 201.39536 
L 130.552329 200.987312 
L 131.20294 199.062164 
L 133.805381 179.894382 
L 135.106602 172.361193 
L 135.757212 169.557173 
L 136.407822 167.475083 
L 137.058433 164.524584 
L 138.359653 157.242501 
L 139.660874 151.132248 
L 140.962094 146.392616 
L 141.612705 144.697649 
L 142.263315 143.494431 
L 142.913925 142.803889 
L 143.564536 142.615559 
L 144.215146 142.918979 
L 144.865756 143.682761 
L 145.516367 144.885978 
L 146.166977 146.434467 
L 147.468198 150.494019 
L 148.769418 155.453369 
L 150.070639 161.867042 
L 151.371859 168.667838 
L 152.02247 171.419545 
L 152.67308 173.679501 
L 153.32369 175.322155 
L 153.974301 176.32658 
L 154.624911 176.828793 
L 155.275521 176.996197 
L 155.926132 177.048511 
L 156.576742 177.247304 
L 157.227352 177.812293 
L 157.877962 178.90042 
L 158.528573 180.480297 
L 160.480404 186.841657 
L 161.781624 191.047688 
L 163.082845 194.720117 
L 166.335897 200.966387 
L 168.938338 205.465375 
L 172.842 212.517277 
L 173.49261 212.736995 
L 174.793831 211.387298 
L 178.046882 206.794145 
L 179.348103 205.559539 
L 180.649323 204.649279 
L 181.299934 204.324933 
L 183.251765 203.079865 
L 187.155427 200.736206 
L 189.107257 199.742243 
L 189.757868 199.522525 
L 191.059088 198.905222 
L 194.31214 197.639228 
L 194.96275 198.5181 
L 195.613361 196.708042 
L 196.263971 197.095164 
L 196.914581 196.802207 
L 197.565191 196.666191 
L 198.866412 196.258143 
L 202.119464 195.379271 
L 206.023126 194.458548 
L 210.577398 193.527362 
L 215.78228 192.669416 
L 216.432891 192.658953 
L 217.083501 192.449698 
L 219.035332 192.209054 
L 228.794486 191.05815 
L 235.9512 190.398996 
L 236.60181 191.05815 
L 237.25242 189.970023 
L 237.903031 190.325757 
L 239.204251 190.189741 
L 254.818899 189.23763 
L 255.469509 188.923747 
L 256.12012 189.070225 
L 271.734767 188.484311 
L 273.686598 188.421534 
L 288.000025 188.034412 
L 288.650635 188.128577 
L 289.301245 187.961173 
L 290.602466 187.992561 
L 296.457959 187.887933 
L 299.0604 187.856545 
L 302.313452 187.76238 
L 304.265283 187.751917 
L 307.518334 187.699603 
L 308.168944 187.741455 
L 308.819555 187.64729 
L 310.771386 187.64729 
L 312.072606 187.64729 
L 312.723217 187.825157 
L 313.373827 187.532199 
L 314.024437 187.64729 
L 315.976268 187.615901 
L 316.626879 187.657752 
L 317.928099 187.594976 
L 321.831761 187.553125 
L 332.892136 187.448497 
L 345.253732 187.34387 
L 347.856173 187.333407 
L 372.579365 187.27063 
L 374.531196 187.207854 
L 377.784248 187.228779 
L 381.037299 187.207854 
L 386.892792 187.197391 
L 416.820866 187.176465 
L 416.820866 187.176465 
" style="fill:none;stroke:#d62728;stroke-linecap:square;stroke-width:0.5;"/>
   </g>
   <g id="line2d_29">
    <path clip-path="url(#paa3c1fc632)" d="M 92.816931 84.045013 
L 93.467542 22.796 
L 94.118152 30.140859 
L 94.768762 40.833803 
L 95.419373 48.931981 
L 96.069983 83.762518 
L 96.720593 137.813151 
L 97.371204 114.156844 
L 98.021814 77.087276 
L 98.672424 67.304593 
L 99.323034 61.581461 
L 99.973645 61.623313 
L 100.624255 67.880045 
L 101.925476 129.244148 
L 102.576086 264.716 
L 103.226696 258.783614 
L 103.877307 263.638335 
L 104.527917 259.965906 
L 105.178527 221.839598 
L 105.829138 161.835654 
L 106.479748 121.972528 
L 107.130358 100.534327 
L 107.780968 97.154855 
L 108.431579 104.82406 
L 110.38341 140.135884 
L 111.03402 147.302877 
L 112.335241 156.949544 
L 113.636461 166.920557 
L 115.588292 181.871845 
L 116.889513 191.539437 
L 119.491954 213.448463 
L 120.142564 216.963951 
L 120.793175 218.533365 
L 121.443785 218.104392 
L 122.094395 216.022302 
L 124.046226 206.689518 
L 124.696837 204.837609 
L 125.347447 204.69113 
L 126.648668 209.064565 
L 127.299278 210.74907 
L 127.949888 211.669793 
L 128.600498 211.96275 
L 129.251109 211.607016 
L 129.901719 210.466575 
L 130.552329 208.530964 
L 131.20294 205.643242 
L 131.85355 202.033588 
L 133.154771 192.941448 
L 135.106602 176.357969 
L 137.058433 159.324591 
L 138.359653 149.772089 
L 139.010263 145.984568 
L 139.660874 142.950367 
L 140.311484 140.774113 
L 140.962094 139.47673 
L 141.612705 139.05822 
L 142.263315 139.497656 
L 142.913925 140.721799 
L 143.564536 142.615559 
L 144.215146 145.126622 
L 144.865756 148.171286 
L 145.516367 151.780939 
L 148.118808 170.059386 
L 148.769418 173.302842 
L 149.420028 175.625575 
L 150.070639 176.964809 
L 150.721249 177.435633 
L 151.371859 177.289155 
L 152.67308 176.755554 
L 153.32369 177.048511 
L 153.974301 178.115713 
L 154.624911 180.009473 
L 155.275521 182.677477 
L 156.576742 189.708454 
L 158.528573 201.259344 
L 159.829793 207.066177 
L 161.131014 211.178043 
L 163.733455 218.606605 
L 165.034676 223.461327 
L 166.986507 231.925702 
L 168.287727 237.52328 
L 169.588948 242.283837 
L 170.890169 245.935341 
L 172.191389 248.69751 
L 173.49261 250.863302 
L 174.793831 252.55827 
L 175.444441 253.322051 
L 176.095051 251.648009 
L 176.745662 249.252037 
L 178.697492 240.285449 
L 179.998713 234.625094 
L 181.299934 230.147032 
L 181.950544 228.431139 
L 183.251765 225.857299 
L 188.456647 216.629142 
L 189.757868 214.65168 
L 192.360309 211.418687 
L 194.31214 209.367985 
L 196.914581 206.919699 
L 200.818243 203.916886 
L 201.468853 203.582077 
L 202.770074 202.650891 
L 206.673736 200.453711 
L 209.926787 198.89476 
L 211.878618 198.036813 
L 212.529229 197.838021 
L 213.179839 197.492749 
L 216.432891 196.341846 
L 219.035332 195.483899 
L 220.336552 195.065388 
L 228.794486 192.993761 
L 234.649979 191.863783 
L 241.806693 190.786119 
L 245.710355 190.304831 
L 247.662185 190.106039 
L 248.312796 190.189741 
L 248.963406 189.896784 
L 250.264627 189.865395 
L 253.517678 189.551512 
L 265.228664 188.714491 
L 269.132326 188.494773 
L 269.782936 188.620327 
L 270.433546 188.358758 
L 271.084157 188.452922 
L 272.385377 188.358758 
L 302.313452 187.500811 
L 309.470165 187.406646 
L 310.120775 187.553125 
L 310.771386 187.34387 
L 311.421996 187.427572 
L 313.373827 187.396183 
L 317.928099 187.34387 
L 319.87993 187.34387 
L 322.482371 187.312481 
L 333.542747 187.239242 
L 336.145188 187.228779 
L 371.278145 187.124152 
L 378.434858 187.103226 
L 379.085468 187.176465 
L 379.736079 187.0823 
L 382.33852 187.166003 
L 383.639741 187.124152 
L 386.892792 187.15554 
L 388.194013 187.124152 
L 413.567815 187.103226 
L 414.218425 187.479885 
L 414.869036 186.946285 
L 415.519646 187.15554 
L 416.820866 187.166003 
L 416.820866 187.166003 
" style="fill:none;stroke:#9467bd;stroke-linecap:square;stroke-width:0.5;"/>
   </g>
   <g id="line2d_30">
    <path clip-path="url(#paa3c1fc632)" d="M 92.816931 187.092763 
L 416.820866 187.092763 
L 416.820866 187.092763 
" style="fill:none;stroke:#8c564b;stroke-dasharray:7.4,3.2;stroke-dashoffset:0;stroke-width:2;"/>
   </g>
   <g id="patch_3">
    <path d="M 75.933594 276.812 
L 75.933594 10.7 
" style="fill:none;stroke:#000000;stroke-linecap:square;stroke-linejoin:miter;stroke-width:0.8;"/>
   </g>
   <g id="patch_4">
    <path d="M 433.053594 276.812 
L 433.053594 10.7 
" style="fill:none;stroke:#000000;stroke-linecap:square;stroke-linejoin:miter;stroke-width:0.8;"/>
   </g>
   <g id="patch_5">
    <path d="M 75.933594 276.812 
L 433.053594 276.812 
" style="fill:none;stroke:#000000;stroke-linecap:square;stroke-linejoin:miter;stroke-width:0.8;"/>
   </g>
   <g id="patch_6">
    <path d="M 75.933594 10.7 
L 433.053594 10.7 
" style="fill:none;stroke:#000000;stroke-linecap:square;stroke-linejoin:miter;stroke-width:0.8;"/>
   </g>
   <g id="legend_1">
    <g id="patch_7">
     <path d="M 223.292188 174.016875 
L 421.153594 174.016875 
Q 424.553594 174.016875 424.553594 170.616875 
L 424.553594 22.6 
Q 424.553594 19.2 421.153594 19.2 
L 223.292188 19.2 
Q 219.892188 19.2 219.892188 22.6 
L 219.892188 170.616875 
Q 219.892188 174.016875 223.292188 174.016875 
z
" style="fill:#ffffff;opacity:0.8;stroke:#cccccc;stroke-linejoin:miter;"/>
    </g>
    <g id="line2d_31">
     <path d="M 226.692188 32.967344 
L 260.692188 32.967344 
" style="fill:none;stroke:#1f77b4;stroke-linecap:square;stroke-width:0.5;"/>
    </g>
    <g id="line2d_32"/>
    <g id="text_15">
     <!-- lamda=50 -->
     <defs>
      <path d="M 9.421875 75.984375 
L 18.40625 75.984375 
L 18.40625 0 
L 9.421875 0 
z
" id="DejaVuSans-6c"/>
      <path d="M 45.40625 46.390625 
L 45.40625 75.984375 
L 54.390625 75.984375 
L 54.390625 0 
L 45.40625 0 
L 45.40625 8.203125 
Q 42.578125 3.328125 38.25 0.953125 
Q 33.9375 -1.421875 27.875 -1.421875 
Q 17.96875 -1.421875 11.734375 6.484375 
Q 5.515625 14.40625 5.515625 27.296875 
Q 5.515625 40.1875 11.734375 48.09375 
Q 17.96875 56 27.875 56 
Q 33.9375 56 38.25 53.625 
Q 42.578125 51.265625 45.40625 46.390625 
z
M 14.796875 27.296875 
Q 14.796875 17.390625 18.875 11.75 
Q 22.953125 6.109375 30.078125 6.109375 
Q 37.203125 6.109375 41.296875 11.75 
Q 45.40625 17.390625 45.40625 27.296875 
Q 45.40625 37.203125 41.296875 42.84375 
Q 37.203125 48.484375 30.078125 48.484375 
Q 22.953125 48.484375 18.875 42.84375 
Q 14.796875 37.203125 14.796875 27.296875 
z
" id="DejaVuSans-64"/>
      <path d="M 10.59375 45.40625 
L 73.1875 45.40625 
L 73.1875 37.203125 
L 10.59375 37.203125 
z
M 10.59375 25.484375 
L 73.1875 25.484375 
L 73.1875 17.1875 
L 10.59375 17.1875 
z
" id="DejaVuSans-3d"/>
     </defs>
     <g transform="translate(274.292188 38.917344)scale(0.17 -0.17)">
      <use xlink:href="#DejaVuSans-6c"/>
      <use x="27.783203" xlink:href="#DejaVuSans-61"/>
      <use x="89.0625" xlink:href="#DejaVuSans-6d"/>
      <use x="186.474609" xlink:href="#DejaVuSans-64"/>
      <use x="249.951172" xlink:href="#DejaVuSans-61"/>
      <use x="311.230469" xlink:href="#DejaVuSans-3d"/>
      <use x="395.019531" xlink:href="#DejaVuSans-35"/>
      <use x="458.642578" xlink:href="#DejaVuSans-30"/>
     </g>
    </g>
    <g id="line2d_33">
     <path d="M 226.692188 57.920156 
L 260.692188 57.920156 
" style="fill:none;stroke:#ff7f0e;stroke-linecap:square;stroke-width:0.5;"/>
    </g>
    <g id="line2d_34"/>
    <g id="text_16">
     <!-- lamda=30 -->
     <g transform="translate(274.292188 63.870156)scale(0.17 -0.17)">
      <use xlink:href="#DejaVuSans-6c"/>
      <use x="27.783203" xlink:href="#DejaVuSans-61"/>
      <use x="89.0625" xlink:href="#DejaVuSans-6d"/>
      <use x="186.474609" xlink:href="#DejaVuSans-64"/>
      <use x="249.951172" xlink:href="#DejaVuSans-61"/>
      <use x="311.230469" xlink:href="#DejaVuSans-3d"/>
      <use x="395.019531" xlink:href="#DejaVuSans-33"/>
      <use x="458.642578" xlink:href="#DejaVuSans-30"/>
     </g>
    </g>
    <g id="line2d_35">
     <path d="M 226.692188 82.872969 
L 260.692188 82.872969 
" style="fill:none;stroke:#2ca02c;stroke-linecap:square;stroke-width:0.5;"/>
    </g>
    <g id="line2d_36"/>
    <g id="text_17">
     <!-- lamda=25 -->
     <g transform="translate(274.292188 88.822969)scale(0.17 -0.17)">
      <use xlink:href="#DejaVuSans-6c"/>
      <use x="27.783203" xlink:href="#DejaVuSans-61"/>
      <use x="89.0625" xlink:href="#DejaVuSans-6d"/>
      <use x="186.474609" xlink:href="#DejaVuSans-64"/>
      <use x="249.951172" xlink:href="#DejaVuSans-61"/>
      <use x="311.230469" xlink:href="#DejaVuSans-3d"/>
      <use x="395.019531" xlink:href="#DejaVuSans-32"/>
      <use x="458.642578" xlink:href="#DejaVuSans-35"/>
     </g>
    </g>
    <g id="line2d_37">
     <path d="M 226.692188 107.825781 
L 260.692188 107.825781 
" style="fill:none;stroke:#d62728;stroke-linecap:square;stroke-width:0.5;"/>
    </g>
    <g id="line2d_38"/>
    <g id="text_18">
     <!-- lamda=20 -->
     <g transform="translate(274.292188 113.775781)scale(0.17 -0.17)">
      <use xlink:href="#DejaVuSans-6c"/>
      <use x="27.783203" xlink:href="#DejaVuSans-61"/>
      <use x="89.0625" xlink:href="#DejaVuSans-6d"/>
      <use x="186.474609" xlink:href="#DejaVuSans-64"/>
      <use x="249.951172" xlink:href="#DejaVuSans-61"/>
      <use x="311.230469" xlink:href="#DejaVuSans-3d"/>
      <use x="395.019531" xlink:href="#DejaVuSans-32"/>
      <use x="458.642578" xlink:href="#DejaVuSans-30"/>
     </g>
    </g>
    <g id="line2d_39">
     <path d="M 226.692188 132.778594 
L 260.692188 132.778594 
" style="fill:none;stroke:#9467bd;stroke-linecap:square;stroke-width:0.5;"/>
    </g>
    <g id="line2d_40"/>
    <g id="text_19">
     <!-- lamda=15 -->
     <g transform="translate(274.292188 138.728594)scale(0.17 -0.17)">
      <use xlink:href="#DejaVuSans-6c"/>
      <use x="27.783203" xlink:href="#DejaVuSans-61"/>
      <use x="89.0625" xlink:href="#DejaVuSans-6d"/>
      <use x="186.474609" xlink:href="#DejaVuSans-64"/>
      <use x="249.951172" xlink:href="#DejaVuSans-61"/>
      <use x="311.230469" xlink:href="#DejaVuSans-3d"/>
      <use x="395.019531" xlink:href="#DejaVuSans-31"/>
      <use x="458.642578" xlink:href="#DejaVuSans-35"/>
     </g>
    </g>
    <g id="line2d_41">
     <path d="M 226.692188 157.731406 
L 260.692188 157.731406 
" style="fill:none;stroke:#8c564b;stroke-dasharray:7.4,3.2;stroke-dashoffset:0;stroke-width:2;"/>
    </g>
    <g id="line2d_42"/>
    <g id="text_20">
     <!-- Consensus value -->
     <defs>
      <path d="M 64.40625 67.28125 
L 64.40625 56.890625 
Q 59.421875 61.53125 53.78125 63.8125 
Q 48.140625 66.109375 41.796875 66.109375 
Q 29.296875 66.109375 22.65625 58.46875 
Q 16.015625 50.828125 16.015625 36.375 
Q 16.015625 21.96875 22.65625 14.328125 
Q 29.296875 6.6875 41.796875 6.6875 
Q 48.140625 6.6875 53.78125 8.984375 
Q 59.421875 11.28125 64.40625 15.921875 
L 64.40625 5.609375 
Q 59.234375 2.09375 53.4375 0.328125 
Q 47.65625 -1.421875 41.21875 -1.421875 
Q 24.65625 -1.421875 15.125 8.703125 
Q 5.609375 18.84375 5.609375 36.375 
Q 5.609375 53.953125 15.125 64.078125 
Q 24.65625 74.21875 41.21875 74.21875 
Q 47.75 74.21875 53.53125 72.484375 
Q 59.328125 70.75 64.40625 67.28125 
z
" id="DejaVuSans-43"/>
     </defs>
     <g transform="translate(274.292188 163.681406)scale(0.17 -0.17)">
      <use xlink:href="#DejaVuSans-43"/>
      <use x="69.824219" xlink:href="#DejaVuSans-6f"/>
      <use x="131.005859" xlink:href="#DejaVuSans-6e"/>
      <use x="194.384766" xlink:href="#DejaVuSans-73"/>
      <use x="246.484375" xlink:href="#DejaVuSans-65"/>
      <use x="308.007812" xlink:href="#DejaVuSans-6e"/>
      <use x="371.386719" xlink:href="#DejaVuSans-73"/>
      <use x="423.486328" xlink:href="#DejaVuSans-75"/>
      <use x="486.865234" xlink:href="#DejaVuSans-73"/>
      <use x="538.964844" xlink:href="#DejaVuSans-20"/>
      <use x="570.751953" xlink:href="#DejaVuSans-76"/>
      <use x="629.931641" xlink:href="#DejaVuSans-61"/>
      <use x="691.210938" xlink:href="#DejaVuSans-6c"/>
      <use x="718.994141" xlink:href="#DejaVuSans-75"/>
      <use x="782.373047" xlink:href="#DejaVuSans-65"/>
     </g>
    </g>
   </g>
  </g>
 </g>
 <defs>
  <clipPath id="paa3c1fc632">
   <rect height="266.112" width="357.12" x="75.933594" y="10.7"/>
  </clipPath>
 </defs>
</svg>
