<?xml version="1.0" encoding="utf-8" standalone="no"?>
<!DOCTYPE svg PUBLIC "-//W3C//DTD SVG 1.1//EN"
  "http://www.w3.org/Graphics/SVG/1.1/DTD/svg11.dtd">
<!-- Created with matplotlib (http://matplotlib.org/) -->
<svg height="327pt" version="1.1" viewBox="0 0 427 327" width="427pt" xmlns="http://www.w3.org/2000/svg" xmlns:xlink="http://www.w3.org/1999/xlink">
 <defs>
  <style type="text/css">
*{stroke-linecap:butt;stroke-linejoin:round;}
  </style>
 </defs>
 <g id="figure_1">
  <g id="patch_1">
   <path d="M 0 327.917625 
L 427.534531 327.917625 
L 427.534531 0 
L 0 0 
z
" style="fill:#ffffff;"/>
  </g>
  <g id="axes_1">
   <g id="patch_2">
    <path d="M 59.714531 276.812 
L 416.834531 276.812 
L 416.834531 10.7 
L 59.714531 10.7 
z
" style="fill:#ffffff;"/>
   </g>
   <g id="matplotlib.axis_1">
    <g id="xtick_1">
     <g id="line2d_1">
      <path clip-path="url(#p3ab7f4ab34)" d="M 75.947259 276.812 
L 75.947259 10.7 
" style="fill:none;stroke:#b0b0b0;stroke-linecap:square;stroke-width:0.8;"/>
     </g>
     <g id="line2d_2">
      <defs>
       <path d="M 0 0 
L 0 3.5 
" id="m98d8b43f5d" style="stroke:#000000;stroke-width:0.8;"/>
      </defs>
      <g>
       <use style="stroke:#000000;stroke-width:0.8;" x="75.947259" xlink:href="#m98d8b43f5d" y="276.812"/>
      </g>
     </g>
     <g id="text_1">
      <!-- 0 -->
      <defs>
       <path d="M 31.78125 66.40625 
Q 24.171875 66.40625 20.328125 58.90625 
Q 16.5 51.421875 16.5 36.375 
Q 16.5 21.390625 20.328125 13.890625 
Q 24.171875 6.390625 31.78125 6.390625 
Q 39.453125 6.390625 43.28125 13.890625 
Q 47.125 21.390625 47.125 36.375 
Q 47.125 51.421875 43.28125 58.90625 
Q 39.453125 66.40625 31.78125 66.40625 
z
M 31.78125 74.21875 
Q 44.046875 74.21875 50.515625 64.515625 
Q 56.984375 54.828125 56.984375 36.375 
Q 56.984375 17.96875 50.515625 8.265625 
Q 44.046875 -1.421875 31.78125 -1.421875 
Q 19.53125 -1.421875 13.0625 8.265625 
Q 6.59375 17.96875 6.59375 36.375 
Q 6.59375 54.828125 13.0625 64.515625 
Q 19.53125 74.21875 31.78125 74.21875 
z
" id="DejaVuSans-30"/>
      </defs>
      <g transform="translate(70.539134 296.729344)scale(0.17 -0.17)">
       <use xlink:href="#DejaVuSans-30"/>
      </g>
     </g>
    </g>
    <g id="xtick_2">
     <g id="line2d_3">
      <path clip-path="url(#p3ab7f4ab34)" d="M 141.00829 276.812 
L 141.00829 10.7 
" style="fill:none;stroke:#b0b0b0;stroke-linecap:square;stroke-width:0.8;"/>
     </g>
     <g id="line2d_4">
      <g>
       <use style="stroke:#000000;stroke-width:0.8;" x="141.00829" xlink:href="#m98d8b43f5d" y="276.812"/>
      </g>
     </g>
     <g id="text_2">
      <!-- 100 -->
      <defs>
       <path d="M 12.40625 8.296875 
L 28.515625 8.296875 
L 28.515625 63.921875 
L 10.984375 60.40625 
L 10.984375 69.390625 
L 28.421875 72.90625 
L 38.28125 72.90625 
L 38.28125 8.296875 
L 54.390625 8.296875 
L 54.390625 0 
L 12.40625 0 
z
" id="DejaVuSans-31"/>
      </defs>
      <g transform="translate(124.783915 296.729344)scale(0.17 -0.17)">
       <use xlink:href="#DejaVuSans-31"/>
       <use x="63.623047" xlink:href="#DejaVuSans-30"/>
       <use x="127.246094" xlink:href="#DejaVuSans-30"/>
      </g>
     </g>
    </g>
    <g id="xtick_3">
     <g id="line2d_5">
      <path clip-path="url(#p3ab7f4ab34)" d="M 206.069321 276.812 
L 206.069321 10.7 
" style="fill:none;stroke:#b0b0b0;stroke-linecap:square;stroke-width:0.8;"/>
     </g>
     <g id="line2d_6">
      <g>
       <use style="stroke:#000000;stroke-width:0.8;" x="206.069321" xlink:href="#m98d8b43f5d" y="276.812"/>
      </g>
     </g>
     <g id="text_3">
      <!-- 200 -->
      <defs>
       <path d="M 19.1875 8.296875 
L 53.609375 8.296875 
L 53.609375 0 
L 7.328125 0 
L 7.328125 8.296875 
Q 12.9375 14.109375 22.625 23.890625 
Q 32.328125 33.6875 34.8125 36.53125 
Q 39.546875 41.84375 41.421875 45.53125 
Q 43.3125 49.21875 43.3125 52.78125 
Q 43.3125 58.59375 39.234375 62.25 
Q 35.15625 65.921875 28.609375 65.921875 
Q 23.96875 65.921875 18.8125 64.3125 
Q 13.671875 62.703125 7.8125 59.421875 
L 7.8125 69.390625 
Q 13.765625 71.78125 18.9375 73 
Q 24.125 74.21875 28.421875 74.21875 
Q 39.75 74.21875 46.484375 68.546875 
Q 53.21875 62.890625 53.21875 53.421875 
Q 53.21875 48.921875 51.53125 44.890625 
Q 49.859375 40.875 45.40625 35.40625 
Q 44.1875 33.984375 37.640625 27.21875 
Q 31.109375 20.453125 19.1875 8.296875 
z
" id="DejaVuSans-32"/>
      </defs>
      <g transform="translate(189.844946 296.729344)scale(0.17 -0.17)">
       <use xlink:href="#DejaVuSans-32"/>
       <use x="63.623047" xlink:href="#DejaVuSans-30"/>
       <use x="127.246094" xlink:href="#DejaVuSans-30"/>
      </g>
     </g>
    </g>
    <g id="xtick_4">
     <g id="line2d_7">
      <path clip-path="url(#p3ab7f4ab34)" d="M 271.130352 276.812 
L 271.130352 10.7 
" style="fill:none;stroke:#b0b0b0;stroke-linecap:square;stroke-width:0.8;"/>
     </g>
     <g id="line2d_8">
      <g>
       <use style="stroke:#000000;stroke-width:0.8;" x="271.130352" xlink:href="#m98d8b43f5d" y="276.812"/>
      </g>
     </g>
     <g id="text_4">
      <!-- 300 -->
      <defs>
       <path d="M 40.578125 39.3125 
Q 47.65625 37.796875 51.625 33 
Q 55.609375 28.21875 55.609375 21.1875 
Q 55.609375 10.40625 48.1875 4.484375 
Q 40.765625 -1.421875 27.09375 -1.421875 
Q 22.515625 -1.421875 17.65625 -0.515625 
Q 12.796875 0.390625 7.625 2.203125 
L 7.625 11.71875 
Q 11.71875 9.328125 16.59375 8.109375 
Q 21.484375 6.890625 26.8125 6.890625 
Q 36.078125 6.890625 40.9375 10.546875 
Q 45.796875 14.203125 45.796875 21.1875 
Q 45.796875 27.640625 41.28125 31.265625 
Q 36.765625 34.90625 28.71875 34.90625 
L 20.21875 34.90625 
L 20.21875 43.015625 
L 29.109375 43.015625 
Q 36.375 43.015625 40.234375 45.921875 
Q 44.09375 48.828125 44.09375 54.296875 
Q 44.09375 59.90625 40.109375 62.90625 
Q 36.140625 65.921875 28.71875 65.921875 
Q 24.65625 65.921875 20.015625 65.03125 
Q 15.375 64.15625 9.8125 62.3125 
L 9.8125 71.09375 
Q 15.4375 72.65625 20.34375 73.4375 
Q 25.25 74.21875 29.59375 74.21875 
Q 40.828125 74.21875 47.359375 69.109375 
Q 53.90625 64.015625 53.90625 55.328125 
Q 53.90625 49.265625 50.4375 45.09375 
Q 46.96875 40.921875 40.578125 39.3125 
z
" id="DejaVuSans-33"/>
      </defs>
      <g transform="translate(254.905977 296.729344)scale(0.17 -0.17)">
       <use xlink:href="#DejaVuSans-33"/>
       <use x="63.623047" xlink:href="#DejaVuSans-30"/>
       <use x="127.246094" xlink:href="#DejaVuSans-30"/>
      </g>
     </g>
    </g>
    <g id="xtick_5">
     <g id="line2d_9">
      <path clip-path="url(#p3ab7f4ab34)" d="M 336.191383 276.812 
L 336.191383 10.7 
" style="fill:none;stroke:#b0b0b0;stroke-linecap:square;stroke-width:0.8;"/>
     </g>
     <g id="line2d_10">
      <g>
       <use style="stroke:#000000;stroke-width:0.8;" x="336.191383" xlink:href="#m98d8b43f5d" y="276.812"/>
      </g>
     </g>
     <g id="text_5">
      <!-- 400 -->
      <defs>
       <path d="M 37.796875 64.3125 
L 12.890625 25.390625 
L 37.796875 25.390625 
z
M 35.203125 72.90625 
L 47.609375 72.90625 
L 47.609375 25.390625 
L 58.015625 25.390625 
L 58.015625 17.1875 
L 47.609375 17.1875 
L 47.609375 0 
L 37.796875 0 
L 37.796875 17.1875 
L 4.890625 17.1875 
L 4.890625 26.703125 
z
" id="DejaVuSans-34"/>
      </defs>
      <g transform="translate(319.967008 296.729344)scale(0.17 -0.17)">
       <use xlink:href="#DejaVuSans-34"/>
       <use x="63.623047" xlink:href="#DejaVuSans-30"/>
       <use x="127.246094" xlink:href="#DejaVuSans-30"/>
      </g>
     </g>
    </g>
    <g id="xtick_6">
     <g id="line2d_11">
      <path clip-path="url(#p3ab7f4ab34)" d="M 401.252414 276.812 
L 401.252414 10.7 
" style="fill:none;stroke:#b0b0b0;stroke-linecap:square;stroke-width:0.8;"/>
     </g>
     <g id="line2d_12">
      <g>
       <use style="stroke:#000000;stroke-width:0.8;" x="401.252414" xlink:href="#m98d8b43f5d" y="276.812"/>
      </g>
     </g>
     <g id="text_6">
      <!-- 500 -->
      <defs>
       <path d="M 10.796875 72.90625 
L 49.515625 72.90625 
L 49.515625 64.59375 
L 19.828125 64.59375 
L 19.828125 46.734375 
Q 21.96875 47.46875 24.109375 47.828125 
Q 26.265625 48.1875 28.421875 48.1875 
Q 40.625 48.1875 47.75 41.5 
Q 54.890625 34.8125 54.890625 23.390625 
Q 54.890625 11.625 47.5625 5.09375 
Q 40.234375 -1.421875 26.90625 -1.421875 
Q 22.3125 -1.421875 17.546875 -0.640625 
Q 12.796875 0.140625 7.71875 1.703125 
L 7.71875 11.625 
Q 12.109375 9.234375 16.796875 8.0625 
Q 21.484375 6.890625 26.703125 6.890625 
Q 35.15625 6.890625 40.078125 11.328125 
Q 45.015625 15.765625 45.015625 23.390625 
Q 45.015625 31 40.078125 35.4375 
Q 35.15625 39.890625 26.703125 39.890625 
Q 22.75 39.890625 18.8125 39.015625 
Q 14.890625 38.140625 10.796875 36.28125 
z
" id="DejaVuSans-35"/>
      </defs>
      <g transform="translate(385.028039 296.729344)scale(0.17 -0.17)">
       <use xlink:href="#DejaVuSans-35"/>
       <use x="63.623047" xlink:href="#DejaVuSans-30"/>
       <use x="127.246094" xlink:href="#DejaVuSans-30"/>
      </g>
     </g>
    </g>
    <g id="text_7">
     <!-- Number of iterations -->
     <defs>
      <path d="M 9.8125 72.90625 
L 23.09375 72.90625 
L 55.421875 11.921875 
L 55.421875 72.90625 
L 64.984375 72.90625 
L 64.984375 0 
L 51.703125 0 
L 19.390625 60.984375 
L 19.390625 0 
L 9.8125 0 
z
" id="DejaVuSans-4e"/>
      <path d="M 8.5 21.578125 
L 8.5 54.6875 
L 17.484375 54.6875 
L 17.484375 21.921875 
Q 17.484375 14.15625 20.5 10.265625 
Q 23.53125 6.390625 29.59375 6.390625 
Q 36.859375 6.390625 41.078125 11.03125 
Q 45.3125 15.671875 45.3125 23.6875 
L 45.3125 54.6875 
L 54.296875 54.6875 
L 54.296875 0 
L 45.3125 0 
L 45.3125 8.40625 
Q 42.046875 3.421875 37.71875 1 
Q 33.40625 -1.421875 27.6875 -1.421875 
Q 18.265625 -1.421875 13.375 4.4375 
Q 8.5 10.296875 8.5 21.578125 
z
M 31.109375 56 
z
" id="DejaVuSans-75"/>
      <path d="M 52 44.1875 
Q 55.375 50.25 60.0625 53.125 
Q 64.75 56 71.09375 56 
Q 79.640625 56 84.28125 50.015625 
Q 88.921875 44.046875 88.921875 33.015625 
L 88.921875 0 
L 79.890625 0 
L 79.890625 32.71875 
Q 79.890625 40.578125 77.09375 44.375 
Q 74.3125 48.1875 68.609375 48.1875 
Q 61.625 48.1875 57.5625 43.546875 
Q 53.515625 38.921875 53.515625 30.90625 
L 53.515625 0 
L 44.484375 0 
L 44.484375 32.71875 
Q 44.484375 40.625 41.703125 44.40625 
Q 38.921875 48.1875 33.109375 48.1875 
Q 26.21875 48.1875 22.15625 43.53125 
Q 18.109375 38.875 18.109375 30.90625 
L 18.109375 0 
L 9.078125 0 
L 9.078125 54.6875 
L 18.109375 54.6875 
L 18.109375 46.1875 
Q 21.1875 51.21875 25.484375 53.609375 
Q 29.78125 56 35.6875 56 
Q 41.65625 56 45.828125 52.96875 
Q 50 49.953125 52 44.1875 
z
" id="DejaVuSans-6d"/>
      <path d="M 48.6875 27.296875 
Q 48.6875 37.203125 44.609375 42.84375 
Q 40.53125 48.484375 33.40625 48.484375 
Q 26.265625 48.484375 22.1875 42.84375 
Q 18.109375 37.203125 18.109375 27.296875 
Q 18.109375 17.390625 22.1875 11.75 
Q 26.265625 6.109375 33.40625 6.109375 
Q 40.53125 6.109375 44.609375 11.75 
Q 48.6875 17.390625 48.6875 27.296875 
z
M 18.109375 46.390625 
Q 20.953125 51.265625 25.265625 53.625 
Q 29.59375 56 35.59375 56 
Q 45.5625 56 51.78125 48.09375 
Q 58.015625 40.1875 58.015625 27.296875 
Q 58.015625 14.40625 51.78125 6.484375 
Q 45.5625 -1.421875 35.59375 -1.421875 
Q 29.59375 -1.421875 25.265625 0.953125 
Q 20.953125 3.328125 18.109375 8.203125 
L 18.109375 0 
L 9.078125 0 
L 9.078125 75.984375 
L 18.109375 75.984375 
z
" id="DejaVuSans-62"/>
      <path d="M 56.203125 29.59375 
L 56.203125 25.203125 
L 14.890625 25.203125 
Q 15.484375 15.921875 20.484375 11.0625 
Q 25.484375 6.203125 34.421875 6.203125 
Q 39.59375 6.203125 44.453125 7.46875 
Q 49.3125 8.734375 54.109375 11.28125 
L 54.109375 2.78125 
Q 49.265625 0.734375 44.1875 -0.34375 
Q 39.109375 -1.421875 33.890625 -1.421875 
Q 20.796875 -1.421875 13.15625 6.1875 
Q 5.515625 13.8125 5.515625 26.8125 
Q 5.515625 40.234375 12.765625 48.109375 
Q 20.015625 56 32.328125 56 
Q 43.359375 56 49.78125 48.890625 
Q 56.203125 41.796875 56.203125 29.59375 
z
M 47.21875 32.234375 
Q 47.125 39.59375 43.09375 43.984375 
Q 39.0625 48.390625 32.421875 48.390625 
Q 24.90625 48.390625 20.390625 44.140625 
Q 15.875 39.890625 15.1875 32.171875 
z
" id="DejaVuSans-65"/>
      <path d="M 41.109375 46.296875 
Q 39.59375 47.171875 37.8125 47.578125 
Q 36.03125 48 33.890625 48 
Q 26.265625 48 22.1875 43.046875 
Q 18.109375 38.09375 18.109375 28.8125 
L 18.109375 0 
L 9.078125 0 
L 9.078125 54.6875 
L 18.109375 54.6875 
L 18.109375 46.1875 
Q 20.953125 51.171875 25.484375 53.578125 
Q 30.03125 56 36.53125 56 
Q 37.453125 56 38.578125 55.875 
Q 39.703125 55.765625 41.0625 55.515625 
z
" id="DejaVuSans-72"/>
      <path id="DejaVuSans-20"/>
      <path d="M 30.609375 48.390625 
Q 23.390625 48.390625 19.1875 42.75 
Q 14.984375 37.109375 14.984375 27.296875 
Q 14.984375 17.484375 19.15625 11.84375 
Q 23.34375 6.203125 30.609375 6.203125 
Q 37.796875 6.203125 41.984375 11.859375 
Q 46.1875 17.53125 46.1875 27.296875 
Q 46.1875 37.015625 41.984375 42.703125 
Q 37.796875 48.390625 30.609375 48.390625 
z
M 30.609375 56 
Q 42.328125 56 49.015625 48.375 
Q 55.71875 40.765625 55.71875 27.296875 
Q 55.71875 13.875 49.015625 6.21875 
Q 42.328125 -1.421875 30.609375 -1.421875 
Q 18.84375 -1.421875 12.171875 6.21875 
Q 5.515625 13.875 5.515625 27.296875 
Q 5.515625 40.765625 12.171875 48.375 
Q 18.84375 56 30.609375 56 
z
" id="DejaVuSans-6f"/>
      <path d="M 37.109375 75.984375 
L 37.109375 68.5 
L 28.515625 68.5 
Q 23.6875 68.5 21.796875 66.546875 
Q 19.921875 64.59375 19.921875 59.515625 
L 19.921875 54.6875 
L 34.71875 54.6875 
L 34.71875 47.703125 
L 19.921875 47.703125 
L 19.921875 0 
L 10.890625 0 
L 10.890625 47.703125 
L 2.296875 47.703125 
L 2.296875 54.6875 
L 10.890625 54.6875 
L 10.890625 58.5 
Q 10.890625 67.625 15.140625 71.796875 
Q 19.390625 75.984375 28.609375 75.984375 
z
" id="DejaVuSans-66"/>
      <path d="M 9.421875 54.6875 
L 18.40625 54.6875 
L 18.40625 0 
L 9.421875 0 
z
M 9.421875 75.984375 
L 18.40625 75.984375 
L 18.40625 64.59375 
L 9.421875 64.59375 
z
" id="DejaVuSans-69"/>
      <path d="M 18.3125 70.21875 
L 18.3125 54.6875 
L 36.8125 54.6875 
L 36.8125 47.703125 
L 18.3125 47.703125 
L 18.3125 18.015625 
Q 18.3125 11.328125 20.140625 9.421875 
Q 21.96875 7.515625 27.59375 7.515625 
L 36.8125 7.515625 
L 36.8125 0 
L 27.59375 0 
Q 17.1875 0 13.234375 3.875 
Q 9.28125 7.765625 9.28125 18.015625 
L 9.28125 47.703125 
L 2.6875 47.703125 
L 2.6875 54.6875 
L 9.28125 54.6875 
L 9.28125 70.21875 
z
" id="DejaVuSans-74"/>
      <path d="M 34.28125 27.484375 
Q 23.390625 27.484375 19.1875 25 
Q 14.984375 22.515625 14.984375 16.5 
Q 14.984375 11.71875 18.140625 8.90625 
Q 21.296875 6.109375 26.703125 6.109375 
Q 34.1875 6.109375 38.703125 11.40625 
Q 43.21875 16.703125 43.21875 25.484375 
L 43.21875 27.484375 
z
M 52.203125 31.203125 
L 52.203125 0 
L 43.21875 0 
L 43.21875 8.296875 
Q 40.140625 3.328125 35.546875 0.953125 
Q 30.953125 -1.421875 24.3125 -1.421875 
Q 15.921875 -1.421875 10.953125 3.296875 
Q 6 8.015625 6 15.921875 
Q 6 25.140625 12.171875 29.828125 
Q 18.359375 34.515625 30.609375 34.515625 
L 43.21875 34.515625 
L 43.21875 35.40625 
Q 43.21875 41.609375 39.140625 45 
Q 35.0625 48.390625 27.6875 48.390625 
Q 23 48.390625 18.546875 47.265625 
Q 14.109375 46.140625 10.015625 43.890625 
L 10.015625 52.203125 
Q 14.9375 54.109375 19.578125 55.046875 
Q 24.21875 56 28.609375 56 
Q 40.484375 56 46.34375 49.84375 
Q 52.203125 43.703125 52.203125 31.203125 
z
" id="DejaVuSans-61"/>
      <path d="M 54.890625 33.015625 
L 54.890625 0 
L 45.90625 0 
L 45.90625 32.71875 
Q 45.90625 40.484375 42.875 44.328125 
Q 39.84375 48.1875 33.796875 48.1875 
Q 26.515625 48.1875 22.3125 43.546875 
Q 18.109375 38.921875 18.109375 30.90625 
L 18.109375 0 
L 9.078125 0 
L 9.078125 54.6875 
L 18.109375 54.6875 
L 18.109375 46.1875 
Q 21.34375 51.125 25.703125 53.5625 
Q 30.078125 56 35.796875 56 
Q 45.21875 56 50.046875 50.171875 
Q 54.890625 44.34375 54.890625 33.015625 
z
" id="DejaVuSans-6e"/>
      <path d="M 44.28125 53.078125 
L 44.28125 44.578125 
Q 40.484375 46.53125 36.375 47.5 
Q 32.28125 48.484375 27.875 48.484375 
Q 21.1875 48.484375 17.84375 46.4375 
Q 14.5 44.390625 14.5 40.28125 
Q 14.5 37.15625 16.890625 35.375 
Q 19.28125 33.59375 26.515625 31.984375 
L 29.59375 31.296875 
Q 39.15625 29.25 43.1875 25.515625 
Q 47.21875 21.78125 47.21875 15.09375 
Q 47.21875 7.46875 41.1875 3.015625 
Q 35.15625 -1.421875 24.609375 -1.421875 
Q 20.21875 -1.421875 15.453125 -0.5625 
Q 10.6875 0.296875 5.421875 2 
L 5.421875 11.28125 
Q 10.40625 8.6875 15.234375 7.390625 
Q 20.0625 6.109375 24.8125 6.109375 
Q 31.15625 6.109375 34.5625 8.28125 
Q 37.984375 10.453125 37.984375 14.40625 
Q 37.984375 18.0625 35.515625 20.015625 
Q 33.0625 21.96875 24.703125 23.78125 
L 21.578125 24.515625 
Q 13.234375 26.265625 9.515625 29.90625 
Q 5.8125 33.546875 5.8125 39.890625 
Q 5.8125 47.609375 11.28125 51.796875 
Q 16.75 56 26.8125 56 
Q 31.78125 56 36.171875 55.265625 
Q 40.578125 54.546875 44.28125 53.078125 
z
" id="DejaVuSans-73"/>
     </defs>
     <g transform="translate(150.195938 317.182156)scale(0.17 -0.17)">
      <use xlink:href="#DejaVuSans-4e"/>
      <use x="74.804688" xlink:href="#DejaVuSans-75"/>
      <use x="138.183594" xlink:href="#DejaVuSans-6d"/>
      <use x="235.595703" xlink:href="#DejaVuSans-62"/>
      <use x="299.072266" xlink:href="#DejaVuSans-65"/>
      <use x="360.595703" xlink:href="#DejaVuSans-72"/>
      <use x="401.708984" xlink:href="#DejaVuSans-20"/>
      <use x="433.496094" xlink:href="#DejaVuSans-6f"/>
      <use x="494.677734" xlink:href="#DejaVuSans-66"/>
      <use x="529.882812" xlink:href="#DejaVuSans-20"/>
      <use x="561.669922" xlink:href="#DejaVuSans-69"/>
      <use x="589.453125" xlink:href="#DejaVuSans-74"/>
      <use x="628.662109" xlink:href="#DejaVuSans-65"/>
      <use x="690.185547" xlink:href="#DejaVuSans-72"/>
      <use x="731.298828" xlink:href="#DejaVuSans-61"/>
      <use x="792.578125" xlink:href="#DejaVuSans-74"/>
      <use x="831.787109" xlink:href="#DejaVuSans-69"/>
      <use x="859.570312" xlink:href="#DejaVuSans-6f"/>
      <use x="920.751953" xlink:href="#DejaVuSans-6e"/>
      <use x="984.130859" xlink:href="#DejaVuSans-73"/>
     </g>
    </g>
   </g>
   <g id="matplotlib.axis_2">
    <g id="ytick_1">
     <g id="line2d_13">
      <path clip-path="url(#p3ab7f4ab34)" d="M 59.714531 267.917488 
L 416.834531 267.917488 
" style="fill:none;stroke:#b0b0b0;stroke-linecap:square;stroke-width:0.8;"/>
     </g>
     <g id="line2d_14">
      <defs>
       <path d="M 0 0 
L -3.5 0 
" id="ma9619e1a22" style="stroke:#000000;stroke-width:0.8;"/>
      </defs>
      <g>
       <use style="stroke:#000000;stroke-width:0.8;" x="59.714531" xlink:href="#ma9619e1a22" y="267.917488"/>
      </g>
     </g>
     <g id="text_8">
      <!-- −4 -->
      <defs>
       <path d="M 10.59375 35.5 
L 73.1875 35.5 
L 73.1875 27.203125 
L 10.59375 27.203125 
z
" id="DejaVuSans-2212"/>
      </defs>
      <g transform="translate(27.652813 274.37616)scale(0.17 -0.17)">
       <use xlink:href="#DejaVuSans-2212"/>
       <use x="83.789062" xlink:href="#DejaVuSans-34"/>
      </g>
     </g>
    </g>
    <g id="ytick_2">
     <g id="line2d_15">
      <path clip-path="url(#p3ab7f4ab34)" d="M 59.714531 226.393643 
L 416.834531 226.393643 
" style="fill:none;stroke:#b0b0b0;stroke-linecap:square;stroke-width:0.8;"/>
     </g>
     <g id="line2d_16">
      <g>
       <use style="stroke:#000000;stroke-width:0.8;" x="59.714531" xlink:href="#ma9619e1a22" y="226.393643"/>
      </g>
     </g>
     <g id="text_9">
      <!-- −2 -->
      <g transform="translate(27.652813 232.852315)scale(0.17 -0.17)">
       <use xlink:href="#DejaVuSans-2212"/>
       <use x="83.789062" xlink:href="#DejaVuSans-32"/>
      </g>
     </g>
    </g>
    <g id="ytick_3">
     <g id="line2d_17">
      <path clip-path="url(#p3ab7f4ab34)" d="M 59.714531 184.869798 
L 416.834531 184.869798 
" style="fill:none;stroke:#b0b0b0;stroke-linecap:square;stroke-width:0.8;"/>
     </g>
     <g id="line2d_18">
      <g>
       <use style="stroke:#000000;stroke-width:0.8;" x="59.714531" xlink:href="#ma9619e1a22" y="184.869798"/>
      </g>
     </g>
     <g id="text_10">
      <!-- 0 -->
      <g transform="translate(41.898281 191.328469)scale(0.17 -0.17)">
       <use xlink:href="#DejaVuSans-30"/>
      </g>
     </g>
    </g>
    <g id="ytick_4">
     <g id="line2d_19">
      <path clip-path="url(#p3ab7f4ab34)" d="M 59.714531 143.345952 
L 416.834531 143.345952 
" style="fill:none;stroke:#b0b0b0;stroke-linecap:square;stroke-width:0.8;"/>
     </g>
     <g id="line2d_20">
      <g>
       <use style="stroke:#000000;stroke-width:0.8;" x="59.714531" xlink:href="#ma9619e1a22" y="143.345952"/>
      </g>
     </g>
     <g id="text_11">
      <!-- 2 -->
      <g transform="translate(41.898281 149.804624)scale(0.17 -0.17)">
       <use xlink:href="#DejaVuSans-32"/>
      </g>
     </g>
    </g>
    <g id="ytick_5">
     <g id="line2d_21">
      <path clip-path="url(#p3ab7f4ab34)" d="M 59.714531 101.822107 
L 416.834531 101.822107 
" style="fill:none;stroke:#b0b0b0;stroke-linecap:square;stroke-width:0.8;"/>
     </g>
     <g id="line2d_22">
      <g>
       <use style="stroke:#000000;stroke-width:0.8;" x="59.714531" xlink:href="#ma9619e1a22" y="101.822107"/>
      </g>
     </g>
     <g id="text_12">
      <!-- 4 -->
      <g transform="translate(41.898281 108.280778)scale(0.17 -0.17)">
       <use xlink:href="#DejaVuSans-34"/>
      </g>
     </g>
    </g>
    <g id="ytick_6">
     <g id="line2d_23">
      <path clip-path="url(#p3ab7f4ab34)" d="M 59.714531 60.298261 
L 416.834531 60.298261 
" style="fill:none;stroke:#b0b0b0;stroke-linecap:square;stroke-width:0.8;"/>
     </g>
     <g id="line2d_24">
      <g>
       <use style="stroke:#000000;stroke-width:0.8;" x="59.714531" xlink:href="#ma9619e1a22" y="60.298261"/>
      </g>
     </g>
     <g id="text_13">
      <!-- 6 -->
      <defs>
       <path d="M 33.015625 40.375 
Q 26.375 40.375 22.484375 35.828125 
Q 18.609375 31.296875 18.609375 23.390625 
Q 18.609375 15.53125 22.484375 10.953125 
Q 26.375 6.390625 33.015625 6.390625 
Q 39.65625 6.390625 43.53125 10.953125 
Q 47.40625 15.53125 47.40625 23.390625 
Q 47.40625 31.296875 43.53125 35.828125 
Q 39.65625 40.375 33.015625 40.375 
z
M 52.59375 71.296875 
L 52.59375 62.3125 
Q 48.875 64.0625 45.09375 64.984375 
Q 41.3125 65.921875 37.59375 65.921875 
Q 27.828125 65.921875 22.671875 59.328125 
Q 17.53125 52.734375 16.796875 39.40625 
Q 19.671875 43.65625 24.015625 45.921875 
Q 28.375 48.1875 33.59375 48.1875 
Q 44.578125 48.1875 50.953125 41.515625 
Q 57.328125 34.859375 57.328125 23.390625 
Q 57.328125 12.15625 50.6875 5.359375 
Q 44.046875 -1.421875 33.015625 -1.421875 
Q 20.359375 -1.421875 13.671875 8.265625 
Q 6.984375 17.96875 6.984375 36.375 
Q 6.984375 53.65625 15.1875 63.9375 
Q 23.390625 74.21875 37.203125 74.21875 
Q 40.921875 74.21875 44.703125 73.484375 
Q 48.484375 72.75 52.59375 71.296875 
z
" id="DejaVuSans-36"/>
      </defs>
      <g transform="translate(41.898281 66.756933)scale(0.17 -0.17)">
       <use xlink:href="#DejaVuSans-36"/>
      </g>
     </g>
    </g>
    <g id="ytick_7">
     <g id="line2d_25">
      <path clip-path="url(#p3ab7f4ab34)" d="M 59.714531 18.774416 
L 416.834531 18.774416 
" style="fill:none;stroke:#b0b0b0;stroke-linecap:square;stroke-width:0.8;"/>
     </g>
     <g id="line2d_26">
      <g>
       <use style="stroke:#000000;stroke-width:0.8;" x="59.714531" xlink:href="#ma9619e1a22" y="18.774416"/>
      </g>
     </g>
     <g id="text_14">
      <!-- 8 -->
      <defs>
       <path d="M 31.78125 34.625 
Q 24.75 34.625 20.71875 30.859375 
Q 16.703125 27.09375 16.703125 20.515625 
Q 16.703125 13.921875 20.71875 10.15625 
Q 24.75 6.390625 31.78125 6.390625 
Q 38.8125 6.390625 42.859375 10.171875 
Q 46.921875 13.96875 46.921875 20.515625 
Q 46.921875 27.09375 42.890625 30.859375 
Q 38.875 34.625 31.78125 34.625 
z
M 21.921875 38.8125 
Q 15.578125 40.375 12.03125 44.71875 
Q 8.5 49.078125 8.5 55.328125 
Q 8.5 64.0625 14.71875 69.140625 
Q 20.953125 74.21875 31.78125 74.21875 
Q 42.671875 74.21875 48.875 69.140625 
Q 55.078125 64.0625 55.078125 55.328125 
Q 55.078125 49.078125 51.53125 44.71875 
Q 48 40.375 41.703125 38.8125 
Q 48.828125 37.15625 52.796875 32.3125 
Q 56.78125 27.484375 56.78125 20.515625 
Q 56.78125 9.90625 50.3125 4.234375 
Q 43.84375 -1.421875 31.78125 -1.421875 
Q 19.734375 -1.421875 13.25 4.234375 
Q 6.78125 9.90625 6.78125 20.515625 
Q 6.78125 27.484375 10.78125 32.3125 
Q 14.796875 37.15625 21.921875 38.8125 
z
M 18.3125 54.390625 
Q 18.3125 48.734375 21.84375 45.5625 
Q 25.390625 42.390625 31.78125 42.390625 
Q 38.140625 42.390625 41.71875 45.5625 
Q 45.3125 48.734375 45.3125 54.390625 
Q 45.3125 60.0625 41.71875 63.234375 
Q 38.140625 66.40625 31.78125 66.40625 
Q 25.390625 66.40625 21.84375 63.234375 
Q 18.3125 60.0625 18.3125 54.390625 
z
" id="DejaVuSans-38"/>
      </defs>
      <g transform="translate(41.898281 25.233087)scale(0.17 -0.17)">
       <use xlink:href="#DejaVuSans-38"/>
      </g>
     </g>
    </g>
    <g id="text_15">
     <!-- Reactive power (pu) -->
     <defs>
      <path d="M 44.390625 34.1875 
Q 47.5625 33.109375 50.5625 29.59375 
Q 53.5625 26.078125 56.59375 19.921875 
L 66.609375 0 
L 56 0 
L 46.6875 18.703125 
Q 43.0625 26.03125 39.671875 28.421875 
Q 36.28125 30.8125 30.421875 30.8125 
L 19.671875 30.8125 
L 19.671875 0 
L 9.8125 0 
L 9.8125 72.90625 
L 32.078125 72.90625 
Q 44.578125 72.90625 50.734375 67.671875 
Q 56.890625 62.453125 56.890625 51.90625 
Q 56.890625 45.015625 53.6875 40.46875 
Q 50.484375 35.9375 44.390625 34.1875 
z
M 19.671875 64.796875 
L 19.671875 38.921875 
L 32.078125 38.921875 
Q 39.203125 38.921875 42.84375 42.21875 
Q 46.484375 45.515625 46.484375 51.90625 
Q 46.484375 58.296875 42.84375 61.546875 
Q 39.203125 64.796875 32.078125 64.796875 
z
" id="DejaVuSans-52"/>
      <path d="M 48.78125 52.59375 
L 48.78125 44.1875 
Q 44.96875 46.296875 41.140625 47.34375 
Q 37.3125 48.390625 33.40625 48.390625 
Q 24.65625 48.390625 19.8125 42.84375 
Q 14.984375 37.3125 14.984375 27.296875 
Q 14.984375 17.28125 19.8125 11.734375 
Q 24.65625 6.203125 33.40625 6.203125 
Q 37.3125 6.203125 41.140625 7.25 
Q 44.96875 8.296875 48.78125 10.40625 
L 48.78125 2.09375 
Q 45.015625 0.34375 40.984375 -0.53125 
Q 36.96875 -1.421875 32.421875 -1.421875 
Q 20.0625 -1.421875 12.78125 6.34375 
Q 5.515625 14.109375 5.515625 27.296875 
Q 5.515625 40.671875 12.859375 48.328125 
Q 20.21875 56 33.015625 56 
Q 37.15625 56 41.109375 55.140625 
Q 45.0625 54.296875 48.78125 52.59375 
z
" id="DejaVuSans-63"/>
      <path d="M 2.984375 54.6875 
L 12.5 54.6875 
L 29.59375 8.796875 
L 46.6875 54.6875 
L 56.203125 54.6875 
L 35.6875 0 
L 23.484375 0 
z
" id="DejaVuSans-76"/>
      <path d="M 18.109375 8.203125 
L 18.109375 -20.796875 
L 9.078125 -20.796875 
L 9.078125 54.6875 
L 18.109375 54.6875 
L 18.109375 46.390625 
Q 20.953125 51.265625 25.265625 53.625 
Q 29.59375 56 35.59375 56 
Q 45.5625 56 51.78125 48.09375 
Q 58.015625 40.1875 58.015625 27.296875 
Q 58.015625 14.40625 51.78125 6.484375 
Q 45.5625 -1.421875 35.59375 -1.421875 
Q 29.59375 -1.421875 25.265625 0.953125 
Q 20.953125 3.328125 18.109375 8.203125 
z
M 48.6875 27.296875 
Q 48.6875 37.203125 44.609375 42.84375 
Q 40.53125 48.484375 33.40625 48.484375 
Q 26.265625 48.484375 22.1875 42.84375 
Q 18.109375 37.203125 18.109375 27.296875 
Q 18.109375 17.390625 22.1875 11.75 
Q 26.265625 6.109375 33.40625 6.109375 
Q 40.53125 6.109375 44.609375 11.75 
Q 48.6875 17.390625 48.6875 27.296875 
z
" id="DejaVuSans-70"/>
      <path d="M 4.203125 54.6875 
L 13.1875 54.6875 
L 24.421875 12.015625 
L 35.59375 54.6875 
L 46.1875 54.6875 
L 57.421875 12.015625 
L 68.609375 54.6875 
L 77.59375 54.6875 
L 63.28125 0 
L 52.6875 0 
L 40.921875 44.828125 
L 29.109375 0 
L 18.5 0 
z
" id="DejaVuSans-77"/>
      <path d="M 31 75.875 
Q 24.46875 64.65625 21.28125 53.65625 
Q 18.109375 42.671875 18.109375 31.390625 
Q 18.109375 20.125 21.3125 9.0625 
Q 24.515625 -2 31 -13.1875 
L 23.1875 -13.1875 
Q 15.875 -1.703125 12.234375 9.375 
Q 8.59375 20.453125 8.59375 31.390625 
Q 8.59375 42.28125 12.203125 53.3125 
Q 15.828125 64.359375 23.1875 75.875 
z
" id="DejaVuSans-28"/>
      <path d="M 8.015625 75.875 
L 15.828125 75.875 
Q 23.140625 64.359375 26.78125 53.3125 
Q 30.421875 42.28125 30.421875 31.390625 
Q 30.421875 20.453125 26.78125 9.375 
Q 23.140625 -1.703125 15.828125 -13.1875 
L 8.015625 -13.1875 
Q 14.5 -2 17.703125 9.0625 
Q 20.90625 20.125 20.90625 31.390625 
Q 20.90625 42.671875 17.703125 53.65625 
Q 14.5 64.65625 8.015625 75.875 
z
" id="DejaVuSans-29"/>
     </defs>
     <g transform="translate(20.117344 229.815844)rotate(-90)scale(0.17 -0.17)">
      <use xlink:href="#DejaVuSans-52"/>
      <use x="69.419922" xlink:href="#DejaVuSans-65"/>
      <use x="130.943359" xlink:href="#DejaVuSans-61"/>
      <use x="192.222656" xlink:href="#DejaVuSans-63"/>
      <use x="247.203125" xlink:href="#DejaVuSans-74"/>
      <use x="286.412109" xlink:href="#DejaVuSans-69"/>
      <use x="314.195312" xlink:href="#DejaVuSans-76"/>
      <use x="373.375" xlink:href="#DejaVuSans-65"/>
      <use x="434.898438" xlink:href="#DejaVuSans-20"/>
      <use x="466.685547" xlink:href="#DejaVuSans-70"/>
      <use x="530.162109" xlink:href="#DejaVuSans-6f"/>
      <use x="591.34375" xlink:href="#DejaVuSans-77"/>
      <use x="673.130859" xlink:href="#DejaVuSans-65"/>
      <use x="734.654297" xlink:href="#DejaVuSans-72"/>
      <use x="775.767578" xlink:href="#DejaVuSans-20"/>
      <use x="807.554688" xlink:href="#DejaVuSans-28"/>
      <use x="846.568359" xlink:href="#DejaVuSans-70"/>
      <use x="910.044922" xlink:href="#DejaVuSans-75"/>
      <use x="973.423828" xlink:href="#DejaVuSans-29"/>
     </g>
    </g>
   </g>
   <g id="line2d_27">
    <path clip-path="url(#p3ab7f4ab34)" d="M 75.947259 184.869798 
L 76.597869 189.317001 
L 77.248479 156.824592 
L 77.899089 167.724602 
L 78.5497 192.078337 
L 79.20031 212.001478 
L 79.85092 202.648232 
L 80.501531 163.156979 
L 81.152141 109.769771 
L 81.802751 41.786931 
L 82.453362 33.747914 
L 83.103972 31.771379 
L 83.754582 31.082083 
L 84.405193 32.313265 
L 85.706413 37.167403 
L 86.357024 254.891458 
L 87.007634 52.10353 
L 87.658244 256.851384 
L 88.308854 256.103954 
L 88.959465 257.046546 
L 89.610075 244.261354 
L 90.260685 194.438968 
L 90.911296 180.740251 
L 91.561906 138.217757 
L 92.212516 139.540292 
L 92.863127 139.637873 
L 93.513737 137.327071 
L 94.814958 128.507406 
L 95.465568 126.732261 
L 96.116178 132.151123 
L 96.766788 159.617071 
L 97.417399 177.030095 
L 98.068009 205.97014 
L 98.718619 205.801968 
L 99.36923 215.313005 
L 100.01984 197.320723 
L 100.67045 189.458182 
L 101.321061 171.893596 
L 101.971671 161.759701 
L 102.622281 154.76501 
L 103.272892 152.863217 
L 103.923502 154.289562 
L 106.525943 166.867134 
L 107.176553 168.303859 
L 107.827164 168.95786 
L 108.477774 169.030527 
L 109.128384 168.735707 
L 111.080215 167.377878 
L 111.730826 167.19102 
L 112.381436 167.274068 
L 113.032046 167.583421 
L 114.333267 168.744012 
L 114.983877 169.368946 
L 115.634488 169.701137 
L 116.285098 169.335727 
L 116.935708 168.690031 
L 117.586318 168.791765 
L 118.236929 169.408394 
L 119.538149 171.112948 
L 120.83937 172.829959 
L 122.140591 174.083979 
L 123.441811 174.823103 
L 124.743032 175.192665 
L 126.694863 175.271561 
L 128.646694 175.095084 
L 131.249135 174.80857 
L 132.550356 174.912379 
L 133.851576 175.234189 
L 138.405848 176.803791 
L 139.707069 176.938743 
L 141.00829 176.851543 
L 141.6589 176.741505 
L 142.30951 176.857772 
L 144.261341 177.557448 
L 144.911952 177.671639 
L 145.562562 177.617658 
L 146.213172 177.374743 
L 146.863782 176.949124 
L 148.165003 175.69718 
L 149.466224 174.283293 
L 150.116834 173.770474 
L 154.020496 174.603027 
L 155.972327 174.420322 
L 158.574768 174.069445 
L 161.82782 173.919959 
L 168.984533 173.53794 
L 183.94857 172.925463 
L 199.563218 172.479082 
L 235.346785 171.897748 
L 347.902369 171.285271 
L 366.770068 171.237519 
L 399.951194 171.1607 
L 399.951194 171.1607 
" style="fill:none;stroke:#1f77b4;stroke-linecap:square;stroke-width:0.5;"/>
   </g>
   <g id="line2d_28">
    <path clip-path="url(#p3ab7f4ab34)" d="M 76.597869 189.317001 
L 77.248479 163.256636 
L 77.899089 191.634032 
L 78.5497 200.192096 
L 79.20031 219.452932 
L 79.85092 210.18481 
L 80.501531 174.76497 
L 81.802751 34.287724 
L 82.453362 29.971321 
L 83.103972 29.078558 
L 83.754582 30.463378 
L 85.055803 36.993003 
L 85.706413 57.163211 
L 86.357024 256.029212 
L 87.007634 138.400462 
L 87.658244 258.221671 
L 88.308854 252.202789 
L 88.959465 236.874262 
L 89.610075 209.634619 
L 90.260685 190.668603 
L 90.911296 164.446294 
L 91.561906 144.687172 
L 92.212516 135.59345 
L 93.513737 144.842887 
L 94.814958 148.762738 
L 96.116178 165.829038 
L 97.417399 188.006924 
L 98.068009 194.526168 
L 98.718619 195.302664 
L 99.36923 191.193879 
L 101.321061 168.129459 
L 101.971671 163.41235 
L 102.622281 161.479415 
L 103.272892 161.693263 
L 105.224723 166.047038 
L 105.875333 166.514182 
L 106.525943 166.217286 
L 107.176553 165.378504 
L 108.477774 163.302312 
L 109.128384 162.579797 
L 109.778995 162.251759 
L 110.429605 162.338959 
L 113.032046 166.53702 
L 114.333267 168.322545 
L 114.983877 169.009765 
L 116.285098 169.925366 
L 117.586318 171.173157 
L 119.538149 173.236892 
L 120.83937 174.212703 
L 121.48998 174.528284 
L 122.140591 174.713065 
L 123.441811 174.690227 
L 124.743032 174.526208 
L 127.996083 173.847293 
L 129.297304 173.959407 
L 130.598525 174.393331 
L 135.152797 176.473676 
L 136.454017 176.594095 
L 137.104628 176.9512 
L 139.707069 179.25785 
L 140.357679 179.504917 
L 141.00829 179.494536 
L 141.6589 179.187259 
L 142.30951 178.610078 
L 143.610731 176.903448 
L 144.911952 175.142837 
L 145.562562 174.428627 
L 146.213172 173.897121 
L 146.863782 173.567007 
L 147.514393 173.413369 
L 148.815613 173.496416 
L 150.767444 173.868055 
L 152.068665 173.814074 
L 152.719275 173.604378 
L 154.020496 172.69293 
L 154.671106 171.995329 
L 155.321717 171.7275 
L 156.622937 171.56971 
L 158.574768 171.690129 
L 161.177209 171.820929 
L 180.695519 171.366243 
L 202.165659 171.198071 
L 234.696175 171.094262 
L 245.10594 171.069347 
L 336.841993 170.959309 
L 381.083495 170.928166 
L 400.601804 170.921938 
L 400.601804 170.921938 
" style="fill:none;stroke:#ff7f0e;stroke-linecap:square;stroke-width:0.5;"/>
   </g>
   <g id="line2d_29">
    <path clip-path="url(#p3ab7f4ab34)" d="M 76.597869 189.317001 
L 77.248479 163.258712 
L 77.899089 198.296533 
L 78.5497 203.538918 
L 79.20031 222.21842 
L 79.85092 212.773822 
L 80.501531 179.814269 
L 81.152141 97.453798 
L 81.802751 30.29313 
L 82.453362 27.743566 
L 83.103972 26.85288 
L 83.754582 28.931148 
L 85.055803 37.078127 
L 86.357024 256.83685 
L 87.007634 194.345539 
L 87.658244 258.829995 
L 88.308854 238.043158 
L 88.959465 210.081 
L 89.610075 194.536549 
L 90.911296 152.431369 
L 91.561906 141.950751 
L 92.212516 140.891893 
L 92.863127 147.303175 
L 93.513737 151.634112 
L 94.164347 154.482647 
L 95.465568 164.745266 
L 97.417399 186.904466 
L 98.068009 189.93363 
L 98.718619 188.712829 
L 99.36923 183.950044 
L 100.67045 170.571061 
L 101.321061 165.409647 
L 101.971671 162.519588 
L 102.622281 161.788768 
L 103.272892 162.490521 
L 104.574112 164.828313 
L 105.224723 165.202028 
L 105.875333 164.768104 
L 106.525943 163.655265 
L 107.827164 160.68631 
L 108.477774 159.498728 
L 109.128384 158.796975 
L 109.778995 158.736765 
L 111.080215 162.199854 
L 112.381436 165.154276 
L 113.682657 167.651935 
L 114.333267 168.762698 
L 118.236929 172.82373 
L 119.538149 173.782931 
L 120.18876 174.075674 
L 120.83937 174.223084 
L 122.140591 174.03415 
L 124.092422 173.525483 
L 125.393642 173.164225 
L 126.694863 173.05834 
L 127.996083 173.36354 
L 129.297304 174.059064 
L 132.550356 176.170552 
L 133.851576 176.583714 
L 134.502187 176.743581 
L 135.803407 178.282039 
L 137.104628 179.947146 
L 137.755238 180.551318 
L 138.405848 180.864823 
L 139.056459 180.821223 
L 139.707069 180.389375 
L 140.357679 179.621183 
L 142.960121 175.470875 
L 143.610731 174.800265 
L 144.261341 174.405788 
L 144.911952 174.264607 
L 146.213172 174.385027 
L 147.514393 174.584341 
L 148.815613 174.505446 
L 150.116834 174.03415 
L 151.418055 173.21613 
L 155.321717 170.34268 
L 155.972327 169.964813 
L 156.622937 169.84647 
L 167.683312 170.305309 
L 188.502842 170.660338 
L 206.719931 170.782833 
L 224.28641 170.847195 
L 237.298616 170.863804 
L 247.05777 170.878338 
L 276.985845 170.890795 
L 281.540117 170.884566 
L 300.407816 170.894947 
L 335.540773 170.897024 
L 400.601804 170.911557 
L 400.601804 170.911557 
" style="fill:none;stroke:#2ca02c;stroke-linecap:square;stroke-width:0.5;"/>
   </g>
   <g id="line2d_30">
    <path clip-path="url(#p3ab7f4ab34)" d="M 76.597869 189.317001 
L 77.248479 163.260788 
L 77.899089 201.118078 
L 78.5497 209.171628 
L 79.20031 225.787395 
L 79.85092 215.5227 
L 80.501531 186.923152 
L 81.152141 89.78642 
L 81.802751 28.702767 
L 82.453362 25.291583 
L 83.103972 23.929601 
L 83.754582 26.273622 
L 85.055803 36.490564 
L 85.706413 249.902368 
L 86.357024 61.197252 
L 87.007634 260.798225 
L 87.658244 257.816813 
L 88.308854 244.969335 
L 89.610075 194.285329 
L 90.260685 171.872834 
L 90.911296 153.322056 
L 91.561906 146.229783 
L 92.212516 147.68727 
L 94.164347 164.269818 
L 94.814958 167.390335 
L 96.116178 172.275615 
L 96.766788 174.985046 
L 97.417399 177.158819 
L 98.068009 177.875106 
L 98.718619 176.720743 
L 99.36923 173.982245 
L 100.67045 167.14742 
L 101.321061 164.795094 
L 101.971671 163.754922 
L 102.622281 163.83797 
L 103.923502 165.260161 
L 104.574112 165.444943 
L 105.224723 164.822085 
L 105.875333 163.329303 
L 108.477774 154.995467 
L 109.128384 154.005123 
L 109.778995 154.916572 
L 111.730826 161.377682 
L 113.032046 165.013095 
L 114.333267 167.934297 
L 115.634488 169.624318 
L 116.935708 170.859652 
L 117.586318 171.374548 
L 118.887539 171.980796 
L 119.538149 172.124053 
L 120.83937 171.924739 
L 124.092422 171.019519 
L 125.393642 171.004986 
L 126.044253 171.164852 
L 127.345473 171.829234 
L 129.297304 173.361464 
L 130.598525 174.343503 
L 132.550356 175.555999 
L 133.851576 177.947772 
L 135.152797 180.418441 
L 135.803407 181.319509 
L 136.454017 181.792881 
L 137.104628 181.774195 
L 137.755238 181.253071 
L 138.405848 180.298022 
L 141.00829 175.263256 
L 141.6589 174.478455 
L 142.30951 174.042455 
L 142.960121 173.897121 
L 144.261341 174.092283 
L 145.562562 174.293674 
L 146.213172 174.241769 
L 146.863782 174.061141 
L 147.514393 173.735178 
L 148.815613 172.688777 
L 152.719275 168.964088 
L 154.020496 168.127383 
L 155.321717 167.568887 
L 157.273547 166.904506 
L 159.875989 167.259535 
L 168.984533 168.760622 
L 175.490636 169.368946 
L 180.044908 169.624318 
L 182.64735 169.748889 
L 189.804063 170.072775 
L 202.816269 170.380052 
L 215.177865 170.548223 
L 228.840682 170.66449 
L 237.949226 170.70809 
L 238.599836 170.776604 
L 239.250447 170.666566 
L 239.901057 170.776604 
L 242.503498 170.755842 
L 263.323028 170.799442 
L 319.275515 170.870033 
L 349.8542 170.878338 
L 368.071288 170.884566 
L 400.601804 170.892871 
L 400.601804 170.892871 
" style="fill:none;stroke:#d62728;stroke-linecap:square;stroke-width:0.5;"/>
   </g>
   <g id="line2d_31">
    <path clip-path="url(#p3ab7f4ab34)" d="M 76.597869 189.317001 
L 77.248479 163.260788 
L 77.899089 199.500724 
L 78.5497 216.158015 
L 79.20031 226.723758 
L 79.85092 220.879276 
L 80.501531 193.386338 
L 81.152141 86.302569 
L 81.802751 27.450823 
L 82.453362 23.948287 
L 83.103972 22.796 
L 83.754582 25.187774 
L 85.055803 35.714068 
L 85.706413 256.09565 
L 86.357024 173.868055 
L 87.007634 264.716 
L 87.658244 260.854282 
L 88.308854 231.287228 
L 90.260685 159.648214 
L 90.911296 150.311577 
L 91.561906 151.085997 
L 92.863127 162.61094 
L 93.513737 166.601382 
L 94.164347 168.378602 
L 94.814958 168.735707 
L 96.766788 168.746088 
L 97.417399 167.811802 
L 98.068009 165.841495 
L 99.36923 160.165186 
L 100.01984 158.01425 
L 100.67045 157.233602 
L 101.321061 157.985184 
L 101.971671 159.909814 
L 103.272892 164.286427 
L 103.923502 165.185419 
L 104.574112 164.585399 
L 105.224723 162.478064 
L 106.525943 155.43562 
L 107.176553 151.769064 
L 107.827164 148.816719 
L 108.477774 147.874127 
L 109.778995 152.836227 
L 112.381436 164.010294 
L 113.682657 168.233269 
L 114.333267 169.75927 
L 114.983877 170.888719 
L 115.634488 171.661062 
L 116.285098 172.128206 
L 116.935708 172.319215 
L 117.586318 172.279768 
L 118.236929 172.032701 
L 119.538149 171.063119 
L 121.48998 169.285898 
L 122.140591 168.878965 
L 122.791201 168.644355 
L 123.441811 168.63605 
L 124.092422 168.860279 
L 124.743032 169.310813 
L 126.044253 170.749614 
L 127.996083 173.357311 
L 128.646694 174.528284 
L 129.947914 179.054383 
L 131.249135 183.742425 
L 131.899745 185.571551 
L 132.550356 186.784047 
L 133.200966 187.242885 
L 133.851576 186.923152 
L 134.502187 185.907894 
L 135.803407 182.633738 
L 137.104628 179.490383 
L 137.755238 178.477202 
L 138.405848 177.945696 
L 139.056459 177.850191 
L 139.707069 178.076496 
L 141.6589 179.253697 
L 142.30951 179.351278 
L 142.960121 179.116669 
L 143.610731 178.516649 
L 144.261341 177.574058 
L 145.562562 174.974665 
L 147.514393 170.710166 
L 148.815613 168.453345 
L 150.116834 166.840144 
L 154.671106 162.320273 
L 156.622937 160.003243 
L 157.924158 158.790746 
L 158.574768 158.35267 
L 159.225378 158.238479 
L 160.526599 159.068956 
L 162.47843 161.062101 
L 164.430261 163.084312 
L 165.731482 164.147322 
L 167.032702 164.971571 
L 168.333923 165.586124 
L 170.936364 166.435286 
L 175.490636 167.695535 
L 179.394298 168.386907 
L 184.599181 169.011841 
L 189.153453 169.398013 
L 198.912607 169.921213 
L 211.924814 170.317766 
L 233.394954 170.627119 
L 350.50481 170.894947 
L 367.420678 170.892871 
L 384.987157 170.894947 
L 400.601804 170.865881 
L 400.601804 170.865881 
" style="fill:none;stroke:#9467bd;stroke-linecap:square;stroke-width:0.5;"/>
   </g>
   <g id="line2d_32">
    <path clip-path="url(#p3ab7f4ab34)" d="M 76.597869 170.894947 
L 400.601804 170.894947 
L 400.601804 170.894947 
" style="fill:none;stroke:#8c564b;stroke-dasharray:7.4,3.2;stroke-dashoffset:0;stroke-width:2;"/>
   </g>
   <g id="patch_3">
    <path d="M 59.714531 276.812 
L 59.714531 10.7 
" style="fill:none;stroke:#000000;stroke-linecap:square;stroke-linejoin:miter;stroke-width:0.8;"/>
   </g>
   <g id="patch_4">
    <path d="M 416.834531 276.812 
L 416.834531 10.7 
" style="fill:none;stroke:#000000;stroke-linecap:square;stroke-linejoin:miter;stroke-width:0.8;"/>
   </g>
   <g id="patch_5">
    <path d="M 59.714531 276.812 
L 416.834531 276.812 
" style="fill:none;stroke:#000000;stroke-linecap:square;stroke-linejoin:miter;stroke-width:0.8;"/>
   </g>
   <g id="patch_6">
    <path d="M 59.714531 10.7 
L 416.834531 10.7 
" style="fill:none;stroke:#000000;stroke-linecap:square;stroke-linejoin:miter;stroke-width:0.8;"/>
   </g>
   <g id="legend_1">
    <g id="patch_7">
     <path d="M 71.614531 174.016875 
L 280.249688 174.016875 
Q 283.649688 174.016875 283.649688 170.616875 
L 283.649688 22.6 
Q 283.649688 19.2 280.249688 19.2 
L 71.614531 19.2 
Q 68.214531 19.2 68.214531 22.6 
L 68.214531 170.616875 
Q 68.214531 174.016875 71.614531 174.016875 
z
" style="fill:#ffffff;opacity:0.8;stroke:#cccccc;stroke-linejoin:miter;"/>
    </g>
    <g id="line2d_33">
     <path d="M 75.014531 32.967344 
L 109.014531 32.967344 
" style="fill:none;stroke:#1f77b4;stroke-linecap:square;stroke-width:0.5;"/>
    </g>
    <g id="line2d_34"/>
    <g id="text_16">
     <!-- lamda=50 -->
     <defs>
      <path d="M 9.421875 75.984375 
L 18.40625 75.984375 
L 18.40625 0 
L 9.421875 0 
z
" id="DejaVuSans-6c"/>
      <path d="M 45.40625 46.390625 
L 45.40625 75.984375 
L 54.390625 75.984375 
L 54.390625 0 
L 45.40625 0 
L 45.40625 8.203125 
Q 42.578125 3.328125 38.25 0.953125 
Q 33.9375 -1.421875 27.875 -1.421875 
Q 17.96875 -1.421875 11.734375 6.484375 
Q 5.515625 14.40625 5.515625 27.296875 
Q 5.515625 40.1875 11.734375 48.09375 
Q 17.96875 56 27.875 56 
Q 33.9375 56 38.25 53.625 
Q 42.578125 51.265625 45.40625 46.390625 
z
M 14.796875 27.296875 
Q 14.796875 17.390625 18.875 11.75 
Q 22.953125 6.109375 30.078125 6.109375 
Q 37.203125 6.109375 41.296875 11.75 
Q 45.40625 17.390625 45.40625 27.296875 
Q 45.40625 37.203125 41.296875 42.84375 
Q 37.203125 48.484375 30.078125 48.484375 
Q 22.953125 48.484375 18.875 42.84375 
Q 14.796875 37.203125 14.796875 27.296875 
z
" id="DejaVuSans-64"/>
      <path d="M 10.59375 45.40625 
L 73.1875 45.40625 
L 73.1875 37.203125 
L 10.59375 37.203125 
z
M 10.59375 25.484375 
L 73.1875 25.484375 
L 73.1875 17.1875 
L 10.59375 17.1875 
z
" id="DejaVuSans-3d"/>
     </defs>
     <g transform="translate(122.614531 38.917344)scale(0.17 -0.17)">
      <use xlink:href="#DejaVuSans-6c"/>
      <use x="27.783203" xlink:href="#DejaVuSans-61"/>
      <use x="89.0625" xlink:href="#DejaVuSans-6d"/>
      <use x="186.474609" xlink:href="#DejaVuSans-64"/>
      <use x="249.951172" xlink:href="#DejaVuSans-61"/>
      <use x="311.230469" xlink:href="#DejaVuSans-3d"/>
      <use x="395.019531" xlink:href="#DejaVuSans-35"/>
      <use x="458.642578" xlink:href="#DejaVuSans-30"/>
     </g>
    </g>
    <g id="line2d_35">
     <path d="M 75.014531 57.920156 
L 109.014531 57.920156 
" style="fill:none;stroke:#ff7f0e;stroke-linecap:square;stroke-width:0.5;"/>
    </g>
    <g id="line2d_36"/>
    <g id="text_17">
     <!-- lamda=30 -->
     <g transform="translate(122.614531 63.870156)scale(0.17 -0.17)">
      <use xlink:href="#DejaVuSans-6c"/>
      <use x="27.783203" xlink:href="#DejaVuSans-61"/>
      <use x="89.0625" xlink:href="#DejaVuSans-6d"/>
      <use x="186.474609" xlink:href="#DejaVuSans-64"/>
      <use x="249.951172" xlink:href="#DejaVuSans-61"/>
      <use x="311.230469" xlink:href="#DejaVuSans-3d"/>
      <use x="395.019531" xlink:href="#DejaVuSans-33"/>
      <use x="458.642578" xlink:href="#DejaVuSans-30"/>
     </g>
    </g>
    <g id="line2d_37">
     <path d="M 75.014531 82.872969 
L 109.014531 82.872969 
" style="fill:none;stroke:#2ca02c;stroke-linecap:square;stroke-width:0.5;"/>
    </g>
    <g id="line2d_38"/>
    <g id="text_18">
     <!-- lamda=25 -->
     <g transform="translate(122.614531 88.822969)scale(0.17 -0.17)">
      <use xlink:href="#DejaVuSans-6c"/>
      <use x="27.783203" xlink:href="#DejaVuSans-61"/>
      <use x="89.0625" xlink:href="#DejaVuSans-6d"/>
      <use x="186.474609" xlink:href="#DejaVuSans-64"/>
      <use x="249.951172" xlink:href="#DejaVuSans-61"/>
      <use x="311.230469" xlink:href="#DejaVuSans-3d"/>
      <use x="395.019531" xlink:href="#DejaVuSans-32"/>
      <use x="458.642578" xlink:href="#DejaVuSans-35"/>
     </g>
    </g>
    <g id="line2d_39">
     <path d="M 75.014531 107.825781 
L 109.014531 107.825781 
" style="fill:none;stroke:#d62728;stroke-linecap:square;stroke-width:0.5;"/>
    </g>
    <g id="line2d_40"/>
    <g id="text_19">
     <!-- lamda=20 -->
     <g transform="translate(122.614531 113.775781)scale(0.17 -0.17)">
      <use xlink:href="#DejaVuSans-6c"/>
      <use x="27.783203" xlink:href="#DejaVuSans-61"/>
      <use x="89.0625" xlink:href="#DejaVuSans-6d"/>
      <use x="186.474609" xlink:href="#DejaVuSans-64"/>
      <use x="249.951172" xlink:href="#DejaVuSans-61"/>
      <use x="311.230469" xlink:href="#DejaVuSans-3d"/>
      <use x="395.019531" xlink:href="#DejaVuSans-32"/>
      <use x="458.642578" xlink:href="#DejaVuSans-30"/>
     </g>
    </g>
    <g id="line2d_41">
     <path d="M 75.014531 132.778594 
L 109.014531 132.778594 
" style="fill:none;stroke:#9467bd;stroke-linecap:square;stroke-width:0.5;"/>
    </g>
    <g id="line2d_42"/>
    <g id="text_20">
     <!-- lamda=15 -->
     <g transform="translate(122.614531 138.728594)scale(0.17 -0.17)">
      <use xlink:href="#DejaVuSans-6c"/>
      <use x="27.783203" xlink:href="#DejaVuSans-61"/>
      <use x="89.0625" xlink:href="#DejaVuSans-6d"/>
      <use x="186.474609" xlink:href="#DejaVuSans-64"/>
      <use x="249.951172" xlink:href="#DejaVuSans-61"/>
      <use x="311.230469" xlink:href="#DejaVuSans-3d"/>
      <use x="395.019531" xlink:href="#DejaVuSans-31"/>
      <use x="458.642578" xlink:href="#DejaVuSans-35"/>
     </g>
    </g>
    <g id="line2d_43">
     <path d="M 75.014531 157.731406 
L 109.014531 157.731406 
" style="fill:none;stroke:#8c564b;stroke-dasharray:7.4,3.2;stroke-dashoffset:0;stroke-width:2;"/>
    </g>
    <g id="line2d_44"/>
    <g id="text_21">
     <!-- Connsensus value -->
     <defs>
      <path d="M 64.40625 67.28125 
L 64.40625 56.890625 
Q 59.421875 61.53125 53.78125 63.8125 
Q 48.140625 66.109375 41.796875 66.109375 
Q 29.296875 66.109375 22.65625 58.46875 
Q 16.015625 50.828125 16.015625 36.375 
Q 16.015625 21.96875 22.65625 14.328125 
Q 29.296875 6.6875 41.796875 6.6875 
Q 48.140625 6.6875 53.78125 8.984375 
Q 59.421875 11.28125 64.40625 15.921875 
L 64.40625 5.609375 
Q 59.234375 2.09375 53.4375 0.328125 
Q 47.65625 -1.421875 41.21875 -1.421875 
Q 24.65625 -1.421875 15.125 8.703125 
Q 5.609375 18.84375 5.609375 36.375 
Q 5.609375 53.953125 15.125 64.078125 
Q 24.65625 74.21875 41.21875 74.21875 
Q 47.75 74.21875 53.53125 72.484375 
Q 59.328125 70.75 64.40625 67.28125 
z
" id="DejaVuSans-43"/>
     </defs>
     <g transform="translate(122.614531 163.681406)scale(0.17 -0.17)">
      <use xlink:href="#DejaVuSans-43"/>
      <use x="69.824219" xlink:href="#DejaVuSans-6f"/>
      <use x="131.005859" xlink:href="#DejaVuSans-6e"/>
      <use x="194.384766" xlink:href="#DejaVuSans-6e"/>
      <use x="257.763672" xlink:href="#DejaVuSans-73"/>
      <use x="309.863281" xlink:href="#DejaVuSans-65"/>
      <use x="371.386719" xlink:href="#DejaVuSans-6e"/>
      <use x="434.765625" xlink:href="#DejaVuSans-73"/>
      <use x="486.865234" xlink:href="#DejaVuSans-75"/>
      <use x="550.244141" xlink:href="#DejaVuSans-73"/>
      <use x="602.34375" xlink:href="#DejaVuSans-20"/>
      <use x="634.130859" xlink:href="#DejaVuSans-76"/>
      <use x="693.310547" xlink:href="#DejaVuSans-61"/>
      <use x="754.589844" xlink:href="#DejaVuSans-6c"/>
      <use x="782.373047" xlink:href="#DejaVuSans-75"/>
      <use x="845.751953" xlink:href="#DejaVuSans-65"/>
     </g>
    </g>
   </g>
  </g>
 </g>
 <defs>
  <clipPath id="p3ab7f4ab34">
   <rect height="266.112" width="357.12" x="59.714531" y="10.7"/>
  </clipPath>
 </defs>
</svg>
