<?xml version="1.0" encoding="utf-8" standalone="no"?>
<!DOCTYPE svg PUBLIC "-//W3C//DTD SVG 1.1//EN"
  "http://www.w3.org/Graphics/SVG/1.1/DTD/svg11.dtd">
<!-- Created with matplotlib (http://matplotlib.org/) -->
<svg height="327pt" version="1.1" viewBox="0 0 427 327" width="427pt" xmlns="http://www.w3.org/2000/svg" xmlns:xlink="http://www.w3.org/1999/xlink">
 <defs>
  <style type="text/css">
*{stroke-linecap:butt;stroke-linejoin:round;}
  </style>
 </defs>
 <g id="figure_1">
  <g id="patch_1">
   <path d="M 0 327.917625 
L 427.534531 327.917625 
L 427.534531 0 
L 0 0 
z
" style="fill:#ffffff;"/>
  </g>
  <g id="axes_1">
   <g id="patch_2">
    <path d="M 59.714531 276.812 
L 416.834531 276.812 
L 416.834531 10.7 
L 59.714531 10.7 
z
" style="fill:#ffffff;"/>
   </g>
   <g id="matplotlib.axis_1">
    <g id="xtick_1">
     <g id="line2d_1">
      <path clip-path="url(#p650841ec9b)" d="M 75.947259 276.812 
L 75.947259 10.7 
" style="fill:none;stroke:#b0b0b0;stroke-linecap:square;stroke-width:0.8;"/>
     </g>
     <g id="line2d_2">
      <defs>
       <path d="M 0 0 
L 0 3.5 
" id="mddd99323f9" style="stroke:#000000;stroke-width:0.8;"/>
      </defs>
      <g>
       <use style="stroke:#000000;stroke-width:0.8;" x="75.947259" xlink:href="#mddd99323f9" y="276.812"/>
      </g>
     </g>
     <g id="text_1">
      <!-- 0 -->
      <defs>
       <path d="M 31.78125 66.40625 
Q 24.171875 66.40625 20.328125 58.90625 
Q 16.5 51.421875 16.5 36.375 
Q 16.5 21.390625 20.328125 13.890625 
Q 24.171875 6.390625 31.78125 6.390625 
Q 39.453125 6.390625 43.28125 13.890625 
Q 47.125 21.390625 47.125 36.375 
Q 47.125 51.421875 43.28125 58.90625 
Q 39.453125 66.40625 31.78125 66.40625 
z
M 31.78125 74.21875 
Q 44.046875 74.21875 50.515625 64.515625 
Q 56.984375 54.828125 56.984375 36.375 
Q 56.984375 17.96875 50.515625 8.265625 
Q 44.046875 -1.421875 31.78125 -1.421875 
Q 19.53125 -1.421875 13.0625 8.265625 
Q 6.59375 17.96875 6.59375 36.375 
Q 6.59375 54.828125 13.0625 64.515625 
Q 19.53125 74.21875 31.78125 74.21875 
z
" id="DejaVuSans-30"/>
      </defs>
      <g transform="translate(70.539134 296.729344)scale(0.17 -0.17)">
       <use xlink:href="#DejaVuSans-30"/>
      </g>
     </g>
    </g>
    <g id="xtick_2">
     <g id="line2d_3">
      <path clip-path="url(#p650841ec9b)" d="M 141.00829 276.812 
L 141.00829 10.7 
" style="fill:none;stroke:#b0b0b0;stroke-linecap:square;stroke-width:0.8;"/>
     </g>
     <g id="line2d_4">
      <g>
       <use style="stroke:#000000;stroke-width:0.8;" x="141.00829" xlink:href="#mddd99323f9" y="276.812"/>
      </g>
     </g>
     <g id="text_2">
      <!-- 100 -->
      <defs>
       <path d="M 12.40625 8.296875 
L 28.515625 8.296875 
L 28.515625 63.921875 
L 10.984375 60.40625 
L 10.984375 69.390625 
L 28.421875 72.90625 
L 38.28125 72.90625 
L 38.28125 8.296875 
L 54.390625 8.296875 
L 54.390625 0 
L 12.40625 0 
z
" id="DejaVuSans-31"/>
      </defs>
      <g transform="translate(124.783915 296.729344)scale(0.17 -0.17)">
       <use xlink:href="#DejaVuSans-31"/>
       <use x="63.623047" xlink:href="#DejaVuSans-30"/>
       <use x="127.246094" xlink:href="#DejaVuSans-30"/>
      </g>
     </g>
    </g>
    <g id="xtick_3">
     <g id="line2d_5">
      <path clip-path="url(#p650841ec9b)" d="M 206.069321 276.812 
L 206.069321 10.7 
" style="fill:none;stroke:#b0b0b0;stroke-linecap:square;stroke-width:0.8;"/>
     </g>
     <g id="line2d_6">
      <g>
       <use style="stroke:#000000;stroke-width:0.8;" x="206.069321" xlink:href="#mddd99323f9" y="276.812"/>
      </g>
     </g>
     <g id="text_3">
      <!-- 200 -->
      <defs>
       <path d="M 19.1875 8.296875 
L 53.609375 8.296875 
L 53.609375 0 
L 7.328125 0 
L 7.328125 8.296875 
Q 12.9375 14.109375 22.625 23.890625 
Q 32.328125 33.6875 34.8125 36.53125 
Q 39.546875 41.84375 41.421875 45.53125 
Q 43.3125 49.21875 43.3125 52.78125 
Q 43.3125 58.59375 39.234375 62.25 
Q 35.15625 65.921875 28.609375 65.921875 
Q 23.96875 65.921875 18.8125 64.3125 
Q 13.671875 62.703125 7.8125 59.421875 
L 7.8125 69.390625 
Q 13.765625 71.78125 18.9375 73 
Q 24.125 74.21875 28.421875 74.21875 
Q 39.75 74.21875 46.484375 68.546875 
Q 53.21875 62.890625 53.21875 53.421875 
Q 53.21875 48.921875 51.53125 44.890625 
Q 49.859375 40.875 45.40625 35.40625 
Q 44.1875 33.984375 37.640625 27.21875 
Q 31.109375 20.453125 19.1875 8.296875 
z
" id="DejaVuSans-32"/>
      </defs>
      <g transform="translate(189.844946 296.729344)scale(0.17 -0.17)">
       <use xlink:href="#DejaVuSans-32"/>
       <use x="63.623047" xlink:href="#DejaVuSans-30"/>
       <use x="127.246094" xlink:href="#DejaVuSans-30"/>
      </g>
     </g>
    </g>
    <g id="xtick_4">
     <g id="line2d_7">
      <path clip-path="url(#p650841ec9b)" d="M 271.130352 276.812 
L 271.130352 10.7 
" style="fill:none;stroke:#b0b0b0;stroke-linecap:square;stroke-width:0.8;"/>
     </g>
     <g id="line2d_8">
      <g>
       <use style="stroke:#000000;stroke-width:0.8;" x="271.130352" xlink:href="#mddd99323f9" y="276.812"/>
      </g>
     </g>
     <g id="text_4">
      <!-- 300 -->
      <defs>
       <path d="M 40.578125 39.3125 
Q 47.65625 37.796875 51.625 33 
Q 55.609375 28.21875 55.609375 21.1875 
Q 55.609375 10.40625 48.1875 4.484375 
Q 40.765625 -1.421875 27.09375 -1.421875 
Q 22.515625 -1.421875 17.65625 -0.515625 
Q 12.796875 0.390625 7.625 2.203125 
L 7.625 11.71875 
Q 11.71875 9.328125 16.59375 8.109375 
Q 21.484375 6.890625 26.8125 6.890625 
Q 36.078125 6.890625 40.9375 10.546875 
Q 45.796875 14.203125 45.796875 21.1875 
Q 45.796875 27.640625 41.28125 31.265625 
Q 36.765625 34.90625 28.71875 34.90625 
L 20.21875 34.90625 
L 20.21875 43.015625 
L 29.109375 43.015625 
Q 36.375 43.015625 40.234375 45.921875 
Q 44.09375 48.828125 44.09375 54.296875 
Q 44.09375 59.90625 40.109375 62.90625 
Q 36.140625 65.921875 28.71875 65.921875 
Q 24.65625 65.921875 20.015625 65.03125 
Q 15.375 64.15625 9.8125 62.3125 
L 9.8125 71.09375 
Q 15.4375 72.65625 20.34375 73.4375 
Q 25.25 74.21875 29.59375 74.21875 
Q 40.828125 74.21875 47.359375 69.109375 
Q 53.90625 64.015625 53.90625 55.328125 
Q 53.90625 49.265625 50.4375 45.09375 
Q 46.96875 40.921875 40.578125 39.3125 
z
" id="DejaVuSans-33"/>
      </defs>
      <g transform="translate(254.905977 296.729344)scale(0.17 -0.17)">
       <use xlink:href="#DejaVuSans-33"/>
       <use x="63.623047" xlink:href="#DejaVuSans-30"/>
       <use x="127.246094" xlink:href="#DejaVuSans-30"/>
      </g>
     </g>
    </g>
    <g id="xtick_5">
     <g id="line2d_9">
      <path clip-path="url(#p650841ec9b)" d="M 336.191383 276.812 
L 336.191383 10.7 
" style="fill:none;stroke:#b0b0b0;stroke-linecap:square;stroke-width:0.8;"/>
     </g>
     <g id="line2d_10">
      <g>
       <use style="stroke:#000000;stroke-width:0.8;" x="336.191383" xlink:href="#mddd99323f9" y="276.812"/>
      </g>
     </g>
     <g id="text_5">
      <!-- 400 -->
      <defs>
       <path d="M 37.796875 64.3125 
L 12.890625 25.390625 
L 37.796875 25.390625 
z
M 35.203125 72.90625 
L 47.609375 72.90625 
L 47.609375 25.390625 
L 58.015625 25.390625 
L 58.015625 17.1875 
L 47.609375 17.1875 
L 47.609375 0 
L 37.796875 0 
L 37.796875 17.1875 
L 4.890625 17.1875 
L 4.890625 26.703125 
z
" id="DejaVuSans-34"/>
      </defs>
      <g transform="translate(319.967008 296.729344)scale(0.17 -0.17)">
       <use xlink:href="#DejaVuSans-34"/>
       <use x="63.623047" xlink:href="#DejaVuSans-30"/>
       <use x="127.246094" xlink:href="#DejaVuSans-30"/>
      </g>
     </g>
    </g>
    <g id="xtick_6">
     <g id="line2d_11">
      <path clip-path="url(#p650841ec9b)" d="M 401.252414 276.812 
L 401.252414 10.7 
" style="fill:none;stroke:#b0b0b0;stroke-linecap:square;stroke-width:0.8;"/>
     </g>
     <g id="line2d_12">
      <g>
       <use style="stroke:#000000;stroke-width:0.8;" x="401.252414" xlink:href="#mddd99323f9" y="276.812"/>
      </g>
     </g>
     <g id="text_6">
      <!-- 500 -->
      <defs>
       <path d="M 10.796875 72.90625 
L 49.515625 72.90625 
L 49.515625 64.59375 
L 19.828125 64.59375 
L 19.828125 46.734375 
Q 21.96875 47.46875 24.109375 47.828125 
Q 26.265625 48.1875 28.421875 48.1875 
Q 40.625 48.1875 47.75 41.5 
Q 54.890625 34.8125 54.890625 23.390625 
Q 54.890625 11.625 47.5625 5.09375 
Q 40.234375 -1.421875 26.90625 -1.421875 
Q 22.3125 -1.421875 17.546875 -0.640625 
Q 12.796875 0.140625 7.71875 1.703125 
L 7.71875 11.625 
Q 12.109375 9.234375 16.796875 8.0625 
Q 21.484375 6.890625 26.703125 6.890625 
Q 35.15625 6.890625 40.078125 11.328125 
Q 45.015625 15.765625 45.015625 23.390625 
Q 45.015625 31 40.078125 35.4375 
Q 35.15625 39.890625 26.703125 39.890625 
Q 22.75 39.890625 18.8125 39.015625 
Q 14.890625 38.140625 10.796875 36.28125 
z
" id="DejaVuSans-35"/>
      </defs>
      <g transform="translate(385.028039 296.729344)scale(0.17 -0.17)">
       <use xlink:href="#DejaVuSans-35"/>
       <use x="63.623047" xlink:href="#DejaVuSans-30"/>
       <use x="127.246094" xlink:href="#DejaVuSans-30"/>
      </g>
     </g>
    </g>
    <g id="text_7">
     <!-- Number of iterations -->
     <defs>
      <path d="M 9.8125 72.90625 
L 23.09375 72.90625 
L 55.421875 11.921875 
L 55.421875 72.90625 
L 64.984375 72.90625 
L 64.984375 0 
L 51.703125 0 
L 19.390625 60.984375 
L 19.390625 0 
L 9.8125 0 
z
" id="DejaVuSans-4e"/>
      <path d="M 8.5 21.578125 
L 8.5 54.6875 
L 17.484375 54.6875 
L 17.484375 21.921875 
Q 17.484375 14.15625 20.5 10.265625 
Q 23.53125 6.390625 29.59375 6.390625 
Q 36.859375 6.390625 41.078125 11.03125 
Q 45.3125 15.671875 45.3125 23.6875 
L 45.3125 54.6875 
L 54.296875 54.6875 
L 54.296875 0 
L 45.3125 0 
L 45.3125 8.40625 
Q 42.046875 3.421875 37.71875 1 
Q 33.40625 -1.421875 27.6875 -1.421875 
Q 18.265625 -1.421875 13.375 4.4375 
Q 8.5 10.296875 8.5 21.578125 
z
M 31.109375 56 
z
" id="DejaVuSans-75"/>
      <path d="M 52 44.1875 
Q 55.375 50.25 60.0625 53.125 
Q 64.75 56 71.09375 56 
Q 79.640625 56 84.28125 50.015625 
Q 88.921875 44.046875 88.921875 33.015625 
L 88.921875 0 
L 79.890625 0 
L 79.890625 32.71875 
Q 79.890625 40.578125 77.09375 44.375 
Q 74.3125 48.1875 68.609375 48.1875 
Q 61.625 48.1875 57.5625 43.546875 
Q 53.515625 38.921875 53.515625 30.90625 
L 53.515625 0 
L 44.484375 0 
L 44.484375 32.71875 
Q 44.484375 40.625 41.703125 44.40625 
Q 38.921875 48.1875 33.109375 48.1875 
Q 26.21875 48.1875 22.15625 43.53125 
Q 18.109375 38.875 18.109375 30.90625 
L 18.109375 0 
L 9.078125 0 
L 9.078125 54.6875 
L 18.109375 54.6875 
L 18.109375 46.1875 
Q 21.1875 51.21875 25.484375 53.609375 
Q 29.78125 56 35.6875 56 
Q 41.65625 56 45.828125 52.96875 
Q 50 49.953125 52 44.1875 
z
" id="DejaVuSans-6d"/>
      <path d="M 48.6875 27.296875 
Q 48.6875 37.203125 44.609375 42.84375 
Q 40.53125 48.484375 33.40625 48.484375 
Q 26.265625 48.484375 22.1875 42.84375 
Q 18.109375 37.203125 18.109375 27.296875 
Q 18.109375 17.390625 22.1875 11.75 
Q 26.265625 6.109375 33.40625 6.109375 
Q 40.53125 6.109375 44.609375 11.75 
Q 48.6875 17.390625 48.6875 27.296875 
z
M 18.109375 46.390625 
Q 20.953125 51.265625 25.265625 53.625 
Q 29.59375 56 35.59375 56 
Q 45.5625 56 51.78125 48.09375 
Q 58.015625 40.1875 58.015625 27.296875 
Q 58.015625 14.40625 51.78125 6.484375 
Q 45.5625 -1.421875 35.59375 -1.421875 
Q 29.59375 -1.421875 25.265625 0.953125 
Q 20.953125 3.328125 18.109375 8.203125 
L 18.109375 0 
L 9.078125 0 
L 9.078125 75.984375 
L 18.109375 75.984375 
z
" id="DejaVuSans-62"/>
      <path d="M 56.203125 29.59375 
L 56.203125 25.203125 
L 14.890625 25.203125 
Q 15.484375 15.921875 20.484375 11.0625 
Q 25.484375 6.203125 34.421875 6.203125 
Q 39.59375 6.203125 44.453125 7.46875 
Q 49.3125 8.734375 54.109375 11.28125 
L 54.109375 2.78125 
Q 49.265625 0.734375 44.1875 -0.34375 
Q 39.109375 -1.421875 33.890625 -1.421875 
Q 20.796875 -1.421875 13.15625 6.1875 
Q 5.515625 13.8125 5.515625 26.8125 
Q 5.515625 40.234375 12.765625 48.109375 
Q 20.015625 56 32.328125 56 
Q 43.359375 56 49.78125 48.890625 
Q 56.203125 41.796875 56.203125 29.59375 
z
M 47.21875 32.234375 
Q 47.125 39.59375 43.09375 43.984375 
Q 39.0625 48.390625 32.421875 48.390625 
Q 24.90625 48.390625 20.390625 44.140625 
Q 15.875 39.890625 15.1875 32.171875 
z
" id="DejaVuSans-65"/>
      <path d="M 41.109375 46.296875 
Q 39.59375 47.171875 37.8125 47.578125 
Q 36.03125 48 33.890625 48 
Q 26.265625 48 22.1875 43.046875 
Q 18.109375 38.09375 18.109375 28.8125 
L 18.109375 0 
L 9.078125 0 
L 9.078125 54.6875 
L 18.109375 54.6875 
L 18.109375 46.1875 
Q 20.953125 51.171875 25.484375 53.578125 
Q 30.03125 56 36.53125 56 
Q 37.453125 56 38.578125 55.875 
Q 39.703125 55.765625 41.0625 55.515625 
z
" id="DejaVuSans-72"/>
      <path id="DejaVuSans-20"/>
      <path d="M 30.609375 48.390625 
Q 23.390625 48.390625 19.1875 42.75 
Q 14.984375 37.109375 14.984375 27.296875 
Q 14.984375 17.484375 19.15625 11.84375 
Q 23.34375 6.203125 30.609375 6.203125 
Q 37.796875 6.203125 41.984375 11.859375 
Q 46.1875 17.53125 46.1875 27.296875 
Q 46.1875 37.015625 41.984375 42.703125 
Q 37.796875 48.390625 30.609375 48.390625 
z
M 30.609375 56 
Q 42.328125 56 49.015625 48.375 
Q 55.71875 40.765625 55.71875 27.296875 
Q 55.71875 13.875 49.015625 6.21875 
Q 42.328125 -1.421875 30.609375 -1.421875 
Q 18.84375 -1.421875 12.171875 6.21875 
Q 5.515625 13.875 5.515625 27.296875 
Q 5.515625 40.765625 12.171875 48.375 
Q 18.84375 56 30.609375 56 
z
" id="DejaVuSans-6f"/>
      <path d="M 37.109375 75.984375 
L 37.109375 68.5 
L 28.515625 68.5 
Q 23.6875 68.5 21.796875 66.546875 
Q 19.921875 64.59375 19.921875 59.515625 
L 19.921875 54.6875 
L 34.71875 54.6875 
L 34.71875 47.703125 
L 19.921875 47.703125 
L 19.921875 0 
L 10.890625 0 
L 10.890625 47.703125 
L 2.296875 47.703125 
L 2.296875 54.6875 
L 10.890625 54.6875 
L 10.890625 58.5 
Q 10.890625 67.625 15.140625 71.796875 
Q 19.390625 75.984375 28.609375 75.984375 
z
" id="DejaVuSans-66"/>
      <path d="M 9.421875 54.6875 
L 18.40625 54.6875 
L 18.40625 0 
L 9.421875 0 
z
M 9.421875 75.984375 
L 18.40625 75.984375 
L 18.40625 64.59375 
L 9.421875 64.59375 
z
" id="DejaVuSans-69"/>
      <path d="M 18.3125 70.21875 
L 18.3125 54.6875 
L 36.8125 54.6875 
L 36.8125 47.703125 
L 18.3125 47.703125 
L 18.3125 18.015625 
Q 18.3125 11.328125 20.140625 9.421875 
Q 21.96875 7.515625 27.59375 7.515625 
L 36.8125 7.515625 
L 36.8125 0 
L 27.59375 0 
Q 17.1875 0 13.234375 3.875 
Q 9.28125 7.765625 9.28125 18.015625 
L 9.28125 47.703125 
L 2.6875 47.703125 
L 2.6875 54.6875 
L 9.28125 54.6875 
L 9.28125 70.21875 
z
" id="DejaVuSans-74"/>
      <path d="M 34.28125 27.484375 
Q 23.390625 27.484375 19.1875 25 
Q 14.984375 22.515625 14.984375 16.5 
Q 14.984375 11.71875 18.140625 8.90625 
Q 21.296875 6.109375 26.703125 6.109375 
Q 34.1875 6.109375 38.703125 11.40625 
Q 43.21875 16.703125 43.21875 25.484375 
L 43.21875 27.484375 
z
M 52.203125 31.203125 
L 52.203125 0 
L 43.21875 0 
L 43.21875 8.296875 
Q 40.140625 3.328125 35.546875 0.953125 
Q 30.953125 -1.421875 24.3125 -1.421875 
Q 15.921875 -1.421875 10.953125 3.296875 
Q 6 8.015625 6 15.921875 
Q 6 25.140625 12.171875 29.828125 
Q 18.359375 34.515625 30.609375 34.515625 
L 43.21875 34.515625 
L 43.21875 35.40625 
Q 43.21875 41.609375 39.140625 45 
Q 35.0625 48.390625 27.6875 48.390625 
Q 23 48.390625 18.546875 47.265625 
Q 14.109375 46.140625 10.015625 43.890625 
L 10.015625 52.203125 
Q 14.9375 54.109375 19.578125 55.046875 
Q 24.21875 56 28.609375 56 
Q 40.484375 56 46.34375 49.84375 
Q 52.203125 43.703125 52.203125 31.203125 
z
" id="DejaVuSans-61"/>
      <path d="M 54.890625 33.015625 
L 54.890625 0 
L 45.90625 0 
L 45.90625 32.71875 
Q 45.90625 40.484375 42.875 44.328125 
Q 39.84375 48.1875 33.796875 48.1875 
Q 26.515625 48.1875 22.3125 43.546875 
Q 18.109375 38.921875 18.109375 30.90625 
L 18.109375 0 
L 9.078125 0 
L 9.078125 54.6875 
L 18.109375 54.6875 
L 18.109375 46.1875 
Q 21.34375 51.125 25.703125 53.5625 
Q 30.078125 56 35.796875 56 
Q 45.21875 56 50.046875 50.171875 
Q 54.890625 44.34375 54.890625 33.015625 
z
" id="DejaVuSans-6e"/>
      <path d="M 44.28125 53.078125 
L 44.28125 44.578125 
Q 40.484375 46.53125 36.375 47.5 
Q 32.28125 48.484375 27.875 48.484375 
Q 21.1875 48.484375 17.84375 46.4375 
Q 14.5 44.390625 14.5 40.28125 
Q 14.5 37.15625 16.890625 35.375 
Q 19.28125 33.59375 26.515625 31.984375 
L 29.59375 31.296875 
Q 39.15625 29.25 43.1875 25.515625 
Q 47.21875 21.78125 47.21875 15.09375 
Q 47.21875 7.46875 41.1875 3.015625 
Q 35.15625 -1.421875 24.609375 -1.421875 
Q 20.21875 -1.421875 15.453125 -0.5625 
Q 10.6875 0.296875 5.421875 2 
L 5.421875 11.28125 
Q 10.40625 8.6875 15.234375 7.390625 
Q 20.0625 6.109375 24.8125 6.109375 
Q 31.15625 6.109375 34.5625 8.28125 
Q 37.984375 10.453125 37.984375 14.40625 
Q 37.984375 18.0625 35.515625 20.015625 
Q 33.0625 21.96875 24.703125 23.78125 
L 21.578125 24.515625 
Q 13.234375 26.265625 9.515625 29.90625 
Q 5.8125 33.546875 5.8125 39.890625 
Q 5.8125 47.609375 11.28125 51.796875 
Q 16.75 56 26.8125 56 
Q 31.78125 56 36.171875 55.265625 
Q 40.578125 54.546875 44.28125 53.078125 
z
" id="DejaVuSans-73"/>
     </defs>
     <g transform="translate(150.195938 317.182156)scale(0.17 -0.17)">
      <use xlink:href="#DejaVuSans-4e"/>
      <use x="74.804688" xlink:href="#DejaVuSans-75"/>
      <use x="138.183594" xlink:href="#DejaVuSans-6d"/>
      <use x="235.595703" xlink:href="#DejaVuSans-62"/>
      <use x="299.072266" xlink:href="#DejaVuSans-65"/>
      <use x="360.595703" xlink:href="#DejaVuSans-72"/>
      <use x="401.708984" xlink:href="#DejaVuSans-20"/>
      <use x="433.496094" xlink:href="#DejaVuSans-6f"/>
      <use x="494.677734" xlink:href="#DejaVuSans-66"/>
      <use x="529.882812" xlink:href="#DejaVuSans-20"/>
      <use x="561.669922" xlink:href="#DejaVuSans-69"/>
      <use x="589.453125" xlink:href="#DejaVuSans-74"/>
      <use x="628.662109" xlink:href="#DejaVuSans-65"/>
      <use x="690.185547" xlink:href="#DejaVuSans-72"/>
      <use x="731.298828" xlink:href="#DejaVuSans-61"/>
      <use x="792.578125" xlink:href="#DejaVuSans-74"/>
      <use x="831.787109" xlink:href="#DejaVuSans-69"/>
      <use x="859.570312" xlink:href="#DejaVuSans-6f"/>
      <use x="920.751953" xlink:href="#DejaVuSans-6e"/>
      <use x="984.130859" xlink:href="#DejaVuSans-73"/>
     </g>
    </g>
   </g>
   <g id="matplotlib.axis_2">
    <g id="ytick_1">
     <g id="line2d_13">
      <path clip-path="url(#p650841ec9b)" d="M 59.714531 231.106299 
L 416.834531 231.106299 
" style="fill:none;stroke:#b0b0b0;stroke-linecap:square;stroke-width:0.8;"/>
     </g>
     <g id="line2d_14">
      <defs>
       <path d="M 0 0 
L -3.5 0 
" id="mc4a42a3673" style="stroke:#000000;stroke-width:0.8;"/>
      </defs>
      <g>
       <use style="stroke:#000000;stroke-width:0.8;" x="59.714531" xlink:href="#mc4a42a3673" y="231.106299"/>
      </g>
     </g>
     <g id="text_8">
      <!-- −1 -->
      <defs>
       <path d="M 10.59375 35.5 
L 73.1875 35.5 
L 73.1875 27.203125 
L 10.59375 27.203125 
z
" id="DejaVuSans-2212"/>
      </defs>
      <g transform="translate(27.652813 237.564971)scale(0.17 -0.17)">
       <use xlink:href="#DejaVuSans-2212"/>
       <use x="83.789062" xlink:href="#DejaVuSans-31"/>
      </g>
     </g>
    </g>
    <g id="ytick_2">
     <g id="line2d_15">
      <path clip-path="url(#p650841ec9b)" d="M 59.714531 174.780339 
L 416.834531 174.780339 
" style="fill:none;stroke:#b0b0b0;stroke-linecap:square;stroke-width:0.8;"/>
     </g>
     <g id="line2d_16">
      <g>
       <use style="stroke:#000000;stroke-width:0.8;" x="59.714531" xlink:href="#mc4a42a3673" y="174.780339"/>
      </g>
     </g>
     <g id="text_9">
      <!-- 0 -->
      <g transform="translate(41.898281 181.239011)scale(0.17 -0.17)">
       <use xlink:href="#DejaVuSans-30"/>
      </g>
     </g>
    </g>
    <g id="ytick_3">
     <g id="line2d_17">
      <path clip-path="url(#p650841ec9b)" d="M 59.714531 118.454379 
L 416.834531 118.454379 
" style="fill:none;stroke:#b0b0b0;stroke-linecap:square;stroke-width:0.8;"/>
     </g>
     <g id="line2d_18">
      <g>
       <use style="stroke:#000000;stroke-width:0.8;" x="59.714531" xlink:href="#mc4a42a3673" y="118.454379"/>
      </g>
     </g>
     <g id="text_10">
      <!-- 1 -->
      <g transform="translate(41.898281 124.91305)scale(0.17 -0.17)">
       <use xlink:href="#DejaVuSans-31"/>
      </g>
     </g>
    </g>
    <g id="ytick_4">
     <g id="line2d_19">
      <path clip-path="url(#p650841ec9b)" d="M 59.714531 62.128418 
L 416.834531 62.128418 
" style="fill:none;stroke:#b0b0b0;stroke-linecap:square;stroke-width:0.8;"/>
     </g>
     <g id="line2d_20">
      <g>
       <use style="stroke:#000000;stroke-width:0.8;" x="59.714531" xlink:href="#mc4a42a3673" y="62.128418"/>
      </g>
     </g>
     <g id="text_11">
      <!-- 2 -->
      <g transform="translate(41.898281 68.58709)scale(0.17 -0.17)">
       <use xlink:href="#DejaVuSans-32"/>
      </g>
     </g>
    </g>
    <g id="text_12">
     <!-- Reactive power (pu) -->
     <defs>
      <path d="M 44.390625 34.1875 
Q 47.5625 33.109375 50.5625 29.59375 
Q 53.5625 26.078125 56.59375 19.921875 
L 66.609375 0 
L 56 0 
L 46.6875 18.703125 
Q 43.0625 26.03125 39.671875 28.421875 
Q 36.28125 30.8125 30.421875 30.8125 
L 19.671875 30.8125 
L 19.671875 0 
L 9.8125 0 
L 9.8125 72.90625 
L 32.078125 72.90625 
Q 44.578125 72.90625 50.734375 67.671875 
Q 56.890625 62.453125 56.890625 51.90625 
Q 56.890625 45.015625 53.6875 40.46875 
Q 50.484375 35.9375 44.390625 34.1875 
z
M 19.671875 64.796875 
L 19.671875 38.921875 
L 32.078125 38.921875 
Q 39.203125 38.921875 42.84375 42.21875 
Q 46.484375 45.515625 46.484375 51.90625 
Q 46.484375 58.296875 42.84375 61.546875 
Q 39.203125 64.796875 32.078125 64.796875 
z
" id="DejaVuSans-52"/>
      <path d="M 48.78125 52.59375 
L 48.78125 44.1875 
Q 44.96875 46.296875 41.140625 47.34375 
Q 37.3125 48.390625 33.40625 48.390625 
Q 24.65625 48.390625 19.8125 42.84375 
Q 14.984375 37.3125 14.984375 27.296875 
Q 14.984375 17.28125 19.8125 11.734375 
Q 24.65625 6.203125 33.40625 6.203125 
Q 37.3125 6.203125 41.140625 7.25 
Q 44.96875 8.296875 48.78125 10.40625 
L 48.78125 2.09375 
Q 45.015625 0.34375 40.984375 -0.53125 
Q 36.96875 -1.421875 32.421875 -1.421875 
Q 20.0625 -1.421875 12.78125 6.34375 
Q 5.515625 14.109375 5.515625 27.296875 
Q 5.515625 40.671875 12.859375 48.328125 
Q 20.21875 56 33.015625 56 
Q 37.15625 56 41.109375 55.140625 
Q 45.0625 54.296875 48.78125 52.59375 
z
" id="DejaVuSans-63"/>
      <path d="M 2.984375 54.6875 
L 12.5 54.6875 
L 29.59375 8.796875 
L 46.6875 54.6875 
L 56.203125 54.6875 
L 35.6875 0 
L 23.484375 0 
z
" id="DejaVuSans-76"/>
      <path d="M 18.109375 8.203125 
L 18.109375 -20.796875 
L 9.078125 -20.796875 
L 9.078125 54.6875 
L 18.109375 54.6875 
L 18.109375 46.390625 
Q 20.953125 51.265625 25.265625 53.625 
Q 29.59375 56 35.59375 56 
Q 45.5625 56 51.78125 48.09375 
Q 58.015625 40.1875 58.015625 27.296875 
Q 58.015625 14.40625 51.78125 6.484375 
Q 45.5625 -1.421875 35.59375 -1.421875 
Q 29.59375 -1.421875 25.265625 0.953125 
Q 20.953125 3.328125 18.109375 8.203125 
z
M 48.6875 27.296875 
Q 48.6875 37.203125 44.609375 42.84375 
Q 40.53125 48.484375 33.40625 48.484375 
Q 26.265625 48.484375 22.1875 42.84375 
Q 18.109375 37.203125 18.109375 27.296875 
Q 18.109375 17.390625 22.1875 11.75 
Q 26.265625 6.109375 33.40625 6.109375 
Q 40.53125 6.109375 44.609375 11.75 
Q 48.6875 17.390625 48.6875 27.296875 
z
" id="DejaVuSans-70"/>
      <path d="M 4.203125 54.6875 
L 13.1875 54.6875 
L 24.421875 12.015625 
L 35.59375 54.6875 
L 46.1875 54.6875 
L 57.421875 12.015625 
L 68.609375 54.6875 
L 77.59375 54.6875 
L 63.28125 0 
L 52.6875 0 
L 40.921875 44.828125 
L 29.109375 0 
L 18.5 0 
z
" id="DejaVuSans-77"/>
      <path d="M 31 75.875 
Q 24.46875 64.65625 21.28125 53.65625 
Q 18.109375 42.671875 18.109375 31.390625 
Q 18.109375 20.125 21.3125 9.0625 
Q 24.515625 -2 31 -13.1875 
L 23.1875 -13.1875 
Q 15.875 -1.703125 12.234375 9.375 
Q 8.59375 20.453125 8.59375 31.390625 
Q 8.59375 42.28125 12.203125 53.3125 
Q 15.828125 64.359375 23.1875 75.875 
z
" id="DejaVuSans-28"/>
      <path d="M 8.015625 75.875 
L 15.828125 75.875 
Q 23.140625 64.359375 26.78125 53.3125 
Q 30.421875 42.28125 30.421875 31.390625 
Q 30.421875 20.453125 26.78125 9.375 
Q 23.140625 -1.703125 15.828125 -13.1875 
L 8.015625 -13.1875 
Q 14.5 -2 17.703125 9.0625 
Q 20.90625 20.125 20.90625 31.390625 
Q 20.90625 42.671875 17.703125 53.65625 
Q 14.5 64.65625 8.015625 75.875 
z
" id="DejaVuSans-29"/>
     </defs>
     <g transform="translate(20.117344 229.815844)rotate(-90)scale(0.17 -0.17)">
      <use xlink:href="#DejaVuSans-52"/>
      <use x="69.419922" xlink:href="#DejaVuSans-65"/>
      <use x="130.943359" xlink:href="#DejaVuSans-61"/>
      <use x="192.222656" xlink:href="#DejaVuSans-63"/>
      <use x="247.203125" xlink:href="#DejaVuSans-74"/>
      <use x="286.412109" xlink:href="#DejaVuSans-69"/>
      <use x="314.195312" xlink:href="#DejaVuSans-76"/>
      <use x="373.375" xlink:href="#DejaVuSans-65"/>
      <use x="434.898438" xlink:href="#DejaVuSans-20"/>
      <use x="466.685547" xlink:href="#DejaVuSans-70"/>
      <use x="530.162109" xlink:href="#DejaVuSans-6f"/>
      <use x="591.34375" xlink:href="#DejaVuSans-77"/>
      <use x="673.130859" xlink:href="#DejaVuSans-65"/>
      <use x="734.654297" xlink:href="#DejaVuSans-72"/>
      <use x="775.767578" xlink:href="#DejaVuSans-20"/>
      <use x="807.554688" xlink:href="#DejaVuSans-28"/>
      <use x="846.568359" xlink:href="#DejaVuSans-70"/>
      <use x="910.044922" xlink:href="#DejaVuSans-75"/>
      <use x="973.423828" xlink:href="#DejaVuSans-29"/>
     </g>
    </g>
   </g>
   <g id="line2d_21">
    <path clip-path="url(#p650841ec9b)" d="M 75.947259 174.780339 
L 76.597869 183.775595 
L 77.899089 95.563508 
L 78.5497 57.149203 
L 79.20031 45.833318 
L 79.85092 29.318546 
L 80.501531 22.796 
L 81.152141 32.562922 
L 81.802751 51.747544 
L 82.453362 74.86935 
L 83.103972 92.949984 
L 83.754582 103.257634 
L 84.405193 100.942637 
L 85.055803 95.107268 
L 85.706413 91.969912 
L 86.357024 93.113329 
L 87.007634 97.698262 
L 87.658244 106.924454 
L 88.308854 118.995108 
L 89.610075 147.034171 
L 90.260685 157.933244 
L 90.911296 163.881266 
L 91.561906 164.179793 
L 92.212516 155.454902 
L 93.513737 133.476512 
L 94.164347 129.730836 
L 94.814958 130.040629 
L 95.465568 133.566634 
L 96.766788 141.700102 
L 97.417399 145.169782 
L 98.068009 147.332698 
L 98.718619 148.307138 
L 99.36923 147.208781 
L 100.01984 144.967008 
L 100.67045 141.778959 
L 101.321061 137.76855 
L 103.272892 121.428389 
L 104.574112 110.540581 
L 105.875333 101.500264 
L 106.525943 98.109442 
L 107.176553 95.912729 
L 107.827164 95.845138 
L 108.477774 96.233787 
L 109.128384 96.323909 
L 109.778995 96.008483 
L 111.730826 94.22295 
L 112.381436 94.149727 
L 113.032046 94.679191 
L 113.682657 96.312644 
L 115.634488 104.164482 
L 117.586318 111.030617 
L 119.538149 119.361227 
L 120.18876 121.49598 
L 120.83937 122.904129 
L 121.48998 123.540613 
L 122.140591 123.506817 
L 122.791201 123.028047 
L 124.092422 121.738182 
L 124.743032 121.355166 
L 125.393642 121.281942 
L 126.044253 121.501613 
L 127.996083 122.695723 
L 128.646694 122.830906 
L 129.297304 122.701356 
L 129.947914 122.312707 
L 131.249135 121.045373 
L 132.550356 119.637224 
L 133.851576 118.634622 
L 134.502187 118.358624 
L 135.152797 118.223442 
L 136.454017 118.279768 
L 139.056459 118.634622 
L 140.357679 118.555765 
L 142.30951 118.26287 
L 142.960121 118.398053 
L 144.261341 119.079597 
L 145.562562 118.786702 
L 146.863782 118.054464 
L 148.815613 116.561826 
L 150.116834 115.604285 
L 150.767444 115.508531 
L 151.418055 115.666244 
L 152.719275 116.516766 
L 154.020496 117.389818 
L 154.671106 117.648917 
L 155.321717 117.767202 
L 156.622937 117.626387 
L 159.225378 116.91668 
L 160.526599 116.899782 
L 162.47843 117.277166 
L 163.779651 117.519368 
L 166.382092 117.525 
L 168.984533 117.401083 
L 181.996739 117.637652 
L 206.069321 117.530633 
L 227.539461 117.24337 
L 239.250447 117.04623 
L 252.262653 116.826558 
L 263.323028 116.640683 
L 277.636455 116.409746 
L 321.227346 115.761998 
L 329.68528 115.654978 
L 349.8542 115.407144 
L 360.263965 115.300125 
L 399.951194 114.934006 
L 399.951194 114.934006 
" style="fill:none;stroke:#1f77b4;stroke-linecap:square;stroke-width:0.5;"/>
   </g>
   <g id="line2d_22">
    <path clip-path="url(#p650841ec9b)" d="M 76.597869 183.775595 
L 77.248479 135.802774 
L 77.899089 95.98032 
L 78.5497 56.118438 
L 79.20031 45.332017 
L 79.85092 46.278293 
L 80.501531 60.066888 
L 81.802751 96.881536 
L 82.453362 110.03928 
L 83.103972 116.212605 
L 83.754582 117.356022 
L 85.055803 104.558764 
L 85.706413 102.187441 
L 86.357024 104.969944 
L 87.007634 113.599081 
L 87.658244 127.883344 
L 89.610075 182.863114 
L 90.260685 186.794666 
L 90.911296 179.139968 
L 91.561906 169.001295 
L 92.212516 161.577534 
L 92.863127 157.493902 
L 93.513737 156.66591 
L 94.814958 158.107855 
L 95.465568 157.595288 
L 96.116178 155.449269 
L 96.766788 151.737389 
L 98.068009 141.23823 
L 99.36923 130.941844 
L 100.67045 123.495552 
L 103.272892 109.706957 
L 104.574112 101.376347 
L 105.875333 92.510641 
L 106.525943 89.243736 
L 107.176553 87.655343 
L 107.827164 86.692169 
L 108.477774 86.083849 
L 109.128384 85.836015 
L 109.778995 85.99936 
L 110.429605 86.602048 
L 111.080215 88.021462 
L 112.381436 92.093829 
L 113.032046 94.651028 
L 113.682657 97.822179 
L 114.983877 105.933118 
L 116.285098 114.742498 
L 116.935708 118.037566 
L 117.586318 120.43142 
L 118.236929 121.991649 
L 118.887539 122.898497 
L 119.538149 123.320942 
L 120.18876 123.394165 
L 120.83937 123.213922 
L 121.48998 122.881599 
L 124.743032 120.645458 
L 126.044253 119.918854 
L 127.345473 118.916251 
L 128.646694 117.536265 
L 130.598525 115.418409 
L 131.899745 114.528459 
L 132.550356 114.303155 
L 133.200966 114.218666 
L 134.502187 114.353849 
L 137.104628 114.984699 
L 137.755238 115.491633 
L 138.405848 116.223871 
L 141.00829 119.806202 
L 141.6589 120.3244 
L 142.30951 120.527174 
L 142.960121 120.408889 
L 143.610731 119.839997 
L 146.863782 113.959567 
L 147.514393 113.463898 
L 148.165003 113.266758 
L 148.815613 113.351247 
L 149.466224 113.621611 
L 152.068665 115.148045 
L 152.719275 115.328288 
L 153.369886 115.378981 
L 154.020496 115.28886 
L 155.321717 114.838252 
L 156.622937 114.669274 
L 158.574768 114.843885 
L 161.177209 115.035393 
L 195.659556 114.928373 
L 308.21514 114.055321 
L 312.769412 114.032791 
L 334.239552 113.953934 
L 342.697486 113.920139 
L 357.661523 113.897608 
L 400.601804 113.801854 
L 400.601804 113.801854 
" style="fill:none;stroke:#ff7f0e;stroke-linecap:square;stroke-width:0.5;"/>
   </g>
   <g id="line2d_23">
    <path clip-path="url(#p650841ec9b)" d="M 76.597869 183.775595 
L 77.248479 135.802774 
L 77.899089 95.93526 
L 78.5497 55.77485 
L 79.20031 44.49276 
L 79.85092 45.388343 
L 80.501531 61.908747 
L 81.152141 91.547467 
L 81.802751 113.632876 
L 82.453362 127.100414 
L 83.103972 130.372952 
L 83.754582 124.295381 
L 85.055803 109.177493 
L 85.706413 106.513275 
L 86.357024 109.492918 
L 87.007634 121.648061 
L 87.658244 138.236056 
L 88.959465 187.155153 
L 89.610075 199.276499 
L 90.260685 197.552925 
L 90.911296 187.831064 
L 92.212516 173.118723 
L 92.863127 169.159008 
L 93.513737 167.288986 
L 94.164347 166.145569 
L 94.814958 164.360036 
L 95.465568 161.126926 
L 96.116178 156.220935 
L 97.417399 142.342218 
L 98.718619 128.052322 
L 99.36923 122.171892 
L 100.01984 117.451776 
L 101.321061 110.540581 
L 103.272892 101.81569 
L 104.574112 94.420091 
L 105.224723 90.758904 
L 106.525943 86.078217 
L 107.176553 84.21946 
L 107.827164 82.777515 
L 108.477774 81.865035 
L 109.128384 81.543977 
L 109.778995 81.943891 
L 110.429605 83.661833 
L 111.080215 85.959932 
L 112.381436 91.953014 
L 113.032046 95.878934 
L 114.333267 106.287971 
L 114.983877 111.937465 
L 115.634488 116.573092 
L 116.285098 119.856895 
L 116.935708 121.850834 
L 117.586318 122.864701 
L 118.236929 123.23082 
L 118.887539 123.23082 
L 119.538149 123.022414 
L 120.18876 122.690091 
L 121.48998 121.62553 
L 123.441811 119.25984 
L 127.996083 113.435736 
L 129.297304 112.106443 
L 130.598525 111.250288 
L 131.249135 111.030617 
L 132.550356 110.968658 
L 133.851576 111.177064 
L 134.502187 111.351675 
L 135.152797 111.869874 
L 135.803407 112.709131 
L 137.104628 115.18184 
L 138.405848 117.823528 
L 139.056459 118.84866 
L 139.707069 119.513307 
L 140.357679 119.766773 
L 141.00829 119.614693 
L 141.6589 119.113392 
L 143.610731 116.719539 
L 144.911952 114.939639 
L 145.562562 114.325686 
L 146.213172 114.015893 
L 146.863782 113.976465 
L 148.165003 114.477766 
L 149.466224 115.024128 
L 150.116834 115.102984 
L 150.767444 115.041025 
L 152.068665 114.438338 
L 155.972327 111.914935 
L 156.622937 111.813548 
L 157.273547 111.931832 
L 158.574768 112.669702 
L 159.875989 113.396307 
L 160.526599 113.593448 
L 161.177209 113.655407 
L 162.47843 113.452633 
L 165.080871 112.821783 
L 166.382092 112.776722 
L 168.333923 112.99076 
L 170.285754 113.199166 
L 172.237585 113.165371 
L 175.490636 113.035821 
L 183.29796 113.142841 
L 186.551011 113.165371 
L 193.707725 113.187901 
L 198.261997 113.255492 
L 200.213828 113.232962 
L 239.901057 113.492061 
L 241.202278 113.480796 
L 245.75655 113.508959 
L 263.973639 113.570918 
L 268.527911 113.57655 
L 272.431573 113.587816 
L 276.985845 113.593448 
L 281.540117 113.621611 
L 293.251103 113.615979 
L 297.805375 113.638509 
L 306.913919 113.661039 
L 312.769412 113.661039 
L 316.022463 113.655407 
L 328.384059 113.655407 
L 400.601804 113.68357 
L 400.601804 113.68357 
" style="fill:none;stroke:#2ca02c;stroke-linecap:square;stroke-width:0.5;"/>
   </g>
   <g id="line2d_24">
    <path clip-path="url(#p650841ec9b)" d="M 76.597869 183.781227 
L 77.248479 135.847835 
L 77.899089 95.997218 
L 78.5497 55.245386 
L 79.20031 43.219793 
L 79.85092 44.137906 
L 80.501531 62.027031 
L 81.152141 90.753271 
L 81.802751 126.700499 
L 82.453362 145.395085 
L 83.103972 144.662848 
L 83.754582 138.540216 
L 85.055803 116.088688 
L 85.706413 110.140667 
L 86.357024 115.750732 
L 87.007634 129.640714 
L 87.658244 151.275516 
L 88.959465 204.424692 
L 89.610075 217.159992 
L 90.260685 217.37403 
L 90.911296 211.172542 
L 92.212516 190.500915 
L 92.863127 183.63478 
L 94.814958 171.141682 
L 95.465568 164.985254 
L 96.766788 148.053671 
L 98.718619 120.217381 
L 99.36923 113.035821 
L 100.01984 107.651059 
L 100.67045 104.079993 
L 101.321061 102.024096 
L 102.622281 100.722966 
L 103.272892 99.658406 
L 104.574112 95.923994 
L 105.875333 92.026238 
L 107.176553 88.635415 
L 108.477774 85.058717 
L 109.128384 84.101175 
L 109.778995 84.427866 
L 110.429605 85.993728 
L 111.080215 88.359418 
L 111.730826 91.361592 
L 113.032046 99.066983 
L 114.333267 112.669702 
L 114.983877 117.705243 
L 115.634488 121.051005 
L 116.285098 122.684458 
L 116.935708 122.988618 
L 117.586318 122.430991 
L 122.140591 115.880282 
L 124.092422 112.376807 
L 125.393642 109.999852 
L 126.694863 108.045341 
L 127.996083 106.687885 
L 128.646694 106.254176 
L 129.297304 105.978178 
L 129.947914 105.848629 
L 131.249135 105.93875 
L 131.899745 106.085198 
L 132.550356 106.496377 
L 133.200966 107.375062 
L 133.851576 108.73815 
L 135.152797 112.573948 
L 136.454017 116.663213 
L 137.104628 118.307931 
L 137.755238 119.445715 
L 138.405848 120.02024 
L 139.056459 120.048403 
L 139.707069 119.580898 
L 141.00829 117.846058 
L 142.960121 115.317023 
L 143.610731 114.793191 
L 144.261341 114.607315 
L 144.911952 114.663641 
L 147.514393 115.604285 
L 148.165003 115.469103 
L 148.815613 115.125514 
L 149.466224 114.579153 
L 150.767444 113.092147 
L 152.719275 110.912332 
L 154.020496 109.926628 
L 155.321717 109.312675 
L 156.622937 108.8677 
L 157.273547 108.721253 
L 157.924158 108.817007 
L 159.225378 109.408429 
L 160.526599 110.067443 
L 161.177209 110.258951 
L 162.47843 110.242054 
L 166.382092 109.487286 
L 167.683312 109.504183 
L 172.888195 109.982954 
L 175.490636 109.982954 
L 177.442467 110.044913 
L 181.346129 110.32091 
L 186.551011 110.563112 
L 191.105284 110.810946 
L 198.261997 111.165799 
L 200.864438 111.300982 
L 215.177865 111.937465 
L 220.382748 112.112075 
L 221.683968 112.202197 
L 226.888851 112.309216 
L 232.093733 112.483827 
L 235.346785 112.562683 
L 254.865094 112.962597 
L 279.588286 113.283655 
L 291.949882 113.339981 
L 292.600492 113.413205 
L 294.552323 113.396307 
L 298.455985 113.42447 
L 316.673074 113.514592 
L 317.323684 113.593448 
L 317.974294 113.463898 
L 319.275515 113.503327 
L 338.793824 113.604713 
L 340.745655 113.57655 
L 347.251758 113.599081 
L 350.50481 113.593448 
L 357.661523 113.621611 
L 370.023119 113.610346 
L 377.179833 113.638509 
L 379.131664 113.621611 
L 383.035326 113.627244 
L 400.601804 113.649774 
L 400.601804 113.649774 
" style="fill:none;stroke:#d62728;stroke-linecap:square;stroke-width:0.5;"/>
   </g>
   <g id="line2d_25">
    <path clip-path="url(#p650841ec9b)" d="M 76.597869 183.781227 
L 77.248479 135.83657 
L 77.899089 95.963423 
L 78.5497 55.47069 
L 79.20031 42.17213 
L 79.85092 43.354976 
L 80.501531 63.452078 
L 81.152141 93.040105 
L 81.802751 127.990364 
L 82.453362 145.564063 
L 83.103972 154.401607 
L 83.754582 152.193629 
L 85.055803 133.848264 
L 85.706413 127.072251 
L 86.357024 139.554083 
L 87.007634 157.353087 
L 88.959465 244.044373 
L 89.610075 251.248463 
L 90.260685 262.474227 
L 90.911296 264.716 
L 91.561906 256.999343 
L 93.513737 223.158706 
L 96.116178 126.903273 
L 96.766788 108.298808 
L 97.417399 94.814373 
L 98.068009 88.607252 
L 98.718619 84.591211 
L 99.36923 82.360703 
L 100.01984 81.493283 
L 100.67045 81.808709 
L 101.321061 82.952126 
L 101.971671 84.495457 
L 102.622281 85.610711 
L 103.272892 85.278388 
L 103.923502 83.594242 
L 104.574112 80.890596 
L 105.875333 74.520129 
L 106.525943 72.086848 
L 107.176553 70.847677 
L 107.827164 71.118041 
L 108.477774 73.280958 
L 109.128384 77.651853 
L 110.429605 89.311327 
L 111.730826 107.352532 
L 112.381436 114.466501 
L 113.032046 119.417553 
L 113.682657 122.194422 
L 114.333267 123.20829 
L 114.983877 123.050577 
L 115.634488 122.239483 
L 116.935708 119.828732 
L 118.236929 116.691376 
L 119.538149 112.421868 
L 121.48998 104.384154 
L 122.791201 99.134574 
L 124.092422 94.80874 
L 124.743032 93.107696 
L 125.393642 91.761506 
L 126.044253 90.764536 
L 126.694863 90.167481 
L 127.345473 89.874586 
L 127.996083 89.902749 
L 128.646694 90.38152 
L 129.297304 91.784036 
L 129.947914 94.093401 
L 130.598525 97.242022 
L 131.899745 105.206513 
L 133.200966 113.261125 
L 133.851576 116.578724 
L 134.502187 119.15282 
L 135.152797 120.904558 
L 135.803407 121.901527 
L 136.454017 122.290176 
L 138.405848 122.318339 
L 139.056459 122.791478 
L 139.707069 123.692693 
L 140.357679 125.089577 
L 141.6589 128.52546 
L 142.30951 129.843488 
L 142.960121 130.823559 
L 143.610731 131.189678 
L 144.261341 130.84609 
L 144.911952 129.725203 
L 145.562562 127.905875 
L 146.863782 122.690091 
L 148.815613 114.122912 
L 150.116834 109.628101 
L 150.767444 107.876363 
L 152.068665 105.234676 
L 155.972327 98.976861 
L 157.924158 95.557876 
L 158.574768 94.63413 
L 159.225378 94.014544 
L 159.875989 94.065238 
L 160.526599 94.679191 
L 161.177209 95.766282 
L 162.47843 98.317848 
L 163.12904 99.376776 
L 163.779651 100.170972 
L 164.430261 100.615947 
L 165.080871 100.81872 
L 165.731482 100.858149 
L 167.032702 100.582151 
L 168.333923 100.05832 
L 169.635143 99.821751 
L 170.285754 99.866812 
L 171.586974 100.266726 
L 174.840026 101.618549 
L 179.394298 103.16188 
L 183.29796 104.474275 
L 194.358335 107.532775 
L 195.008946 107.594733 
L 196.310166 107.921424 
L 206.069321 109.684427 
L 209.322372 110.123769 
L 215.828476 110.878537 
L 219.732137 111.255921 
L 221.683968 111.464327 
L 222.334579 111.441797 
L 223.635799 111.565714 
L 225.58763 111.762854 
L 228.190071 111.909302 
L 233.394954 112.224727 
L 253.563874 112.99076 
L 258.768756 113.09778 
L 260.720587 113.125943 
L 265.274859 113.227329 
L 276.335234 113.390675 
L 276.985845 113.131575 
L 277.636455 113.508959 
L 278.287065 113.37941 
L 278.937676 113.480796 
L 282.841338 113.418838 
L 293.901713 113.508959 
L 295.853544 113.55402 
L 297.805375 113.497694 
L 299.106595 113.525857 
L 320.576736 113.627244 
L 322.528567 113.582183 
L 324.480398 113.632876 
L 327.082839 113.632876 
L 400.601804 113.694835 
L 400.601804 113.694835 
" style="fill:none;stroke:#9467bd;stroke-linecap:square;stroke-width:0.5;"/>
   </g>
   <g id="line2d_26">
    <path clip-path="url(#p650841ec9b)" d="M 76.597869 113.672305 
L 400.601804 113.672305 
L 400.601804 113.672305 
" style="fill:none;stroke:#8c564b;stroke-dasharray:7.4,3.2;stroke-dashoffset:0;stroke-width:2;"/>
   </g>
   <g id="patch_3">
    <path d="M 59.714531 276.812 
L 59.714531 10.7 
" style="fill:none;stroke:#000000;stroke-linecap:square;stroke-linejoin:miter;stroke-width:0.8;"/>
   </g>
   <g id="patch_4">
    <path d="M 416.834531 276.812 
L 416.834531 10.7 
" style="fill:none;stroke:#000000;stroke-linecap:square;stroke-linejoin:miter;stroke-width:0.8;"/>
   </g>
   <g id="patch_5">
    <path d="M 59.714531 276.812 
L 416.834531 276.812 
" style="fill:none;stroke:#000000;stroke-linecap:square;stroke-linejoin:miter;stroke-width:0.8;"/>
   </g>
   <g id="patch_6">
    <path d="M 59.714531 10.7 
L 416.834531 10.7 
" style="fill:none;stroke:#000000;stroke-linecap:square;stroke-linejoin:miter;stroke-width:0.8;"/>
   </g>
   <g id="legend_1">
    <g id="patch_7">
     <path d="M 71.614531 268.312 
L 269.475938 268.312 
Q 272.875938 268.312 272.875938 264.912 
L 272.875938 116.895125 
Q 272.875938 113.495125 269.475938 113.495125 
L 71.614531 113.495125 
Q 68.214531 113.495125 68.214531 116.895125 
L 68.214531 264.912 
Q 68.214531 268.312 71.614531 268.312 
z
" style="fill:#ffffff;opacity:0.8;stroke:#cccccc;stroke-linejoin:miter;"/>
    </g>
    <g id="line2d_27">
     <path d="M 75.014531 127.262469 
L 109.014531 127.262469 
" style="fill:none;stroke:#1f77b4;stroke-linecap:square;stroke-width:0.5;"/>
    </g>
    <g id="line2d_28"/>
    <g id="text_13">
     <!-- lamda=50 -->
     <defs>
      <path d="M 9.421875 75.984375 
L 18.40625 75.984375 
L 18.40625 0 
L 9.421875 0 
z
" id="DejaVuSans-6c"/>
      <path d="M 45.40625 46.390625 
L 45.40625 75.984375 
L 54.390625 75.984375 
L 54.390625 0 
L 45.40625 0 
L 45.40625 8.203125 
Q 42.578125 3.328125 38.25 0.953125 
Q 33.9375 -1.421875 27.875 -1.421875 
Q 17.96875 -1.421875 11.734375 6.484375 
Q 5.515625 14.40625 5.515625 27.296875 
Q 5.515625 40.1875 11.734375 48.09375 
Q 17.96875 56 27.875 56 
Q 33.9375 56 38.25 53.625 
Q 42.578125 51.265625 45.40625 46.390625 
z
M 14.796875 27.296875 
Q 14.796875 17.390625 18.875 11.75 
Q 22.953125 6.109375 30.078125 6.109375 
Q 37.203125 6.109375 41.296875 11.75 
Q 45.40625 17.390625 45.40625 27.296875 
Q 45.40625 37.203125 41.296875 42.84375 
Q 37.203125 48.484375 30.078125 48.484375 
Q 22.953125 48.484375 18.875 42.84375 
Q 14.796875 37.203125 14.796875 27.296875 
z
" id="DejaVuSans-64"/>
      <path d="M 10.59375 45.40625 
L 73.1875 45.40625 
L 73.1875 37.203125 
L 10.59375 37.203125 
z
M 10.59375 25.484375 
L 73.1875 25.484375 
L 73.1875 17.1875 
L 10.59375 17.1875 
z
" id="DejaVuSans-3d"/>
     </defs>
     <g transform="translate(122.614531 133.212469)scale(0.17 -0.17)">
      <use xlink:href="#DejaVuSans-6c"/>
      <use x="27.783203" xlink:href="#DejaVuSans-61"/>
      <use x="89.0625" xlink:href="#DejaVuSans-6d"/>
      <use x="186.474609" xlink:href="#DejaVuSans-64"/>
      <use x="249.951172" xlink:href="#DejaVuSans-61"/>
      <use x="311.230469" xlink:href="#DejaVuSans-3d"/>
      <use x="395.019531" xlink:href="#DejaVuSans-35"/>
      <use x="458.642578" xlink:href="#DejaVuSans-30"/>
     </g>
    </g>
    <g id="line2d_29">
     <path d="M 75.014531 152.215281 
L 109.014531 152.215281 
" style="fill:none;stroke:#ff7f0e;stroke-linecap:square;stroke-width:0.5;"/>
    </g>
    <g id="line2d_30"/>
    <g id="text_14">
     <!-- lamda=30 -->
     <g transform="translate(122.614531 158.165281)scale(0.17 -0.17)">
      <use xlink:href="#DejaVuSans-6c"/>
      <use x="27.783203" xlink:href="#DejaVuSans-61"/>
      <use x="89.0625" xlink:href="#DejaVuSans-6d"/>
      <use x="186.474609" xlink:href="#DejaVuSans-64"/>
      <use x="249.951172" xlink:href="#DejaVuSans-61"/>
      <use x="311.230469" xlink:href="#DejaVuSans-3d"/>
      <use x="395.019531" xlink:href="#DejaVuSans-33"/>
      <use x="458.642578" xlink:href="#DejaVuSans-30"/>
     </g>
    </g>
    <g id="line2d_31">
     <path d="M 75.014531 177.168094 
L 109.014531 177.168094 
" style="fill:none;stroke:#2ca02c;stroke-linecap:square;stroke-width:0.5;"/>
    </g>
    <g id="line2d_32"/>
    <g id="text_15">
     <!-- lamda=25 -->
     <g transform="translate(122.614531 183.118094)scale(0.17 -0.17)">
      <use xlink:href="#DejaVuSans-6c"/>
      <use x="27.783203" xlink:href="#DejaVuSans-61"/>
      <use x="89.0625" xlink:href="#DejaVuSans-6d"/>
      <use x="186.474609" xlink:href="#DejaVuSans-64"/>
      <use x="249.951172" xlink:href="#DejaVuSans-61"/>
      <use x="311.230469" xlink:href="#DejaVuSans-3d"/>
      <use x="395.019531" xlink:href="#DejaVuSans-32"/>
      <use x="458.642578" xlink:href="#DejaVuSans-35"/>
     </g>
    </g>
    <g id="line2d_33">
     <path d="M 75.014531 202.120906 
L 109.014531 202.120906 
" style="fill:none;stroke:#d62728;stroke-linecap:square;stroke-width:0.5;"/>
    </g>
    <g id="line2d_34"/>
    <g id="text_16">
     <!-- lamda=20 -->
     <g transform="translate(122.614531 208.070906)scale(0.17 -0.17)">
      <use xlink:href="#DejaVuSans-6c"/>
      <use x="27.783203" xlink:href="#DejaVuSans-61"/>
      <use x="89.0625" xlink:href="#DejaVuSans-6d"/>
      <use x="186.474609" xlink:href="#DejaVuSans-64"/>
      <use x="249.951172" xlink:href="#DejaVuSans-61"/>
      <use x="311.230469" xlink:href="#DejaVuSans-3d"/>
      <use x="395.019531" xlink:href="#DejaVuSans-32"/>
      <use x="458.642578" xlink:href="#DejaVuSans-30"/>
     </g>
    </g>
    <g id="line2d_35">
     <path d="M 75.014531 227.073719 
L 109.014531 227.073719 
" style="fill:none;stroke:#9467bd;stroke-linecap:square;stroke-width:0.5;"/>
    </g>
    <g id="line2d_36"/>
    <g id="text_17">
     <!-- lamda=15 -->
     <g transform="translate(122.614531 233.023719)scale(0.17 -0.17)">
      <use xlink:href="#DejaVuSans-6c"/>
      <use x="27.783203" xlink:href="#DejaVuSans-61"/>
      <use x="89.0625" xlink:href="#DejaVuSans-6d"/>
      <use x="186.474609" xlink:href="#DejaVuSans-64"/>
      <use x="249.951172" xlink:href="#DejaVuSans-61"/>
      <use x="311.230469" xlink:href="#DejaVuSans-3d"/>
      <use x="395.019531" xlink:href="#DejaVuSans-31"/>
      <use x="458.642578" xlink:href="#DejaVuSans-35"/>
     </g>
    </g>
    <g id="line2d_37">
     <path d="M 75.014531 252.026531 
L 109.014531 252.026531 
" style="fill:none;stroke:#8c564b;stroke-dasharray:7.4,3.2;stroke-dashoffset:0;stroke-width:2;"/>
    </g>
    <g id="line2d_38"/>
    <g id="text_18">
     <!-- Consensus value -->
     <defs>
      <path d="M 64.40625 67.28125 
L 64.40625 56.890625 
Q 59.421875 61.53125 53.78125 63.8125 
Q 48.140625 66.109375 41.796875 66.109375 
Q 29.296875 66.109375 22.65625 58.46875 
Q 16.015625 50.828125 16.015625 36.375 
Q 16.015625 21.96875 22.65625 14.328125 
Q 29.296875 6.6875 41.796875 6.6875 
Q 48.140625 6.6875 53.78125 8.984375 
Q 59.421875 11.28125 64.40625 15.921875 
L 64.40625 5.609375 
Q 59.234375 2.09375 53.4375 0.328125 
Q 47.65625 -1.421875 41.21875 -1.421875 
Q 24.65625 -1.421875 15.125 8.703125 
Q 5.609375 18.84375 5.609375 36.375 
Q 5.609375 53.953125 15.125 64.078125 
Q 24.65625 74.21875 41.21875 74.21875 
Q 47.75 74.21875 53.53125 72.484375 
Q 59.328125 70.75 64.40625 67.28125 
z
" id="DejaVuSans-43"/>
     </defs>
     <g transform="translate(122.614531 257.976531)scale(0.17 -0.17)">
      <use xlink:href="#DejaVuSans-43"/>
      <use x="69.824219" xlink:href="#DejaVuSans-6f"/>
      <use x="131.005859" xlink:href="#DejaVuSans-6e"/>
      <use x="194.384766" xlink:href="#DejaVuSans-73"/>
      <use x="246.484375" xlink:href="#DejaVuSans-65"/>
      <use x="308.007812" xlink:href="#DejaVuSans-6e"/>
      <use x="371.386719" xlink:href="#DejaVuSans-73"/>
      <use x="423.486328" xlink:href="#DejaVuSans-75"/>
      <use x="486.865234" xlink:href="#DejaVuSans-73"/>
      <use x="538.964844" xlink:href="#DejaVuSans-20"/>
      <use x="570.751953" xlink:href="#DejaVuSans-76"/>
      <use x="629.931641" xlink:href="#DejaVuSans-61"/>
      <use x="691.210938" xlink:href="#DejaVuSans-6c"/>
      <use x="718.994141" xlink:href="#DejaVuSans-75"/>
      <use x="782.373047" xlink:href="#DejaVuSans-65"/>
     </g>
    </g>
   </g>
  </g>
 </g>
 <defs>
  <clipPath id="p650841ec9b">
   <rect height="266.112" width="357.12" x="59.714531" y="10.7"/>
  </clipPath>
 </defs>
</svg>
