<?xml version="1.0" encoding="utf-8" standalone="no"?>
<!DOCTYPE svg PUBLIC "-//W3C//DTD SVG 1.1//EN"
  "http://www.w3.org/Graphics/SVG/1.1/DTD/svg11.dtd">
<!-- Created with matplotlib (http://matplotlib.org/) -->
<svg height="327pt" version="1.1" viewBox="0 0 443 327" width="443pt" xmlns="http://www.w3.org/2000/svg" xmlns:xlink="http://www.w3.org/1999/xlink">
 <defs>
  <style type="text/css">
*{stroke-linecap:butt;stroke-linejoin:round;}
  </style>
 </defs>
 <g id="figure_1">
  <g id="patch_1">
   <path d="M 0 327.917625 
L 443.753594 327.917625 
L 443.753594 0 
L 0 0 
z
" style="fill:#ffffff;"/>
  </g>
  <g id="axes_1">
   <g id="patch_2">
    <path d="M 75.933594 276.812 
L 433.053594 276.812 
L 433.053594 10.7 
L 75.933594 10.7 
z
" style="fill:#ffffff;"/>
   </g>
   <g id="matplotlib.axis_1">
    <g id="xtick_1">
     <g id="line2d_1">
      <path clip-path="url(#p18cb049645)" d="M 92.166321 276.812 
L 92.166321 10.7 
" style="fill:none;stroke:#b0b0b0;stroke-linecap:square;stroke-width:0.8;"/>
     </g>
     <g id="line2d_2">
      <defs>
       <path d="M 0 0 
L 0 3.5 
" id="mfa9dd28d68" style="stroke:#000000;stroke-width:0.8;"/>
      </defs>
      <g>
       <use style="stroke:#000000;stroke-width:0.8;" x="92.166321" xlink:href="#mfa9dd28d68" y="276.812"/>
      </g>
     </g>
     <g id="text_1">
      <!-- 0 -->
      <defs>
       <path d="M 31.78125 66.40625 
Q 24.171875 66.40625 20.328125 58.90625 
Q 16.5 51.421875 16.5 36.375 
Q 16.5 21.390625 20.328125 13.890625 
Q 24.171875 6.390625 31.78125 6.390625 
Q 39.453125 6.390625 43.28125 13.890625 
Q 47.125 21.390625 47.125 36.375 
Q 47.125 51.421875 43.28125 58.90625 
Q 39.453125 66.40625 31.78125 66.40625 
z
M 31.78125 74.21875 
Q 44.046875 74.21875 50.515625 64.515625 
Q 56.984375 54.828125 56.984375 36.375 
Q 56.984375 17.96875 50.515625 8.265625 
Q 44.046875 -1.421875 31.78125 -1.421875 
Q 19.53125 -1.421875 13.0625 8.265625 
Q 6.59375 17.96875 6.59375 36.375 
Q 6.59375 54.828125 13.0625 64.515625 
Q 19.53125 74.21875 31.78125 74.21875 
z
" id="DejaVuSans-30"/>
      </defs>
      <g transform="translate(86.758196 296.729344)scale(0.17 -0.17)">
       <use xlink:href="#DejaVuSans-30"/>
      </g>
     </g>
    </g>
    <g id="xtick_2">
     <g id="line2d_3">
      <path clip-path="url(#p18cb049645)" d="M 157.09723 276.812 
L 157.09723 10.7 
" style="fill:none;stroke:#b0b0b0;stroke-linecap:square;stroke-width:0.8;"/>
     </g>
     <g id="line2d_4">
      <g>
       <use style="stroke:#000000;stroke-width:0.8;" x="157.09723" xlink:href="#mfa9dd28d68" y="276.812"/>
      </g>
     </g>
     <g id="text_2">
      <!-- 100 -->
      <defs>
       <path d="M 12.40625 8.296875 
L 28.515625 8.296875 
L 28.515625 63.921875 
L 10.984375 60.40625 
L 10.984375 69.390625 
L 28.421875 72.90625 
L 38.28125 72.90625 
L 38.28125 8.296875 
L 54.390625 8.296875 
L 54.390625 0 
L 12.40625 0 
z
" id="DejaVuSans-31"/>
      </defs>
      <g transform="translate(140.872855 296.729344)scale(0.17 -0.17)">
       <use xlink:href="#DejaVuSans-31"/>
       <use x="63.623047" xlink:href="#DejaVuSans-30"/>
       <use x="127.246094" xlink:href="#DejaVuSans-30"/>
      </g>
     </g>
    </g>
    <g id="xtick_3">
     <g id="line2d_5">
      <path clip-path="url(#p18cb049645)" d="M 222.028139 276.812 
L 222.028139 10.7 
" style="fill:none;stroke:#b0b0b0;stroke-linecap:square;stroke-width:0.8;"/>
     </g>
     <g id="line2d_6">
      <g>
       <use style="stroke:#000000;stroke-width:0.8;" x="222.028139" xlink:href="#mfa9dd28d68" y="276.812"/>
      </g>
     </g>
     <g id="text_3">
      <!-- 200 -->
      <defs>
       <path d="M 19.1875 8.296875 
L 53.609375 8.296875 
L 53.609375 0 
L 7.328125 0 
L 7.328125 8.296875 
Q 12.9375 14.109375 22.625 23.890625 
Q 32.328125 33.6875 34.8125 36.53125 
Q 39.546875 41.84375 41.421875 45.53125 
Q 43.3125 49.21875 43.3125 52.78125 
Q 43.3125 58.59375 39.234375 62.25 
Q 35.15625 65.921875 28.609375 65.921875 
Q 23.96875 65.921875 18.8125 64.3125 
Q 13.671875 62.703125 7.8125 59.421875 
L 7.8125 69.390625 
Q 13.765625 71.78125 18.9375 73 
Q 24.125 74.21875 28.421875 74.21875 
Q 39.75 74.21875 46.484375 68.546875 
Q 53.21875 62.890625 53.21875 53.421875 
Q 53.21875 48.921875 51.53125 44.890625 
Q 49.859375 40.875 45.40625 35.40625 
Q 44.1875 33.984375 37.640625 27.21875 
Q 31.109375 20.453125 19.1875 8.296875 
z
" id="DejaVuSans-32"/>
      </defs>
      <g transform="translate(205.803764 296.729344)scale(0.17 -0.17)">
       <use xlink:href="#DejaVuSans-32"/>
       <use x="63.623047" xlink:href="#DejaVuSans-30"/>
       <use x="127.246094" xlink:href="#DejaVuSans-30"/>
      </g>
     </g>
    </g>
    <g id="xtick_4">
     <g id="line2d_7">
      <path clip-path="url(#p18cb049645)" d="M 286.959048 276.812 
L 286.959048 10.7 
" style="fill:none;stroke:#b0b0b0;stroke-linecap:square;stroke-width:0.8;"/>
     </g>
     <g id="line2d_8">
      <g>
       <use style="stroke:#000000;stroke-width:0.8;" x="286.959048" xlink:href="#mfa9dd28d68" y="276.812"/>
      </g>
     </g>
     <g id="text_4">
      <!-- 300 -->
      <defs>
       <path d="M 40.578125 39.3125 
Q 47.65625 37.796875 51.625 33 
Q 55.609375 28.21875 55.609375 21.1875 
Q 55.609375 10.40625 48.1875 4.484375 
Q 40.765625 -1.421875 27.09375 -1.421875 
Q 22.515625 -1.421875 17.65625 -0.515625 
Q 12.796875 0.390625 7.625 2.203125 
L 7.625 11.71875 
Q 11.71875 9.328125 16.59375 8.109375 
Q 21.484375 6.890625 26.8125 6.890625 
Q 36.078125 6.890625 40.9375 10.546875 
Q 45.796875 14.203125 45.796875 21.1875 
Q 45.796875 27.640625 41.28125 31.265625 
Q 36.765625 34.90625 28.71875 34.90625 
L 20.21875 34.90625 
L 20.21875 43.015625 
L 29.109375 43.015625 
Q 36.375 43.015625 40.234375 45.921875 
Q 44.09375 48.828125 44.09375 54.296875 
Q 44.09375 59.90625 40.109375 62.90625 
Q 36.140625 65.921875 28.71875 65.921875 
Q 24.65625 65.921875 20.015625 65.03125 
Q 15.375 64.15625 9.8125 62.3125 
L 9.8125 71.09375 
Q 15.4375 72.65625 20.34375 73.4375 
Q 25.25 74.21875 29.59375 74.21875 
Q 40.828125 74.21875 47.359375 69.109375 
Q 53.90625 64.015625 53.90625 55.328125 
Q 53.90625 49.265625 50.4375 45.09375 
Q 46.96875 40.921875 40.578125 39.3125 
z
" id="DejaVuSans-33"/>
      </defs>
      <g transform="translate(270.734673 296.729344)scale(0.17 -0.17)">
       <use xlink:href="#DejaVuSans-33"/>
       <use x="63.623047" xlink:href="#DejaVuSans-30"/>
       <use x="127.246094" xlink:href="#DejaVuSans-30"/>
      </g>
     </g>
    </g>
    <g id="xtick_5">
     <g id="line2d_9">
      <path clip-path="url(#p18cb049645)" d="M 351.889957 276.812 
L 351.889957 10.7 
" style="fill:none;stroke:#b0b0b0;stroke-linecap:square;stroke-width:0.8;"/>
     </g>
     <g id="line2d_10">
      <g>
       <use style="stroke:#000000;stroke-width:0.8;" x="351.889957" xlink:href="#mfa9dd28d68" y="276.812"/>
      </g>
     </g>
     <g id="text_5">
      <!-- 400 -->
      <defs>
       <path d="M 37.796875 64.3125 
L 12.890625 25.390625 
L 37.796875 25.390625 
z
M 35.203125 72.90625 
L 47.609375 72.90625 
L 47.609375 25.390625 
L 58.015625 25.390625 
L 58.015625 17.1875 
L 47.609375 17.1875 
L 47.609375 0 
L 37.796875 0 
L 37.796875 17.1875 
L 4.890625 17.1875 
L 4.890625 26.703125 
z
" id="DejaVuSans-34"/>
      </defs>
      <g transform="translate(335.665582 296.729344)scale(0.17 -0.17)">
       <use xlink:href="#DejaVuSans-34"/>
       <use x="63.623047" xlink:href="#DejaVuSans-30"/>
       <use x="127.246094" xlink:href="#DejaVuSans-30"/>
      </g>
     </g>
    </g>
    <g id="xtick_6">
     <g id="line2d_11">
      <path clip-path="url(#p18cb049645)" d="M 416.820866 276.812 
L 416.820866 10.7 
" style="fill:none;stroke:#b0b0b0;stroke-linecap:square;stroke-width:0.8;"/>
     </g>
     <g id="line2d_12">
      <g>
       <use style="stroke:#000000;stroke-width:0.8;" x="416.820866" xlink:href="#mfa9dd28d68" y="276.812"/>
      </g>
     </g>
     <g id="text_6">
      <!-- 500 -->
      <defs>
       <path d="M 10.796875 72.90625 
L 49.515625 72.90625 
L 49.515625 64.59375 
L 19.828125 64.59375 
L 19.828125 46.734375 
Q 21.96875 47.46875 24.109375 47.828125 
Q 26.265625 48.1875 28.421875 48.1875 
Q 40.625 48.1875 47.75 41.5 
Q 54.890625 34.8125 54.890625 23.390625 
Q 54.890625 11.625 47.5625 5.09375 
Q 40.234375 -1.421875 26.90625 -1.421875 
Q 22.3125 -1.421875 17.546875 -0.640625 
Q 12.796875 0.140625 7.71875 1.703125 
L 7.71875 11.625 
Q 12.109375 9.234375 16.796875 8.0625 
Q 21.484375 6.890625 26.703125 6.890625 
Q 35.15625 6.890625 40.078125 11.328125 
Q 45.015625 15.765625 45.015625 23.390625 
Q 45.015625 31 40.078125 35.4375 
Q 35.15625 39.890625 26.703125 39.890625 
Q 22.75 39.890625 18.8125 39.015625 
Q 14.890625 38.140625 10.796875 36.28125 
z
" id="DejaVuSans-35"/>
      </defs>
      <g transform="translate(400.596491 296.729344)scale(0.17 -0.17)">
       <use xlink:href="#DejaVuSans-35"/>
       <use x="63.623047" xlink:href="#DejaVuSans-30"/>
       <use x="127.246094" xlink:href="#DejaVuSans-30"/>
      </g>
     </g>
    </g>
    <g id="text_7">
     <!-- Number of iterations -->
     <defs>
      <path d="M 9.8125 72.90625 
L 23.09375 72.90625 
L 55.421875 11.921875 
L 55.421875 72.90625 
L 64.984375 72.90625 
L 64.984375 0 
L 51.703125 0 
L 19.390625 60.984375 
L 19.390625 0 
L 9.8125 0 
z
" id="DejaVuSans-4e"/>
      <path d="M 8.5 21.578125 
L 8.5 54.6875 
L 17.484375 54.6875 
L 17.484375 21.921875 
Q 17.484375 14.15625 20.5 10.265625 
Q 23.53125 6.390625 29.59375 6.390625 
Q 36.859375 6.390625 41.078125 11.03125 
Q 45.3125 15.671875 45.3125 23.6875 
L 45.3125 54.6875 
L 54.296875 54.6875 
L 54.296875 0 
L 45.3125 0 
L 45.3125 8.40625 
Q 42.046875 3.421875 37.71875 1 
Q 33.40625 -1.421875 27.6875 -1.421875 
Q 18.265625 -1.421875 13.375 4.4375 
Q 8.5 10.296875 8.5 21.578125 
z
M 31.109375 56 
z
" id="DejaVuSans-75"/>
      <path d="M 52 44.1875 
Q 55.375 50.25 60.0625 53.125 
Q 64.75 56 71.09375 56 
Q 79.640625 56 84.28125 50.015625 
Q 88.921875 44.046875 88.921875 33.015625 
L 88.921875 0 
L 79.890625 0 
L 79.890625 32.71875 
Q 79.890625 40.578125 77.09375 44.375 
Q 74.3125 48.1875 68.609375 48.1875 
Q 61.625 48.1875 57.5625 43.546875 
Q 53.515625 38.921875 53.515625 30.90625 
L 53.515625 0 
L 44.484375 0 
L 44.484375 32.71875 
Q 44.484375 40.625 41.703125 44.40625 
Q 38.921875 48.1875 33.109375 48.1875 
Q 26.21875 48.1875 22.15625 43.53125 
Q 18.109375 38.875 18.109375 30.90625 
L 18.109375 0 
L 9.078125 0 
L 9.078125 54.6875 
L 18.109375 54.6875 
L 18.109375 46.1875 
Q 21.1875 51.21875 25.484375 53.609375 
Q 29.78125 56 35.6875 56 
Q 41.65625 56 45.828125 52.96875 
Q 50 49.953125 52 44.1875 
z
" id="DejaVuSans-6d"/>
      <path d="M 48.6875 27.296875 
Q 48.6875 37.203125 44.609375 42.84375 
Q 40.53125 48.484375 33.40625 48.484375 
Q 26.265625 48.484375 22.1875 42.84375 
Q 18.109375 37.203125 18.109375 27.296875 
Q 18.109375 17.390625 22.1875 11.75 
Q 26.265625 6.109375 33.40625 6.109375 
Q 40.53125 6.109375 44.609375 11.75 
Q 48.6875 17.390625 48.6875 27.296875 
z
M 18.109375 46.390625 
Q 20.953125 51.265625 25.265625 53.625 
Q 29.59375 56 35.59375 56 
Q 45.5625 56 51.78125 48.09375 
Q 58.015625 40.1875 58.015625 27.296875 
Q 58.015625 14.40625 51.78125 6.484375 
Q 45.5625 -1.421875 35.59375 -1.421875 
Q 29.59375 -1.421875 25.265625 0.953125 
Q 20.953125 3.328125 18.109375 8.203125 
L 18.109375 0 
L 9.078125 0 
L 9.078125 75.984375 
L 18.109375 75.984375 
z
" id="DejaVuSans-62"/>
      <path d="M 56.203125 29.59375 
L 56.203125 25.203125 
L 14.890625 25.203125 
Q 15.484375 15.921875 20.484375 11.0625 
Q 25.484375 6.203125 34.421875 6.203125 
Q 39.59375 6.203125 44.453125 7.46875 
Q 49.3125 8.734375 54.109375 11.28125 
L 54.109375 2.78125 
Q 49.265625 0.734375 44.1875 -0.34375 
Q 39.109375 -1.421875 33.890625 -1.421875 
Q 20.796875 -1.421875 13.15625 6.1875 
Q 5.515625 13.8125 5.515625 26.8125 
Q 5.515625 40.234375 12.765625 48.109375 
Q 20.015625 56 32.328125 56 
Q 43.359375 56 49.78125 48.890625 
Q 56.203125 41.796875 56.203125 29.59375 
z
M 47.21875 32.234375 
Q 47.125 39.59375 43.09375 43.984375 
Q 39.0625 48.390625 32.421875 48.390625 
Q 24.90625 48.390625 20.390625 44.140625 
Q 15.875 39.890625 15.1875 32.171875 
z
" id="DejaVuSans-65"/>
      <path d="M 41.109375 46.296875 
Q 39.59375 47.171875 37.8125 47.578125 
Q 36.03125 48 33.890625 48 
Q 26.265625 48 22.1875 43.046875 
Q 18.109375 38.09375 18.109375 28.8125 
L 18.109375 0 
L 9.078125 0 
L 9.078125 54.6875 
L 18.109375 54.6875 
L 18.109375 46.1875 
Q 20.953125 51.171875 25.484375 53.578125 
Q 30.03125 56 36.53125 56 
Q 37.453125 56 38.578125 55.875 
Q 39.703125 55.765625 41.0625 55.515625 
z
" id="DejaVuSans-72"/>
      <path id="DejaVuSans-20"/>
      <path d="M 30.609375 48.390625 
Q 23.390625 48.390625 19.1875 42.75 
Q 14.984375 37.109375 14.984375 27.296875 
Q 14.984375 17.484375 19.15625 11.84375 
Q 23.34375 6.203125 30.609375 6.203125 
Q 37.796875 6.203125 41.984375 11.859375 
Q 46.1875 17.53125 46.1875 27.296875 
Q 46.1875 37.015625 41.984375 42.703125 
Q 37.796875 48.390625 30.609375 48.390625 
z
M 30.609375 56 
Q 42.328125 56 49.015625 48.375 
Q 55.71875 40.765625 55.71875 27.296875 
Q 55.71875 13.875 49.015625 6.21875 
Q 42.328125 -1.421875 30.609375 -1.421875 
Q 18.84375 -1.421875 12.171875 6.21875 
Q 5.515625 13.875 5.515625 27.296875 
Q 5.515625 40.765625 12.171875 48.375 
Q 18.84375 56 30.609375 56 
z
" id="DejaVuSans-6f"/>
      <path d="M 37.109375 75.984375 
L 37.109375 68.5 
L 28.515625 68.5 
Q 23.6875 68.5 21.796875 66.546875 
Q 19.921875 64.59375 19.921875 59.515625 
L 19.921875 54.6875 
L 34.71875 54.6875 
L 34.71875 47.703125 
L 19.921875 47.703125 
L 19.921875 0 
L 10.890625 0 
L 10.890625 47.703125 
L 2.296875 47.703125 
L 2.296875 54.6875 
L 10.890625 54.6875 
L 10.890625 58.5 
Q 10.890625 67.625 15.140625 71.796875 
Q 19.390625 75.984375 28.609375 75.984375 
z
" id="DejaVuSans-66"/>
      <path d="M 9.421875 54.6875 
L 18.40625 54.6875 
L 18.40625 0 
L 9.421875 0 
z
M 9.421875 75.984375 
L 18.40625 75.984375 
L 18.40625 64.59375 
L 9.421875 64.59375 
z
" id="DejaVuSans-69"/>
      <path d="M 18.3125 70.21875 
L 18.3125 54.6875 
L 36.8125 54.6875 
L 36.8125 47.703125 
L 18.3125 47.703125 
L 18.3125 18.015625 
Q 18.3125 11.328125 20.140625 9.421875 
Q 21.96875 7.515625 27.59375 7.515625 
L 36.8125 7.515625 
L 36.8125 0 
L 27.59375 0 
Q 17.1875 0 13.234375 3.875 
Q 9.28125 7.765625 9.28125 18.015625 
L 9.28125 47.703125 
L 2.6875 47.703125 
L 2.6875 54.6875 
L 9.28125 54.6875 
L 9.28125 70.21875 
z
" id="DejaVuSans-74"/>
      <path d="M 34.28125 27.484375 
Q 23.390625 27.484375 19.1875 25 
Q 14.984375 22.515625 14.984375 16.5 
Q 14.984375 11.71875 18.140625 8.90625 
Q 21.296875 6.109375 26.703125 6.109375 
Q 34.1875 6.109375 38.703125 11.40625 
Q 43.21875 16.703125 43.21875 25.484375 
L 43.21875 27.484375 
z
M 52.203125 31.203125 
L 52.203125 0 
L 43.21875 0 
L 43.21875 8.296875 
Q 40.140625 3.328125 35.546875 0.953125 
Q 30.953125 -1.421875 24.3125 -1.421875 
Q 15.921875 -1.421875 10.953125 3.296875 
Q 6 8.015625 6 15.921875 
Q 6 25.140625 12.171875 29.828125 
Q 18.359375 34.515625 30.609375 34.515625 
L 43.21875 34.515625 
L 43.21875 35.40625 
Q 43.21875 41.609375 39.140625 45 
Q 35.0625 48.390625 27.6875 48.390625 
Q 23 48.390625 18.546875 47.265625 
Q 14.109375 46.140625 10.015625 43.890625 
L 10.015625 52.203125 
Q 14.9375 54.109375 19.578125 55.046875 
Q 24.21875 56 28.609375 56 
Q 40.484375 56 46.34375 49.84375 
Q 52.203125 43.703125 52.203125 31.203125 
z
" id="DejaVuSans-61"/>
      <path d="M 54.890625 33.015625 
L 54.890625 0 
L 45.90625 0 
L 45.90625 32.71875 
Q 45.90625 40.484375 42.875 44.328125 
Q 39.84375 48.1875 33.796875 48.1875 
Q 26.515625 48.1875 22.3125 43.546875 
Q 18.109375 38.921875 18.109375 30.90625 
L 18.109375 0 
L 9.078125 0 
L 9.078125 54.6875 
L 18.109375 54.6875 
L 18.109375 46.1875 
Q 21.34375 51.125 25.703125 53.5625 
Q 30.078125 56 35.796875 56 
Q 45.21875 56 50.046875 50.171875 
Q 54.890625 44.34375 54.890625 33.015625 
z
" id="DejaVuSans-6e"/>
      <path d="M 44.28125 53.078125 
L 44.28125 44.578125 
Q 40.484375 46.53125 36.375 47.5 
Q 32.28125 48.484375 27.875 48.484375 
Q 21.1875 48.484375 17.84375 46.4375 
Q 14.5 44.390625 14.5 40.28125 
Q 14.5 37.15625 16.890625 35.375 
Q 19.28125 33.59375 26.515625 31.984375 
L 29.59375 31.296875 
Q 39.15625 29.25 43.1875 25.515625 
Q 47.21875 21.78125 47.21875 15.09375 
Q 47.21875 7.46875 41.1875 3.015625 
Q 35.15625 -1.421875 24.609375 -1.421875 
Q 20.21875 -1.421875 15.453125 -0.5625 
Q 10.6875 0.296875 5.421875 2 
L 5.421875 11.28125 
Q 10.40625 8.6875 15.234375 7.390625 
Q 20.0625 6.109375 24.8125 6.109375 
Q 31.15625 6.109375 34.5625 8.28125 
Q 37.984375 10.453125 37.984375 14.40625 
Q 37.984375 18.0625 35.515625 20.015625 
Q 33.0625 21.96875 24.703125 23.78125 
L 21.578125 24.515625 
Q 13.234375 26.265625 9.515625 29.90625 
Q 5.8125 33.546875 5.8125 39.890625 
Q 5.8125 47.609375 11.28125 51.796875 
Q 16.75 56 26.8125 56 
Q 31.78125 56 36.171875 55.265625 
Q 40.578125 54.546875 44.28125 53.078125 
z
" id="DejaVuSans-73"/>
     </defs>
     <g transform="translate(166.415 317.182156)scale(0.17 -0.17)">
      <use xlink:href="#DejaVuSans-4e"/>
      <use x="74.804688" xlink:href="#DejaVuSans-75"/>
      <use x="138.183594" xlink:href="#DejaVuSans-6d"/>
      <use x="235.595703" xlink:href="#DejaVuSans-62"/>
      <use x="299.072266" xlink:href="#DejaVuSans-65"/>
      <use x="360.595703" xlink:href="#DejaVuSans-72"/>
      <use x="401.708984" xlink:href="#DejaVuSans-20"/>
      <use x="433.496094" xlink:href="#DejaVuSans-6f"/>
      <use x="494.677734" xlink:href="#DejaVuSans-66"/>
      <use x="529.882812" xlink:href="#DejaVuSans-20"/>
      <use x="561.669922" xlink:href="#DejaVuSans-69"/>
      <use x="589.453125" xlink:href="#DejaVuSans-74"/>
      <use x="628.662109" xlink:href="#DejaVuSans-65"/>
      <use x="690.185547" xlink:href="#DejaVuSans-72"/>
      <use x="731.298828" xlink:href="#DejaVuSans-61"/>
      <use x="792.578125" xlink:href="#DejaVuSans-74"/>
      <use x="831.787109" xlink:href="#DejaVuSans-69"/>
      <use x="859.570312" xlink:href="#DejaVuSans-6f"/>
      <use x="920.751953" xlink:href="#DejaVuSans-6e"/>
      <use x="984.130859" xlink:href="#DejaVuSans-73"/>
     </g>
    </g>
   </g>
   <g id="matplotlib.axis_2">
    <g id="ytick_1">
     <g id="line2d_13">
      <path clip-path="url(#p18cb049645)" d="M 75.933594 242.011045 
L 433.053594 242.011045 
" style="fill:none;stroke:#b0b0b0;stroke-linecap:square;stroke-width:0.8;"/>
     </g>
     <g id="line2d_14">
      <defs>
       <path d="M 0 0 
L -3.5 0 
" id="m936196deea" style="stroke:#000000;stroke-width:0.8;"/>
      </defs>
      <g>
       <use style="stroke:#000000;stroke-width:0.8;" x="75.933594" xlink:href="#m936196deea" y="242.011045"/>
      </g>
     </g>
     <g id="text_8">
      <!-- −5.0 -->
      <defs>
       <path d="M 10.59375 35.5 
L 73.1875 35.5 
L 73.1875 27.203125 
L 10.59375 27.203125 
z
" id="DejaVuSans-2212"/>
       <path d="M 10.6875 12.40625 
L 21 12.40625 
L 21 0 
L 10.6875 0 
z
" id="DejaVuSans-2e"/>
      </defs>
      <g transform="translate(27.652813 248.469717)scale(0.17 -0.17)">
       <use xlink:href="#DejaVuSans-2212"/>
       <use x="83.789062" xlink:href="#DejaVuSans-35"/>
       <use x="147.412109" xlink:href="#DejaVuSans-2e"/>
       <use x="179.199219" xlink:href="#DejaVuSans-30"/>
      </g>
     </g>
    </g>
    <g id="ytick_2">
     <g id="line2d_15">
      <path clip-path="url(#p18cb049645)" d="M 75.933594 200.93246 
L 433.053594 200.93246 
" style="fill:none;stroke:#b0b0b0;stroke-linecap:square;stroke-width:0.8;"/>
     </g>
     <g id="line2d_16">
      <g>
       <use style="stroke:#000000;stroke-width:0.8;" x="75.933594" xlink:href="#m936196deea" y="200.93246"/>
      </g>
     </g>
     <g id="text_9">
      <!-- −2.5 -->
      <g transform="translate(27.652813 207.391132)scale(0.17 -0.17)">
       <use xlink:href="#DejaVuSans-2212"/>
       <use x="83.789062" xlink:href="#DejaVuSans-32"/>
       <use x="147.412109" xlink:href="#DejaVuSans-2e"/>
       <use x="179.199219" xlink:href="#DejaVuSans-35"/>
      </g>
     </g>
    </g>
    <g id="ytick_3">
     <g id="line2d_17">
      <path clip-path="url(#p18cb049645)" d="M 75.933594 159.853876 
L 433.053594 159.853876 
" style="fill:none;stroke:#b0b0b0;stroke-linecap:square;stroke-width:0.8;"/>
     </g>
     <g id="line2d_18">
      <g>
       <use style="stroke:#000000;stroke-width:0.8;" x="75.933594" xlink:href="#m936196deea" y="159.853876"/>
      </g>
     </g>
     <g id="text_10">
      <!-- 0.0 -->
      <g transform="translate(41.898281 166.312548)scale(0.17 -0.17)">
       <use xlink:href="#DejaVuSans-30"/>
       <use x="63.623047" xlink:href="#DejaVuSans-2e"/>
       <use x="95.410156" xlink:href="#DejaVuSans-30"/>
      </g>
     </g>
    </g>
    <g id="ytick_4">
     <g id="line2d_19">
      <path clip-path="url(#p18cb049645)" d="M 75.933594 118.775291 
L 433.053594 118.775291 
" style="fill:none;stroke:#b0b0b0;stroke-linecap:square;stroke-width:0.8;"/>
     </g>
     <g id="line2d_20">
      <g>
       <use style="stroke:#000000;stroke-width:0.8;" x="75.933594" xlink:href="#m936196deea" y="118.775291"/>
      </g>
     </g>
     <g id="text_11">
      <!-- 2.5 -->
      <g transform="translate(41.898281 125.233963)scale(0.17 -0.17)">
       <use xlink:href="#DejaVuSans-32"/>
       <use x="63.623047" xlink:href="#DejaVuSans-2e"/>
       <use x="95.410156" xlink:href="#DejaVuSans-35"/>
      </g>
     </g>
    </g>
    <g id="ytick_5">
     <g id="line2d_21">
      <path clip-path="url(#p18cb049645)" d="M 75.933594 77.696707 
L 433.053594 77.696707 
" style="fill:none;stroke:#b0b0b0;stroke-linecap:square;stroke-width:0.8;"/>
     </g>
     <g id="line2d_22">
      <g>
       <use style="stroke:#000000;stroke-width:0.8;" x="75.933594" xlink:href="#m936196deea" y="77.696707"/>
      </g>
     </g>
     <g id="text_12">
      <!-- 5.0 -->
      <g transform="translate(41.898281 84.155379)scale(0.17 -0.17)">
       <use xlink:href="#DejaVuSans-35"/>
       <use x="63.623047" xlink:href="#DejaVuSans-2e"/>
       <use x="95.410156" xlink:href="#DejaVuSans-30"/>
      </g>
     </g>
    </g>
    <g id="ytick_6">
     <g id="line2d_23">
      <path clip-path="url(#p18cb049645)" d="M 75.933594 36.618122 
L 433.053594 36.618122 
" style="fill:none;stroke:#b0b0b0;stroke-linecap:square;stroke-width:0.8;"/>
     </g>
     <g id="line2d_24">
      <g>
       <use style="stroke:#000000;stroke-width:0.8;" x="75.933594" xlink:href="#m936196deea" y="36.618122"/>
      </g>
     </g>
     <g id="text_13">
      <!-- 7.5 -->
      <defs>
       <path d="M 8.203125 72.90625 
L 55.078125 72.90625 
L 55.078125 68.703125 
L 28.609375 0 
L 18.3125 0 
L 43.21875 64.59375 
L 8.203125 64.59375 
z
" id="DejaVuSans-37"/>
      </defs>
      <g transform="translate(41.898281 43.076794)scale(0.17 -0.17)">
       <use xlink:href="#DejaVuSans-37"/>
       <use x="63.623047" xlink:href="#DejaVuSans-2e"/>
       <use x="95.410156" xlink:href="#DejaVuSans-35"/>
      </g>
     </g>
    </g>
    <g id="text_14">
     <!-- Reactive power loss(pu) -->
     <defs>
      <path d="M 44.390625 34.1875 
Q 47.5625 33.109375 50.5625 29.59375 
Q 53.5625 26.078125 56.59375 19.921875 
L 66.609375 0 
L 56 0 
L 46.6875 18.703125 
Q 43.0625 26.03125 39.671875 28.421875 
Q 36.28125 30.8125 30.421875 30.8125 
L 19.671875 30.8125 
L 19.671875 0 
L 9.8125 0 
L 9.8125 72.90625 
L 32.078125 72.90625 
Q 44.578125 72.90625 50.734375 67.671875 
Q 56.890625 62.453125 56.890625 51.90625 
Q 56.890625 45.015625 53.6875 40.46875 
Q 50.484375 35.9375 44.390625 34.1875 
z
M 19.671875 64.796875 
L 19.671875 38.921875 
L 32.078125 38.921875 
Q 39.203125 38.921875 42.84375 42.21875 
Q 46.484375 45.515625 46.484375 51.90625 
Q 46.484375 58.296875 42.84375 61.546875 
Q 39.203125 64.796875 32.078125 64.796875 
z
" id="DejaVuSans-52"/>
      <path d="M 48.78125 52.59375 
L 48.78125 44.1875 
Q 44.96875 46.296875 41.140625 47.34375 
Q 37.3125 48.390625 33.40625 48.390625 
Q 24.65625 48.390625 19.8125 42.84375 
Q 14.984375 37.3125 14.984375 27.296875 
Q 14.984375 17.28125 19.8125 11.734375 
Q 24.65625 6.203125 33.40625 6.203125 
Q 37.3125 6.203125 41.140625 7.25 
Q 44.96875 8.296875 48.78125 10.40625 
L 48.78125 2.09375 
Q 45.015625 0.34375 40.984375 -0.53125 
Q 36.96875 -1.421875 32.421875 -1.421875 
Q 20.0625 -1.421875 12.78125 6.34375 
Q 5.515625 14.109375 5.515625 27.296875 
Q 5.515625 40.671875 12.859375 48.328125 
Q 20.21875 56 33.015625 56 
Q 37.15625 56 41.109375 55.140625 
Q 45.0625 54.296875 48.78125 52.59375 
z
" id="DejaVuSans-63"/>
      <path d="M 2.984375 54.6875 
L 12.5 54.6875 
L 29.59375 8.796875 
L 46.6875 54.6875 
L 56.203125 54.6875 
L 35.6875 0 
L 23.484375 0 
z
" id="DejaVuSans-76"/>
      <path d="M 18.109375 8.203125 
L 18.109375 -20.796875 
L 9.078125 -20.796875 
L 9.078125 54.6875 
L 18.109375 54.6875 
L 18.109375 46.390625 
Q 20.953125 51.265625 25.265625 53.625 
Q 29.59375 56 35.59375 56 
Q 45.5625 56 51.78125 48.09375 
Q 58.015625 40.1875 58.015625 27.296875 
Q 58.015625 14.40625 51.78125 6.484375 
Q 45.5625 -1.421875 35.59375 -1.421875 
Q 29.59375 -1.421875 25.265625 0.953125 
Q 20.953125 3.328125 18.109375 8.203125 
z
M 48.6875 27.296875 
Q 48.6875 37.203125 44.609375 42.84375 
Q 40.53125 48.484375 33.40625 48.484375 
Q 26.265625 48.484375 22.1875 42.84375 
Q 18.109375 37.203125 18.109375 27.296875 
Q 18.109375 17.390625 22.1875 11.75 
Q 26.265625 6.109375 33.40625 6.109375 
Q 40.53125 6.109375 44.609375 11.75 
Q 48.6875 17.390625 48.6875 27.296875 
z
" id="DejaVuSans-70"/>
      <path d="M 4.203125 54.6875 
L 13.1875 54.6875 
L 24.421875 12.015625 
L 35.59375 54.6875 
L 46.1875 54.6875 
L 57.421875 12.015625 
L 68.609375 54.6875 
L 77.59375 54.6875 
L 63.28125 0 
L 52.6875 0 
L 40.921875 44.828125 
L 29.109375 0 
L 18.5 0 
z
" id="DejaVuSans-77"/>
      <path d="M 9.421875 75.984375 
L 18.40625 75.984375 
L 18.40625 0 
L 9.421875 0 
z
" id="DejaVuSans-6c"/>
      <path d="M 31 75.875 
Q 24.46875 64.65625 21.28125 53.65625 
Q 18.109375 42.671875 18.109375 31.390625 
Q 18.109375 20.125 21.3125 9.0625 
Q 24.515625 -2 31 -13.1875 
L 23.1875 -13.1875 
Q 15.875 -1.703125 12.234375 9.375 
Q 8.59375 20.453125 8.59375 31.390625 
Q 8.59375 42.28125 12.203125 53.3125 
Q 15.828125 64.359375 23.1875 75.875 
z
" id="DejaVuSans-28"/>
      <path d="M 8.015625 75.875 
L 15.828125 75.875 
Q 23.140625 64.359375 26.78125 53.3125 
Q 30.421875 42.28125 30.421875 31.390625 
Q 30.421875 20.453125 26.78125 9.375 
Q 23.140625 -1.703125 15.828125 -13.1875 
L 8.015625 -13.1875 
Q 14.5 -2 17.703125 9.0625 
Q 20.90625 20.125 20.90625 31.390625 
Q 20.90625 42.671875 17.703125 53.65625 
Q 14.5 64.65625 8.015625 75.875 
z
" id="DejaVuSans-29"/>
     </defs>
     <g transform="translate(20.117344 246.234125)rotate(-90)scale(0.17 -0.17)">
      <use xlink:href="#DejaVuSans-52"/>
      <use x="69.419922" xlink:href="#DejaVuSans-65"/>
      <use x="130.943359" xlink:href="#DejaVuSans-61"/>
      <use x="192.222656" xlink:href="#DejaVuSans-63"/>
      <use x="247.203125" xlink:href="#DejaVuSans-74"/>
      <use x="286.412109" xlink:href="#DejaVuSans-69"/>
      <use x="314.195312" xlink:href="#DejaVuSans-76"/>
      <use x="373.375" xlink:href="#DejaVuSans-65"/>
      <use x="434.898438" xlink:href="#DejaVuSans-20"/>
      <use x="466.685547" xlink:href="#DejaVuSans-70"/>
      <use x="530.162109" xlink:href="#DejaVuSans-6f"/>
      <use x="591.34375" xlink:href="#DejaVuSans-77"/>
      <use x="673.130859" xlink:href="#DejaVuSans-65"/>
      <use x="734.654297" xlink:href="#DejaVuSans-72"/>
      <use x="775.767578" xlink:href="#DejaVuSans-20"/>
      <use x="807.554688" xlink:href="#DejaVuSans-6c"/>
      <use x="835.337891" xlink:href="#DejaVuSans-6f"/>
      <use x="896.519531" xlink:href="#DejaVuSans-73"/>
      <use x="948.619141" xlink:href="#DejaVuSans-73"/>
      <use x="1000.71875" xlink:href="#DejaVuSans-28"/>
      <use x="1039.732422" xlink:href="#DejaVuSans-70"/>
      <use x="1103.208984" xlink:href="#DejaVuSans-75"/>
      <use x="1166.587891" xlink:href="#DejaVuSans-29"/>
     </g>
    </g>
   </g>
   <g id="line2d_25">
    <path clip-path="url(#p18cb049645)" d="M 92.166321 178.679369 
L 92.81563 129.352205 
L 93.464939 126.792188 
L 94.114248 135.619154 
L 94.763557 150.103463 
L 95.412866 142.08328 
L 96.062176 110.924352 
L 96.711485 71.58257 
L 97.360794 22.892945 
L 98.010103 22.796 
L 98.659412 26.113506 
L 99.95803 30.29202 
L 100.607339 32.65486 
L 101.256648 36.131752 
L 101.905957 210.574426 
L 102.555266 70.946674 
L 103.204576 223.070531 
L 103.853885 235.842685 
L 104.503194 240.246309 
L 105.152503 233.999078 
L 105.801812 192.724959 
L 106.451121 171.507049 
L 107.10043 131.462001 
L 107.749739 129.703838 
L 108.399048 126.373186 
L 109.697666 116.719719 
L 110.346976 116.492965 
L 110.996285 119.340533 
L 111.645594 126.984436 
L 112.294903 151.661163 
L 112.944212 171.099549 
L 113.593521 198.334651 
L 114.24283 202.426078 
L 114.892139 209.590183 
L 115.541448 194.190643 
L 116.190757 183.539788 
L 116.840066 165.678819 
L 117.489376 153.356887 
L 118.138685 144.543066 
L 118.787994 140.660318 
L 119.437303 140.259391 
L 120.086612 141.912393 
L 121.38523 146.503336 
L 122.034539 148.105401 
L 123.333157 149.912858 
L 123.982466 150.264491 
L 124.631776 150.172475 
L 125.930394 149.326256 
L 126.579703 148.923686 
L 127.229012 148.738011 
L 127.878321 148.876035 
L 128.52763 149.345974 
L 129.176939 150.275993 
L 130.475557 152.834367 
L 131.124866 153.769316 
L 131.774176 153.925414 
L 132.423485 153.503127 
L 133.072794 153.803822 
L 133.722103 154.653327 
L 135.67003 157.900178 
L 136.319339 158.69546 
L 136.968648 159.217979 
L 137.617957 159.466094 
L 138.267266 159.49567 
L 140.215194 159.045449 
L 142.81243 158.516357 
L 144.111048 158.164724 
L 146.058976 157.210058 
L 147.357594 156.649746 
L 148.656212 156.434494 
L 149.95483 156.67768 
L 151.253448 157.277427 
L 153.850685 158.720107 
L 155.149303 159.20812 
L 156.447921 159.461164 
L 157.09723 159.521961 
L 157.746539 159.802938 
L 160.343776 161.493733 
L 160.993085 161.533168 
L 161.642394 161.335991 
L 162.291703 160.918633 
L 163.590321 159.648483 
L 164.888939 158.153222 
L 165.538248 157.619201 
L 166.187557 157.74408 
L 167.486176 158.322466 
L 168.784794 158.909068 
L 170.083412 159.191689 
L 171.38203 159.170328 
L 175.277885 158.733252 
L 177.875121 158.912355 
L 180.472357 159.0093 
L 187.614757 158.999441 
L 195.406466 159.048735 
L 212.937812 159.160469 
L 246.701885 159.308352 
L 416.171557 159.676416 
L 416.171557 159.676416 
" style="fill:none;stroke:#1f77b4;stroke-linecap:square;stroke-width:0.5;"/>
   </g>
   <g id="line2d_26">
    <path clip-path="url(#p18cb049645)" d="M 92.81563 134.439377 
L 93.464939 146.431037 
L 94.114248 141.973189 
L 94.763557 155.724656 
L 95.412866 152.900093 
L 96.062176 131.177737 
L 97.360794 29.526315 
L 98.010103 29.08431 
L 98.659412 29.772787 
L 99.308721 31.506303 
L 100.607339 38.85937 
L 101.256648 56.809068 
L 101.905957 220.140806 
L 102.555266 144.06984 
L 103.204576 241.166469 
L 103.853885 241.174685 
L 104.503194 234.386859 
L 105.152503 217.220941 
L 105.801812 195.597174 
L 106.451121 164.7488 
L 107.10043 140.878856 
L 107.749739 129.613465 
L 108.399048 132.549762 
L 110.346976 144.761604 
L 111.645594 160.846334 
L 112.944212 180.357019 
L 113.593521 185.723525 
L 114.24283 185.698878 
L 114.892139 180.897613 
L 116.840066 155.780523 
L 117.489376 150.200408 
L 118.138685 147.30519 
L 118.787994 146.483618 
L 119.437303 146.822106 
L 120.086612 147.392276 
L 120.735921 147.551661 
L 121.38523 147.009424 
L 123.982466 142.941001 
L 124.631776 142.395477 
L 125.281085 142.360971 
L 125.930394 142.865416 
L 127.229012 146.289727 
L 130.475557 155.258004 
L 131.124866 156.61524 
L 132.423485 158.370117 
L 133.722103 159.4168 
L 135.020721 159.955751 
L 136.319339 160.10692 
L 137.617957 159.899884 
L 138.267266 159.5844 
L 142.81243 156.054928 
L 144.111048 155.336875 
L 144.760357 155.131482 
L 145.409666 155.047681 
L 146.058976 155.095332 
L 147.357594 155.563628 
L 148.656212 156.388486 
L 151.253448 158.182799 
L 151.902757 158.513071 
L 152.552066 159.165399 
L 153.850685 161.193038 
L 155.149303 163.24368 
L 155.798612 163.966664 
L 156.447921 164.375806 
L 157.09723 164.421814 
L 157.746539 164.112903 
L 158.395848 163.500011 
L 159.045157 162.652149 
L 160.993085 159.719138 
L 161.642394 159.065167 
L 162.291703 158.692173 
L 162.941012 158.611659 
L 163.590321 158.764472 
L 164.888939 159.535106 
L 166.187557 160.443764 
L 167.486176 161.012292 
L 168.135485 161.059943 
L 168.784794 160.85455 
L 169.434103 160.382968 
L 170.083412 159.712565 
L 170.732721 159.398725 
L 172.031339 159.175257 
L 173.329957 159.245913 
L 176.576503 159.592616 
L 179.173739 159.535106 
L 182.420285 159.49567 
L 194.757157 159.544965 
L 325.268285 159.766789 
L 359.681666 159.78815 
L 410.977085 159.809511 
L 416.820866 159.807868 
L 416.820866 159.807868 
" style="fill:none;stroke:#ff7f0e;stroke-linecap:square;stroke-width:0.5;"/>
   </g>
   <g id="line2d_27">
    <path clip-path="url(#p18cb049645)" d="M 92.81563 134.44102 
L 93.464939 151.692383 
L 94.114248 144.843761 
L 94.763557 157.790088 
L 95.412866 154.477511 
L 96.062176 135.865625 
L 97.360794 31.084015 
L 98.010103 31.779065 
L 98.659412 31.537523 
L 99.308721 32.07976 
L 100.607339 40.553451 
L 101.905957 230.040745 
L 102.555266 190.523147 
L 103.204576 243.558886 
L 103.853885 235.035901 
L 105.152503 205.383736 
L 106.451121 154.825857 
L 107.10043 140.919935 
L 107.749739 137.996782 
L 110.346976 156.240603 
L 110.996285 160.974499 
L 112.944212 178.069763 
L 113.593521 179.665255 
L 114.24283 177.336921 
L 114.892139 171.707512 
L 116.190757 157.121328 
L 116.840066 151.381828 
L 117.489376 147.886862 
L 118.138685 146.462257 
L 118.787994 146.417892 
L 119.437303 146.836894 
L 120.086612 146.983134 
L 120.735921 146.569061 
L 121.38523 145.698195 
L 122.034539 144.265374 
L 123.333157 140.915005 
L 123.982466 139.733585 
L 124.631776 139.204493 
L 125.281085 139.496972 
L 126.579703 144.199649 
L 129.826248 156.263607 
L 130.475557 158.274815 
L 131.124866 159.451306 
L 131.774176 160.241658 
L 132.423485 160.639298 
L 133.072794 160.787181 
L 134.371412 160.698451 
L 135.67003 160.371466 
L 136.319339 160.105277 
L 136.968648 159.648483 
L 140.864503 155.037822 
L 142.163121 154.024003 
L 142.81243 153.736453 
L 143.461739 153.609931 
L 144.111048 153.64608 
L 144.760357 153.833398 
L 146.058976 154.589244 
L 149.95483 157.750652 
L 150.604139 158.812123 
L 153.201376 164.244355 
L 153.850685 165.136582 
L 154.499994 165.603234 
L 155.149303 165.58516 
L 155.798612 165.118507 
L 156.447921 164.306794 
L 158.395848 161.321203 
L 159.045157 160.698451 
L 159.694466 160.328744 
L 160.343776 160.223583 
L 160.993085 160.340246 
L 162.291703 160.99586 
L 163.590321 161.743491 
L 164.23963 162.001464 
L 164.888939 162.131272 
L 165.538248 162.11977 
L 166.187557 161.97846 
L 167.486176 161.391858 
L 170.083412 159.824299 
L 171.38203 159.285348 
L 172.680648 159.272203 
L 175.927194 159.653412 
L 178.52443 159.559753 
L 181.770976 159.43816 
L 189.562685 159.521961 
L 194.757157 159.543322 
L 201.899557 159.561396 
L 339.553085 159.807868 
L 346.046176 159.799652 
L 369.421303 159.811154 
L 409.678466 159.807868 
L 414.872939 159.837444 
L 416.820866 159.816083 
L 416.820866 159.816083 
" style="fill:none;stroke:#2ca02c;stroke-linecap:square;stroke-width:0.5;"/>
   </g>
   <g id="line2d_28">
    <path clip-path="url(#p18cb049645)" d="M 92.81563 134.454165 
L 93.464939 153.941846 
L 94.114248 149.600661 
L 94.763557 160.476627 
L 95.412866 156.068073 
L 96.062176 144.865122 
L 96.711485 74.045642 
L 97.360794 33.647319 
L 98.010103 34.999626 
L 98.659412 32.681151 
L 99.308721 32.97856 
L 99.95803 35.909927 
L 100.607339 40.96095 
L 101.256648 212.230714 
L 101.905957 85.054703 
L 102.555266 236.434216 
L 103.204576 248.636199 
L 103.853885 245.501081 
L 104.503194 230.901752 
L 105.152503 209.555677 
L 105.801812 183.538144 
L 106.451121 162.144418 
L 107.10043 151.012121 
L 107.749739 149.153726 
L 108.399048 153.038117 
L 109.048357 158.572224 
L 109.697666 163.10237 
L 110.346976 165.728113 
L 110.996285 166.893102 
L 111.645594 167.464916 
L 112.294903 167.834623 
L 112.944212 167.676881 
L 113.593521 166.387014 
L 114.24283 163.697188 
L 116.190757 152.356212 
L 116.840066 150.085388 
L 117.489376 149.324613 
L 118.138685 149.618736 
L 118.787994 150.330217 
L 119.437303 150.842877 
L 120.086612 150.778795 
L 120.735921 149.907929 
L 121.38523 148.223707 
L 122.683848 143.455305 
L 123.333157 141.013594 
L 123.982466 139.135481 
L 124.631776 138.124948 
L 125.281085 139.122336 
L 126.579703 144.628509 
L 129.826248 159.375721 
L 130.475557 161.26205 
L 131.124866 162.090194 
L 131.774176 162.351454 
L 132.423485 162.108268 
L 133.072794 161.6334 
L 135.67003 159.147324 
L 136.968648 157.295501 
L 138.916576 154.364134 
L 140.215194 152.755496 
L 140.864503 152.186969 
L 141.513812 151.820548 
L 142.163121 151.667735 
L 142.81243 151.720316 
L 143.461739 151.965144 
L 144.760357 152.908309 
L 147.357594 155.49133 
L 148.006903 156.455855 
L 148.656212 158.061206 
L 151.253448 165.920361 
L 151.902757 167.220087 
L 152.552066 167.943071 
L 153.201376 168.020298 
L 153.850685 167.510924 
L 154.499994 166.552971 
L 156.447921 163.046503 
L 157.09723 162.333379 
L 157.746539 161.996535 
L 158.395848 161.963672 
L 159.045157 162.193712 
L 161.642394 163.85 
L 162.291703 164.05868 
L 162.941012 164.040605 
L 163.590321 163.85 
L 164.23963 163.498368 
L 165.538248 162.456615 
L 167.486176 160.803613 
L 168.784794 160.04448 
L 170.083412 159.638624 
L 173.979266 159.247556 
L 177.225812 159.356003 
L 183.718903 159.267274 
L 189.562685 159.367505 
L 193.458539 159.383937 
L 194.107848 159.563039 
L 195.406466 159.402011 
L 197.354394 159.38558 
L 233.715703 159.650126 
L 235.014321 159.659985 
L 235.66363 159.766789 
L 236.962248 159.664914 
L 240.208794 159.645196 
L 249.299121 159.702707 
L 332.410685 159.837444 
L 334.358612 159.812797 
L 416.820866 159.832515 
L 416.820866 159.832515 
" style="fill:none;stroke:#d62728;stroke-linecap:square;stroke-width:0.5;"/>
   </g>
   <g id="line2d_29">
    <path clip-path="url(#p18cb049645)" d="M 92.81563 134.450879 
L 93.464939 152.653621 
L 94.114248 155.703296 
L 94.763557 161.457584 
L 95.412866 162.647219 
L 96.062176 155.239929 
L 96.711485 75.407808 
L 97.360794 33.205313 
L 98.659412 34.790947 
L 99.308721 36.046308 
L 99.95803 38.522525 
L 100.607339 44.817408 
L 101.256648 222.083002 
L 101.905957 181.922934 
L 102.555266 258.08263 
L 103.204576 264.716 
L 103.853885 250.745995 
L 104.503194 232.030592 
L 105.152503 203.954201 
L 105.801812 184.109958 
L 106.451121 174.007913 
L 107.10043 171.838964 
L 107.749739 174.364475 
L 108.399048 178.171638 
L 109.048357 179.399066 
L 109.697666 175.169615 
L 110.346976 169.842544 
L 111.645594 157.341509 
L 112.294903 152.57968 
L 112.944212 148.719936 
L 114.892139 141.383301 
L 115.541448 140.162445 
L 116.190757 140.420419 
L 116.840066 142.211445 
L 118.787994 150.455096 
L 119.437303 151.227373 
L 120.086612 150.210267 
L 120.735921 147.533587 
L 122.683848 135.724315 
L 123.333157 133.019701 
L 123.982466 132.613845 
L 124.631776 135.763751 
L 125.930394 144.155284 
L 127.229012 154.346059 
L 127.878321 158.518 
L 128.52763 161.725416 
L 129.176939 163.879577 
L 129.826248 165.079072 
L 130.475557 165.473426 
L 131.124866 165.281178 
L 131.774176 164.650211 
L 132.423485 163.670898 
L 133.072794 162.390889 
L 134.371412 159.014229 
L 137.617957 148.874392 
L 138.267266 147.351198 
L 138.916576 146.196068 
L 139.565885 145.441865 
L 140.215194 145.098448 
L 140.864503 145.152672 
L 141.513812 145.556885 
L 142.163121 146.273296 
L 143.461739 148.253283 
L 144.111048 149.797838 
L 144.760357 152.479448 
L 146.058976 159.382294 
L 147.357594 166.299927 
L 148.006903 168.989753 
L 148.656212 170.846505 
L 149.305521 171.771595 
L 149.95483 171.792956 
L 150.604139 171.079831 
L 152.552066 167.575006 
L 153.201376 166.924322 
L 153.850685 166.81916 
L 154.499994 167.300602 
L 155.149303 168.260197 
L 157.746539 173.464032 
L 158.395848 174.057207 
L 159.045157 174.108145 
L 159.694466 173.611915 
L 160.343776 172.627672 
L 161.642394 169.689732 
L 163.590321 164.955836 
L 164.23963 163.73991 
L 164.888939 162.760596 
L 165.538248 162.022825 
L 166.836866 161.061586 
L 168.784794 159.852233 
L 170.083412 158.65931 
L 173.329957 155.128195 
L 173.979266 154.630323 
L 174.628576 154.479154 
L 175.927194 154.691119 
L 177.225812 155.486401 
L 179.173739 156.67768 
L 180.472357 157.10654 
L 182.420285 157.410521 
L 187.614757 157.422024 
L 194.757157 158.079281 
L 201.250248 158.503212 
L 212.937812 159.019159 
L 236.962248 159.538392 
L 238.910176 159.546608 
L 248.000503 159.643553 
L 257.740139 159.702707 
L 273.972866 159.758573 
L 281.115266 159.784864 
L 290.205594 159.796366 
L 307.08763 159.817727 
L 355.136503 159.829229 
L 416.820866 159.825942 
L 416.820866 159.825942 
" style="fill:none;stroke:#9467bd;stroke-linecap:square;stroke-width:0.5;"/>
   </g>
   <g id="line2d_30">
    <path clip-path="url(#p18cb049645)" d="M 92.81563 159.81937 
L 416.820866 159.81937 
L 416.820866 159.81937 
" style="fill:none;stroke:#8c564b;stroke-dasharray:7.4,3.2;stroke-dashoffset:0;stroke-width:2;"/>
   </g>
   <g id="patch_3">
    <path d="M 75.933594 276.812 
L 75.933594 10.7 
" style="fill:none;stroke:#000000;stroke-linecap:square;stroke-linejoin:miter;stroke-width:0.8;"/>
   </g>
   <g id="patch_4">
    <path d="M 433.053594 276.812 
L 433.053594 10.7 
" style="fill:none;stroke:#000000;stroke-linecap:square;stroke-linejoin:miter;stroke-width:0.8;"/>
   </g>
   <g id="patch_5">
    <path d="M 75.933594 276.812 
L 433.053594 276.812 
" style="fill:none;stroke:#000000;stroke-linecap:square;stroke-linejoin:miter;stroke-width:0.8;"/>
   </g>
   <g id="patch_6">
    <path d="M 75.933594 10.7 
L 433.053594 10.7 
" style="fill:none;stroke:#000000;stroke-linecap:square;stroke-linejoin:miter;stroke-width:0.8;"/>
   </g>
   <g id="legend_1">
    <g id="patch_7">
     <path d="M 87.833594 174.016875 
L 285.695 174.016875 
Q 289.095 174.016875 289.095 170.616875 
L 289.095 22.6 
Q 289.095 19.2 285.695 19.2 
L 87.833594 19.2 
Q 84.433594 19.2 84.433594 22.6 
L 84.433594 170.616875 
Q 84.433594 174.016875 87.833594 174.016875 
z
" style="fill:#ffffff;opacity:0.8;stroke:#cccccc;stroke-linejoin:miter;"/>
    </g>
    <g id="line2d_31">
     <path d="M 91.233594 32.967344 
L 125.233594 32.967344 
" style="fill:none;stroke:#1f77b4;stroke-linecap:square;stroke-width:0.5;"/>
    </g>
    <g id="line2d_32"/>
    <g id="text_15">
     <!-- lamda=50 -->
     <defs>
      <path d="M 45.40625 46.390625 
L 45.40625 75.984375 
L 54.390625 75.984375 
L 54.390625 0 
L 45.40625 0 
L 45.40625 8.203125 
Q 42.578125 3.328125 38.25 0.953125 
Q 33.9375 -1.421875 27.875 -1.421875 
Q 17.96875 -1.421875 11.734375 6.484375 
Q 5.515625 14.40625 5.515625 27.296875 
Q 5.515625 40.1875 11.734375 48.09375 
Q 17.96875 56 27.875 56 
Q 33.9375 56 38.25 53.625 
Q 42.578125 51.265625 45.40625 46.390625 
z
M 14.796875 27.296875 
Q 14.796875 17.390625 18.875 11.75 
Q 22.953125 6.109375 30.078125 6.109375 
Q 37.203125 6.109375 41.296875 11.75 
Q 45.40625 17.390625 45.40625 27.296875 
Q 45.40625 37.203125 41.296875 42.84375 
Q 37.203125 48.484375 30.078125 48.484375 
Q 22.953125 48.484375 18.875 42.84375 
Q 14.796875 37.203125 14.796875 27.296875 
z
" id="DejaVuSans-64"/>
      <path d="M 10.59375 45.40625 
L 73.1875 45.40625 
L 73.1875 37.203125 
L 10.59375 37.203125 
z
M 10.59375 25.484375 
L 73.1875 25.484375 
L 73.1875 17.1875 
L 10.59375 17.1875 
z
" id="DejaVuSans-3d"/>
     </defs>
     <g transform="translate(138.833594 38.917344)scale(0.17 -0.17)">
      <use xlink:href="#DejaVuSans-6c"/>
      <use x="27.783203" xlink:href="#DejaVuSans-61"/>
      <use x="89.0625" xlink:href="#DejaVuSans-6d"/>
      <use x="186.474609" xlink:href="#DejaVuSans-64"/>
      <use x="249.951172" xlink:href="#DejaVuSans-61"/>
      <use x="311.230469" xlink:href="#DejaVuSans-3d"/>
      <use x="395.019531" xlink:href="#DejaVuSans-35"/>
      <use x="458.642578" xlink:href="#DejaVuSans-30"/>
     </g>
    </g>
    <g id="line2d_33">
     <path d="M 91.233594 57.920156 
L 125.233594 57.920156 
" style="fill:none;stroke:#ff7f0e;stroke-linecap:square;stroke-width:0.5;"/>
    </g>
    <g id="line2d_34"/>
    <g id="text_16">
     <!-- lamda=30 -->
     <g transform="translate(138.833594 63.870156)scale(0.17 -0.17)">
      <use xlink:href="#DejaVuSans-6c"/>
      <use x="27.783203" xlink:href="#DejaVuSans-61"/>
      <use x="89.0625" xlink:href="#DejaVuSans-6d"/>
      <use x="186.474609" xlink:href="#DejaVuSans-64"/>
      <use x="249.951172" xlink:href="#DejaVuSans-61"/>
      <use x="311.230469" xlink:href="#DejaVuSans-3d"/>
      <use x="395.019531" xlink:href="#DejaVuSans-33"/>
      <use x="458.642578" xlink:href="#DejaVuSans-30"/>
     </g>
    </g>
    <g id="line2d_35">
     <path d="M 91.233594 82.872969 
L 125.233594 82.872969 
" style="fill:none;stroke:#2ca02c;stroke-linecap:square;stroke-width:0.5;"/>
    </g>
    <g id="line2d_36"/>
    <g id="text_17">
     <!-- lamda=25 -->
     <g transform="translate(138.833594 88.822969)scale(0.17 -0.17)">
      <use xlink:href="#DejaVuSans-6c"/>
      <use x="27.783203" xlink:href="#DejaVuSans-61"/>
      <use x="89.0625" xlink:href="#DejaVuSans-6d"/>
      <use x="186.474609" xlink:href="#DejaVuSans-64"/>
      <use x="249.951172" xlink:href="#DejaVuSans-61"/>
      <use x="311.230469" xlink:href="#DejaVuSans-3d"/>
      <use x="395.019531" xlink:href="#DejaVuSans-32"/>
      <use x="458.642578" xlink:href="#DejaVuSans-35"/>
     </g>
    </g>
    <g id="line2d_37">
     <path d="M 91.233594 107.825781 
L 125.233594 107.825781 
" style="fill:none;stroke:#d62728;stroke-linecap:square;stroke-width:0.5;"/>
    </g>
    <g id="line2d_38"/>
    <g id="text_18">
     <!-- lamda=20 -->
     <g transform="translate(138.833594 113.775781)scale(0.17 -0.17)">
      <use xlink:href="#DejaVuSans-6c"/>
      <use x="27.783203" xlink:href="#DejaVuSans-61"/>
      <use x="89.0625" xlink:href="#DejaVuSans-6d"/>
      <use x="186.474609" xlink:href="#DejaVuSans-64"/>
      <use x="249.951172" xlink:href="#DejaVuSans-61"/>
      <use x="311.230469" xlink:href="#DejaVuSans-3d"/>
      <use x="395.019531" xlink:href="#DejaVuSans-32"/>
      <use x="458.642578" xlink:href="#DejaVuSans-30"/>
     </g>
    </g>
    <g id="line2d_39">
     <path d="M 91.233594 132.778594 
L 125.233594 132.778594 
" style="fill:none;stroke:#9467bd;stroke-linecap:square;stroke-width:0.5;"/>
    </g>
    <g id="line2d_40"/>
    <g id="text_19">
     <!-- lamda=15 -->
     <g transform="translate(138.833594 138.728594)scale(0.17 -0.17)">
      <use xlink:href="#DejaVuSans-6c"/>
      <use x="27.783203" xlink:href="#DejaVuSans-61"/>
      <use x="89.0625" xlink:href="#DejaVuSans-6d"/>
      <use x="186.474609" xlink:href="#DejaVuSans-64"/>
      <use x="249.951172" xlink:href="#DejaVuSans-61"/>
      <use x="311.230469" xlink:href="#DejaVuSans-3d"/>
      <use x="395.019531" xlink:href="#DejaVuSans-31"/>
      <use x="458.642578" xlink:href="#DejaVuSans-35"/>
     </g>
    </g>
    <g id="line2d_41">
     <path d="M 91.233594 157.731406 
L 125.233594 157.731406 
" style="fill:none;stroke:#8c564b;stroke-dasharray:7.4,3.2;stroke-dashoffset:0;stroke-width:2;"/>
    </g>
    <g id="line2d_42"/>
    <g id="text_20">
     <!-- Consensus value -->
     <defs>
      <path d="M 64.40625 67.28125 
L 64.40625 56.890625 
Q 59.421875 61.53125 53.78125 63.8125 
Q 48.140625 66.109375 41.796875 66.109375 
Q 29.296875 66.109375 22.65625 58.46875 
Q 16.015625 50.828125 16.015625 36.375 
Q 16.015625 21.96875 22.65625 14.328125 
Q 29.296875 6.6875 41.796875 6.6875 
Q 48.140625 6.6875 53.78125 8.984375 
Q 59.421875 11.28125 64.40625 15.921875 
L 64.40625 5.609375 
Q 59.234375 2.09375 53.4375 0.328125 
Q 47.65625 -1.421875 41.21875 -1.421875 
Q 24.65625 -1.421875 15.125 8.703125 
Q 5.609375 18.84375 5.609375 36.375 
Q 5.609375 53.953125 15.125 64.078125 
Q 24.65625 74.21875 41.21875 74.21875 
Q 47.75 74.21875 53.53125 72.484375 
Q 59.328125 70.75 64.40625 67.28125 
z
" id="DejaVuSans-43"/>
     </defs>
     <g transform="translate(138.833594 163.681406)scale(0.17 -0.17)">
      <use xlink:href="#DejaVuSans-43"/>
      <use x="69.824219" xlink:href="#DejaVuSans-6f"/>
      <use x="131.005859" xlink:href="#DejaVuSans-6e"/>
      <use x="194.384766" xlink:href="#DejaVuSans-73"/>
      <use x="246.484375" xlink:href="#DejaVuSans-65"/>
      <use x="308.007812" xlink:href="#DejaVuSans-6e"/>
      <use x="371.386719" xlink:href="#DejaVuSans-73"/>
      <use x="423.486328" xlink:href="#DejaVuSans-75"/>
      <use x="486.865234" xlink:href="#DejaVuSans-73"/>
      <use x="538.964844" xlink:href="#DejaVuSans-20"/>
      <use x="570.751953" xlink:href="#DejaVuSans-76"/>
      <use x="629.931641" xlink:href="#DejaVuSans-61"/>
      <use x="691.210938" xlink:href="#DejaVuSans-6c"/>
      <use x="718.994141" xlink:href="#DejaVuSans-75"/>
      <use x="782.373047" xlink:href="#DejaVuSans-65"/>
     </g>
    </g>
   </g>
  </g>
 </g>
 <defs>
  <clipPath id="p18cb049645">
   <rect height="266.112" width="357.12" x="75.933594" y="10.7"/>
  </clipPath>
 </defs>
</svg>
